<?xml version="1.0" encoding="UTF-8"?><svg xmlns="http://www.w3.org/2000/svg" xmlns:xlink="http://www.w3.org/1999/xlink" viewBox="0 0 141.99 141.99"><defs><style>.cls-1{fill:url(#_езымянный_градиент_908);}.cls-2{fill:url(#_езымянный_градиент_84);}.cls-2,.cls-3,.cls-4,.cls-5,.cls-6,.cls-7,.cls-8,.cls-9{mix-blend-mode:screen;}.cls-2,.cls-10,.cls-11,.cls-12{opacity:.5;}.cls-3{fill:url(#_езымянный_градиент_556-2);}.cls-13{fill:url(#_езымянный_градиент_795);}.cls-13,.cls-10,.cls-14,.cls-11,.cls-12{mix-blend-mode:multiply;}.cls-10{fill:url(#_езымянный_градиент_121);}.cls-15{isolation:isolate;}.cls-16{fill:url(#_езымянный_градиент_918);}.cls-17{fill:url(#_езымянный_градиент_908-2);}.cls-4{fill:url(#_езымянный_градиент_556-4);}.cls-14{fill:url(#_езымянный_градиент_772);}.cls-18{fill:url(#_езымянный_градиент_918-3);}.cls-19{fill:url(#_езымянный_градиент_895-5);}.cls-20{fill:url(#_езымянный_градиент_895);}.cls-5{fill:url(#_езымянный_градиент_556-6);}.cls-21{fill:url(#_езымянный_градиент_895-2);}.cls-6{fill:url(#_езымянный_градиент_553);}.cls-7{fill:url(#_езымянный_градиент_556);}.cls-22{fill:#e6aea9;}.cls-23{fill:url(#_езымянный_градиент_918-2);}.cls-8{fill:url(#_езымянный_градиент_556-5);}.cls-24{fill:url(#_езымянный_градиент_879);}.cls-25{fill:url(#_езымянный_градиент_539);}.cls-9{fill:url(#_езымянный_градиент_556-3);}.cls-26{fill:url(#_езымянный_градиент_895-3);}.cls-27{fill:url(#_езымянный_градиент_895-4);}.cls-12{fill:url(#_езымянный_градиент_8);}</style><radialGradient id="_езымянный_градиент_539" cx="70.99" cy="71" fx="70.99" fy="71" r="70.99" gradientTransform="matrix(1, 0, 0, 1, 0, 0)" gradientUnits="userSpaceOnUse"><stop offset="0" stop-color="#fb9d20"/><stop offset=".62" stop-color="#d45429"/><stop offset=".86" stop-color="#d45429"/><stop offset=".97" stop-color="#ec7f20"/><stop offset=".98" stop-color="#ed8220"/><stop offset=".99" stop-color="#f38e20"/><stop offset="1" stop-color="#fb9d20"/></radialGradient><linearGradient id="_езымянный_градиент_84" x1="70.99" y1="141.99" x2="70.99" y2="0" gradientTransform="matrix(1, 0, 0, 1, 0, 0)" gradientUnits="userSpaceOnUse"><stop offset=".67" stop-color="#000"/><stop offset=".7" stop-color="#0a0700"/><stop offset=".74" stop-color="#261b00"/><stop offset=".81" stop-color="#543b01"/><stop offset=".88" stop-color="#946902"/><stop offset=".97" stop-color="#e3a103"/><stop offset=".99" stop-color="#ffb504"/></linearGradient><linearGradient id="_езымянный_градиент_121" x1="69.61" y1="141.99" x2="69.61" y2="101.72" gradientTransform="matrix(1, 0, 0, 1, 0, 0)" gradientUnits="userSpaceOnUse"><stop offset="0" stop-color="#d23223"/><stop offset=".25" stop-color="#e27b71"/><stop offset="1" stop-color="#ffe7e2"/></linearGradient><radialGradient id="_езымянный_градиент_879" cx="69.55" cy="11.88" fx="69.55" fy="11.88" r="103.42" gradientTransform="matrix(1, 0, 0, 1, 0, 0)" gradientUnits="userSpaceOnUse"><stop offset=".06" stop-color="#ffbbd6"/><stop offset="1" stop-color="#ffa6da"/></radialGradient><radialGradient id="_езымянный_градиент_908" cx="45.95" cy="56.09" fx="45.95" fy="56.09" r="66.23" gradientTransform="matrix(1, 0, 0, 1, 0, 0)" gradientUnits="userSpaceOnUse"><stop offset=".05" stop-color="#ffcfff"/><stop offset=".94" stop-color="#ffc5d0"/></radialGradient><radialGradient id="_езымянный_градиент_895" cx="67.84" cy="41.09" fx="67.84" fy="41.09" r="95.37" gradientTransform="matrix(1, 0, 0, 1, 0, 0)" gradientUnits="userSpaceOnUse"><stop offset=".05" stop-color="#ff72ff"/><stop offset=".94" stop-color="#ff869a"/></radialGradient><radialGradient id="_езымянный_градиент_895-2" cx="109.16" cy="23.78" fx="109.16" fy="23.78" r="43.78" xlink:href="#_езымянный_градиент_895"/><radialGradient id="_езымянный_градиент_895-3" cx="114.87" cy="24.37" fx="114.87" fy="24.37" r="33.67" xlink:href="#_езымянный_градиент_895"/><radialGradient id="_езымянный_градиент_908-2" cx="116.06" cy="25.48" fx="116.06" fy="25.48" r="32.28" xlink:href="#_езымянный_градиент_908"/><radialGradient id="_езымянный_градиент_895-4" cx="93.19" cy="104.12" fx="93.19" fy="104.12" r="42.95" xlink:href="#_езымянный_градиент_895"/><radialGradient id="_езымянный_градиент_895-5" cx="97.47" cy="110.75" fx="97.47" fy="110.75" r="32.9" xlink:href="#_езымянный_градиент_895"/><radialGradient id="_езымянный_градиент_918" cx="56.22" cy="36.65" fx="56.22" fy="36.65" r="39.71" gradientTransform="matrix(1, 0, 0, 1, 0, 0)" gradientUnits="userSpaceOnUse"><stop offset=".05" stop-color="#ff98ff"/><stop offset=".94" stop-color="#ff86bd"/></radialGradient><radialGradient id="_езымянный_градиент_918-2" cx="53.76" cy="37.77" fx="53.76" fy="37.77" r="18.61" xlink:href="#_езымянный_градиент_918"/><radialGradient id="_езымянный_градиент_918-3" cx="98.22" cy="66.49" fx="98.22" fy="66.49" r="37.61" xlink:href="#_езымянный_градиент_918"/><radialGradient id="_езымянный_градиент_556" cx="-319.84" cy="212.02" fx="-319.84" fy="212.02" r="3.61" gradientTransform="translate(-905.86 312.96) rotate(-136.46) scale(1.86 4.03)" gradientUnits="userSpaceOnUse"><stop offset="0" stop-color="#fff"/><stop offset=".37" stop-color="#fdfdfd"/><stop offset=".5" stop-color="#f6f6f6"/><stop offset=".59" stop-color="#eaeaea"/><stop offset=".67" stop-color="#d9d9d9"/><stop offset=".74" stop-color="#c3c3c3"/><stop offset=".79" stop-color="#a8a8a8"/><stop offset=".85" stop-color="#878787"/><stop offset=".89" stop-color="#626262"/><stop offset=".94" stop-color="#373737"/><stop offset=".98" stop-color="#090909"/><stop offset=".99" stop-color="#000"/></radialGradient><radialGradient id="_езымянный_градиент_553" cx="-302.25" cy="243.9" fx="-302.25" fy="243.9" r="9.05" gradientTransform="translate(-922.55 -428.88) rotate(-91.08) scale(1.86 4.03) skewX(.01)" gradientUnits="userSpaceOnUse"><stop offset="0" stop-color="#ffa4b3"/><stop offset=".09" stop-color="#e3929f"/><stop offset=".34" stop-color="#945f67"/><stop offset=".57" stop-color="#54363b"/><stop offset=".76" stop-color="#26181b"/><stop offset=".9" stop-color="#0a0607"/><stop offset=".99" stop-color="#000"/></radialGradient><radialGradient id="_езымянный_градиент_556-2" cx="-277.3" cy="223.11" fx="-277.3" fy="223.11" r="2.67" gradientTransform="translate(-968.19 -179.47) rotate(-108.96) scale(1.86 4.03)" xlink:href="#_езымянный_градиент_556"/><radialGradient id="_езымянный_градиент_556-3" cx="-328.83" cy="235.35" fx="-328.83" fy="235.35" r="3.61" gradientTransform="translate(-645.51 -318.68) rotate(-83.61) scale(1.04 3.21)" xlink:href="#_езымянный_градиент_556"/><radialGradient id="_езымянный_градиент_556-4" cx="-191.31" cy="180.81" fx="-191.31" fy="180.81" r="3.61" gradientTransform="translate(-58.38 989.57) rotate(161.67) scale(1.86 4.61) skewX(.01)" xlink:href="#_езымянный_градиент_556"/><radialGradient id="_езымянный_градиент_556-5" cx="-270.5" cy="200.61" fx="-270.5" fy="200.61" r="1.07" gradientTransform="translate(-901.36 214.04) rotate(-133.31) scale(1.86 4.03)" xlink:href="#_езымянный_градиент_556"/><radialGradient id="_езымянный_градиент_556-6" cx="-321.64" cy="205.17" fx="-321.64" fy="205.17" r="1.07" gradientTransform="translate(-923.77 -68.84) rotate(-116.14) scale(1.86 4.03) skewX(.01)" xlink:href="#_езымянный_градиент_556"/><linearGradient id="_езымянный_градиент_8" x1="71.99" y1="136.49" x2="71.99" y2="82.69" gradientTransform="matrix(1, 0, 0, 1, 0, 0)" gradientUnits="userSpaceOnUse"><stop offset="0" stop-color="#d254a7"/><stop offset="1" stop-color="#ffe7e2"/></linearGradient><radialGradient id="_езымянный_градиент_772" cx="72.59" cy="57.64" fx="72.59" fy="57.64" r="63.19" gradientTransform="translate(0 6.12) scale(1 .89)" gradientUnits="userSpaceOnUse"><stop offset=".18" stop-color="#f24f8d"/><stop offset=".21" stop-color="#f35e97"/><stop offset=".31" stop-color="#f68fb6"/><stop offset=".41" stop-color="#f9b7d0"/><stop offset=".51" stop-color="#fcd6e4"/><stop offset=".6" stop-color="#fdecf3"/><stop offset=".69" stop-color="#fefafc"/><stop offset=".77" stop-color="#fff"/></radialGradient><linearGradient id="_езымянный_градиент_795" x1="71.82" y1="135.22" x2="71.82" y2="5.94" gradientTransform="matrix(1, 0, 0, 1, 0, 0)" gradientUnits="userSpaceOnUse"><stop offset="0" stop-color="#cf6e8d"/><stop offset=".01" stop-color="#d788a2"/><stop offset=".03" stop-color="#e2a8ba"/><stop offset=".05" stop-color="#ebc3d0"/><stop offset=".08" stop-color="#f2d9e1"/><stop offset=".11" stop-color="#f8eaee"/><stop offset=".14" stop-color="#fcf6f8"/><stop offset=".19" stop-color="#fefdfd"/><stop offset=".33" stop-color="#fff"/></linearGradient></defs><g class="cls-15"><g id="Layer_2"><g id="objects"><g><path class="cls-25" d="M104.03,8.14C94.16,2.94,82.92,0,70.99,0,48.63,0,31.76,9.96,18.74,26.13,8.94,38.3,0,54.15,0,70.99c0,11.13,2.81,21.52,7.67,30.73,5.8,11.07,14.54,20.45,24.84,27.41,6.35,4.29,12.21,8.31,19.79,10.37,5.96,1.62,12.22,2.49,18.69,2.49,17.71,0,33.4-5.71,45.84-16.43,5.66-4.87,10.71-10.89,14.73-17.53,2.87-4.71,5.21-9.73,6.9-14.87,2.29-6.98,3.53-14.43,3.53-22.17,0-27.28-15.39-50.97-37.96-62.85ZM53.09,51.01c4.61-3.88,11.41-6.5,17.9-6.5s11.97,2.16,16.49,5.76c6.09,4.85,9.99,12.33,9.99,20.72,0,14.63-11.85,26.48-26.48,26.48s-26.48-11.85-26.48-26.48c0-8.13,2.82-15.12,8.58-19.98Z"/><path class="cls-2" d="M104.03,8.14C94.16,2.94,82.92,0,70.99,0,48.63,0,31.76,9.96,18.74,26.13,8.94,38.3,0,54.15,0,70.99c0,11.13,2.81,21.52,7.67,30.73,5.8,11.07,14.54,20.45,24.84,27.41,6.35,4.29,12.21,8.31,19.79,10.37,5.96,1.62,12.22,2.49,18.69,2.49,17.71,0,33.4-5.71,45.84-16.43,5.66-4.87,10.71-10.89,14.73-17.53,2.87-4.71,4.01-10.27,5.7-15.41,2.29-6.98,4.73-13.89,4.73-21.63,0-27.28-15.39-50.97-37.96-62.85Zm-33.04,89.33c-14.62,0-26.48-11.85-26.48-26.48,0-8.13,2.82-15.12,8.58-19.98,4.61-3.88,11.41-6.5,17.9-6.5s11.97,2.16,16.49,5.76c6.09,4.85,9.99,12.33,9.99,20.72,0,14.63-11.85,26.48-26.48,26.48Z"/><path class="cls-10" d="M131.56,108.03c-4.02,6.64-9.07,12.66-14.73,17.53-12.44,10.72-28.13,16.43-45.84,16.43-6.47,0-12.73-.87-18.69-2.49-7.58-2.06-13.44-6.08-19.79-10.37-10.3-6.96-19.04-16.34-24.84-27.41,9.88,14.29,31.91,35.93,66.04,37.2,37.43,1.39,57.85-30.89,57.85-30.89Z"/><g class="cls-11"><path class="cls-22" d="M68.72,30.64c.05,.3,.17,.61,.01,.86-.1,.15-.39,.31-.56,.39-.52,.24-1.13,.36-1.67,.58-.36,.14-.7,.25-1.09,.22-.38-.03-.63-.38-.73-.74-.2-.76,.42-1.92,1.09-2.29,.31-.17,.76-.2,1.11-.19,.7,0,1.22,.34,1.84,1.18Z"/><path class="cls-22" d="M119.95,109.9c.05,.3,.17,.61,.01,.86-.1,.15-.39,.31-.56,.39-.52,.24-1.13,.36-1.67,.58-.36,.14-.7,.25-1.09,.22-.38-.03-.63-.38-.73-.74-.2-.76,.42-1.92,1.09-2.29,.31-.17,.76-.2,1.11-.19,.7,0,1.22,.34,1.84,1.18Z"/><path class="cls-22" d="M88.21,28.78c.24-.19,.74-.52,.86-.87,.08-.25-.16-.34-.37-.3-.34,.07-.88,.87-.49,1.17h0Z"/><path class="cls-22" d="M56.75,25.64c.73,1.49,1.11,2.88,1.47,4.49,.39,1.77-.75,2.34-2.3,2.78-3.51,1-8.98,2.61-11.73-.92-1.8-2.31-1.23-6.59,1.41-8.15,1.58-.93,3.97-.69,5.73-.64,1.85,.05,3.48,.53,5.43,2.44Z"/><path class="cls-22" d="M55.86,126.09c.41,.84,.63,1.62,.82,2.52,.22,1-.42,1.31-1.29,1.56-1.97,.56-5.04,1.47-6.58-.52-1.01-1.3-.69-3.7,.79-4.57,.89-.52,2.23-.39,3.22-.36,1.04,.03,1.95,.3,3.05,1.37Z"/><path class="cls-22" d="M54.66,41.48c-.02-.2,0-.64-.11-.82-.07-.1-.31-.19-.41-.24-.22-.12-.48-.25-.73-.2-.47,.08-.7,.59-.69,1.02,0,.26-.09,.72,.12,.93,.1,.11,.35,.15,.5,.17,.48,.08,.87-.26,1.33-.28v-.58Z"/><path class="cls-22" d="M29.03,32.28c-.02-.2,0-.64-.11-.82-.07-.1-.31-.19-.41-.24-.22-.12-.48-.25-.73-.2-.47,.08-.7,.59-.69,1.02,0,.26-.09,.72,.12,.93,.1,.11,.35,.15,.5,.17,.48,.08,.87-.26,1.33-.28v-.58Z"/><path class="cls-22" d="M60.06,41.59c.36,.66,.64,1.31,.79,2.05,.09,.41,.2,1.14-.21,1.44-.41,.3-1.08,.23-1.55,.2-.51-.04-1.02-.11-1.46-.38-.32-.2-.63-.41-.8-.76-.19-.41-.12-1.02-.01-1.44,.18-.67,.95-1.18,1.6-1.32,.25-.05,1.38-.28,1.63,.21Z"/><path class="cls-22" d="M61.28,36.76c.21-.18,.82-.57,.57-.98-.14-.23-.66-.07-.86-.02-.15,.04-.58,.22-.6,.41-.02,.16,.58,.49,.7,.49l.19,.1Z"/><path class="cls-22" d="M74.63,31.97c.44,.46,1.41,1.44,.53,1.94-.53,.3-1.34,.28-1.93,.28-.6,0-1.57-.07-1.98-.59-.53-.66-.2-1.69,.46-2.13,.77-.53,1.76-.54,2.44,.11l.49,.39Z"/><path class="cls-22" d="M135.47,50.35c.44,.46,1.41,1.44,.53,1.94-.53,.3-1.34,.28-1.93,.28-.6,0-1.57-.07-1.98-.59-.53-.66-.2-1.69,.46-2.13,.77-.53,1.76-.54,2.44,.11l.49,.39Z"/><path class="cls-22" d="M38.49,16.06c.61-.49,1.26-.86,1.19-1.72-.06-.79-.9-.9-1.53-.73-.64,.17-1.05,.62-1.16,1.27-.13,.8,.27,1.15,1,1.34l.5-.17Z"/><path class="cls-22" d="M29.84,36.1c.22,.27,1.33,1.16,.77,1.5-.21,.12-.85,0-1.07,0-.34,0-.68,.02-1.02,0-.46-.02-.66-.2-.41-.67,.23-.43,.89-.75,1.39-.67l.34-.17Z"/><path class="cls-22" d="M27.9,24.32c.22,.27,1.33,1.16,.77,1.5-.2,.12-.85,0-1.07,0-.34,0-.68,.02-1.02,0-.46-.02-.66-.2-.41-.67,.23-.43,.89-.75,1.39-.67l.34-.17Z"/><path class="cls-22" d="M55.05,16.18c.23-.24,.71-.66,.69-1.08-.02-.33-.38-.29-.64-.19-.29,.11-.54,.34-.68,.63-.18,.39,0,.42,.24,.64h.39Z"/><path class="cls-22" d="M88.6,15.31c.03,.05,.62,1.1,.09,1.07-.18,0-.57-.37-.7-.46-.26-.18-.44-.35-.61-.62-.16-.24-.23-.45,.05-.6,.39-.2,.72,.14,.98,.42l.19,.19Z"/><path class="cls-22" d="M133.19,42.15c.03,.05,.62,1.1,.09,1.07-.18,0-.57-.37-.7-.46-.26-.18-.44-.35-.61-.62-.16-.24-.23-.45,.05-.6,.39-.2,.72,.14,.98,.42l.19,.19Z"/><path class="cls-22" d="M63.9,16.59c.19-.45,.37-.7,.25-1.16-.12-.48-.41-.97-.8-1.29-.69-.55-1.64-.82-2.48-.46-.64,.28-1.03,.84-1.31,1.45-.17,.37-.31,.69-.51,1.05-.1,.19-.28,.29-.34,.48-.06,.02-.08,.05-.07,.11,.07,.08,.15,.15,.24,.2,.29,.21,.64,.3,.98,.4,.62,.18,1.19,.15,1.82,0,.64-.16,1.37-.25,2.21-.78Z"/><path class="cls-22" d="M40.33,22.1c.43,.37,1.44,1.13,1.28,1.89-.16,.77-1.51,.35-1.93,.12-.38-.2-.81-.53-.71-1.01,.13-.6,.67-.68,1.19-.67l.17-.34Z"/><path class="cls-22" d="M47.01,41.46c0-.74-.04-1.49,.05-2.22,.1-.81,.35-1.72,.14-2.53-.09-.37-.21-.69-.58-.82-.64-.22-1.5-.1-2.13,.11-.62,.2-1.26,.55-1.63,1.1-.4,.58-.17,1.32,.15,1.88,.29,.5,.5,1.05,.93,1.45,.71,.67,1.82,1.13,3.07,1.02Z"/><path class="cls-22" d="M43.67,32.56c.32,.42,.63,.86,.33,1.39-.23,.4-.84,.57-1.24,.31-.28-.18-.22-.49-.13-.78,.07-.22,.13-.23,.28-.37,.1-.09,.24-.28,.39-.28l.37-.28Z"/><path class="cls-22" d="M42.19,38.03c.25,.39,.61,.89,.26,1.36-.16,.22-.48,.35-.69,.18-.28-.22-.55-.81-.58-1.17-.03-.29,.32-.76,.64-.74l.37,.37Z"/><path class="cls-22" d="M72.51,44.96c.06,.07,.25,.23,.28,.34,.03,.12,0,.36-.07,.46-.15,.26-.5,.17-.69,0-.18-.17-.26-.41-.18-.64,.08-.24,.33-.47,.6-.43l.05,.27Z"/><path class="cls-22" d="M50.12,20.81c.1,.04,.26,.07,.33,.16,.07,.09,.11,.25,.15,.35,.07,.16,.19,.33,.02,.46-.14,.1-.36,.04-.51,0-.21-.06-.52-.15-.66-.33-.16-.21-.26-.51-.3-.78-.02-.15,.09-.25,.21-.34,.22-.16,.41-.11,.65,0l.11,.48Z"/><path class="cls-22" d="M75.98,33.94c0,.31-.02,.75-.38,.9-.2,.09-.37-.02-.46-.2-.21-.42,.08-1.1,.57-1.13l.27,.43Z"/><path class="cls-22" d="M55.85,22.99c-.12,.27-.2,.48-.51,.53-.36,.05-.61-.21-.78-.49-.12-.22-.19-.5-.02-.73,.23-.3,.66-.24,.98-.17l.32,.86Z"/><path class="cls-22" d="M90.6,19.97c.28,.23,.49,.44,.61,.8,.16,.46,.18,.99-.08,1.42-.45,.79-1.63,1.46-2.53,1.06-.96-.43-1.43-2.01-.64-2.81,.4-.4,.93-.65,1.48-.75,.6-.11,1.04,.07,1.16,.28Z"/><path class="cls-22" d="M136.53,66.23c.28,.23,.49,.44,.61,.8,.16,.46,.18,.99-.08,1.42-.45,.79-1.63,1.46-2.53,1.06-.96-.43-1.43-2.01-.64-2.81,.4-.4,.93-.65,1.48-.75,.6-.11,1.04,.07,1.16,.28Z"/><path class="cls-22" d="M134.65,86.89c.28,.23,.49,.44,.61,.8,.16,.46,.18,.99-.08,1.42-.45,.79-1.63,1.46-2.53,1.06-.96-.43-1.43-2.01-.64-2.81,.4-.4,.93-.65,1.48-.75,.6-.11,1.04,.08,1.16,.28Z"/><path class="cls-22" d="M42.12,23.85c.14,.18,.26,.32,.31,.54,.04,.19,.08,.45,.08,.65,0,.43-.41,.71-.82,.59-.11-.03-.29-.08-.37-.17-.11-.12-.08-.4-.04-.54,.05-.19,.17-.36,.32-.48,.09-.07,.3-.27,.42-.26l.11-.32Z"/><path class="cls-22" d="M32.61,18.69c.55,.07,.81,.11,1.18,.54,.29,.33,.67,.85,.66,1.32-.02,.49-.49,.97-.87,1.22-.45,.29-1.16,.57-1.7,.63-.39,.05-.7-.14-.92-.45-.24-.34-.22-.67-.11-1.05,.12-.46,.26-.93,.59-1.29,.27-.28,.77-.7,1.18-.92Z"/><path class="cls-22" d="M32.58,125.05c-.17-.11-.48-.43-.69-.45-.12-.02-.34,.11-.45,.15-.23,.09-.5,.2-.63,.42-.25,.41,0,.92,.32,1.19,.2,.17,.49,.54,.78,.52,.15,0,.34-.17,.46-.26,.37-.31,.38-.83,.66-1.19l-.44-.38Z"/><path class="cls-22" d="M26.54,107.28c.04-.78,.18-1.51-.52-2.02-.63-.47-1.26,.09-1.55,.68-.29,.59-.22,1.2,.2,1.71,.52,.63,1.04,.55,1.67,.13l.2-.49Z"/><path class="cls-22" d="M36,126.96c.35,.01,1.75-.24,1.64,.4-.04,.24-.55,.65-.69,.81-.22,.26-.43,.53-.67,.77-.32,.33-.59,.37-.78-.13-.18-.45,.02-1.17,.41-1.49l.09-.36Z"/><path class="cls-22" d="M25.83,120.69c.35,.01,1.75-.24,1.64,.4-.04,.24-.55,.65-.69,.81-.22,.26-.43,.53-.67,.77-.32,.33-.59,.37-.78-.13-.18-.45,.02-1.17,.41-1.49l.09-.36Z"/><path class="cls-22" d="M32.31,109.84c.56-.08,1.8-.34,2.27,.27,.48,.62-.73,1.37-1.17,1.53-.4,.15-.93,.26-1.23-.13-.37-.49-.07-.95,.27-1.33l-.14-.35Z"/><path class="cls-22" d="M45.55,118.9c.46,.07,1.07,.12,1.2,.69,.06,.26-.05,.59-.32,.64-.36,.07-.97-.12-1.27-.33-.23-.17-.36-.74-.14-.96l.52-.04Z"/><path class="cls-22" d="M34.8,109.65c.23,.02,.41,0,.61,.12,.17,.1,.4,.24,.54,.37,.32,.29,.27,.77-.09,1.01-.09,.06-.25,.16-.38,.17-.16,0-.35-.2-.44-.33-.11-.16-.16-.36-.15-.55,0-.11,0-.4,.08-.49l-.17-.29Z"/><path class="cls-22" d="M24.67,113.44c.42-.37,.62-.54,1.18-.54,.44,0,1.08,.05,1.43,.37,.36,.34,.41,1.01,.35,1.46-.07,.53-.33,1.25-.64,1.7-.22,.33-.56,.44-.95,.4-.41-.04-.65-.28-.86-.6-.27-.39-.53-.81-.58-1.29-.04-.39-.02-1.04,.08-1.5Z"/><path class="cls-22" d="M85.42,30.35s.06,.05,.09,.07c0,.03,.02,.05,.03,.07,.06,.11,.13,.22,.2,.32,.06,.08,.12,.15,.21,.2,.09,.05,.18,.07,.28,.06,.27-.02,.51-.26,.6-.51,.11-.29,0-.62-.19-.84-.17-.19-.4-.27-.65-.27-.19,0-.4,.06-.53,.21-.16,.2-.03,.42-.05,.68Z"/><path class="cls-22" d="M130.16,94.93s.06,.05,.09,.07c0,.02,.02,.05,.03,.07,.06,.11,.13,.22,.2,.32,.06,.08,.12,.15,.21,.2,.09,.05,.18,.07,.28,.06,.27-.02,.51-.26,.6-.51,.11-.29,0-.62-.19-.84-.17-.19-.4-.27-.65-.27-.19,0-.4,.06-.53,.21-.16,.2-.03,.42-.05,.68Z"/><path class="cls-22" d="M61.12,27.56c.25-.04,.39-.13,.57,.03,.18,.16,.34,.34,.44,.56,.09,.18,.13,.32-.09,.42-.2,.09-.47,.09-.68,.06-.25-.04-.66-.21-.73-.48-.03-.11,0-.19,.05-.28,.12-.21,.23-.31,.48-.31h-.05Z"/><path class="cls-22" d="M60.53,30.78c.1,.11,.19,.25,.32,.33,.19,.12,.41,.18,.59,.31,.28,.2,.6,.46,.73,.79,.11,.28,.21,.63-.03,.88-.21,.22-.51,.3-.8,.27-.28-.02-.57-.09-.81-.24-.26-.17-.56-.3-.66-.61-.09-.27,.01-.48,.13-.72,.08-.16,.25-.56,.53-1.01Z"/><path class="cls-22" d="M127.9,36.37c.1,.11,.19,.25,.32,.33,.19,.12,.41,.18,.59,.31,.28,.2,.6,.46,.73,.79,.11,.28,.21,.63-.03,.88-.21,.22-.51,.3-.8,.27-.28-.02-.57-.09-.81-.24-.26-.17-.56-.3-.66-.61-.09-.27,.01-.48,.13-.72,.08-.16,.25-.56,.53-1.01Z"/><path class="cls-22" d="M63.72,44.11c.11,.15,.26,.25,.21,.43-.04,.14-.15,.3-.28,.37-.38,.21-1.02,0-1.35-.21-.23-.15-.44-.36-.3-.64,.25-.49,.89-.35,1.29-.16l.43,.22Z"/><path class="cls-22" d="M64.46,23.56c-.22,.78-.23,1.54,.05,2.31,.11,.31,.26,.62,.57,.78,.27,.14,.57,.05,.85-.02,.74-.2,1.56-.71,1.88-1.43,.17-.39,.29-.83,.26-1.26-.03-.48-.21-.94-.4-1.37-.27-.63-.73-1.47-1.49-1.59-.66-.1-1.16,.25-1.38,.86-.13,.37-.2,.74-.28,1.12-.06,.29-.14,.47-.05,.6Z"/><path class="cls-22" d="M97.44,11.11c.35,.11,.68,.25,1.02,.36,.45,.15,.94,.32,1.21,.75,.51,.79-.86,1.23-1.39,1.29-.52,.05-1.53,.13-1.87-.42-.39-.64,.44-1.23,.94-1.42l.09-.56Z"/><path class="cls-22" d="M81.23,34.74c.19,.27,.28,.4,.37,.71,.18,.58,.29,1.15,.21,1.76-.07,.56-.27,1.04-.68,1.43-.26,.25-.55,.45-.88,.61-.69,.32-1.62,.35-2.22-.17-.47-.41-.63-1.08-.81-1.65-.07-.23-.1-.47-.2-.7-.1-.21-.22-.42-.25-.66-.08-.55,.54-1.01,.99-1.15,.3-.09,.57-.22,.86-.35,.33-.15,.71-.25,1.05-.36,.34-.11,.62-.17,.96-.01,.36,.17,.63,.44,.59,.54Z"/><path class="cls-22" d="M132.89,44.32c.19,.27,.28,.4,.37,.71,.18,.58,.29,1.15,.21,1.76-.07,.56-.27,1.04-.68,1.43-.26,.25-.55,.45-.88,.61-.69,.32-1.62,.35-2.22-.17-.47-.41-.63-1.08-.81-1.65-.07-.23-.1-.47-.2-.7-.1-.21-.22-.42-.25-.66-.08-.55,.54-1.01,.99-1.15,.3-.09,.57-.22,.86-.35,.33-.15,.71-.25,1.05-.36,.34-.11,.62-.17,.96-.01,.36,.17,.63,.44,.59,.54Z"/><path class="cls-22" d="M127.66,103.26c.19,.27,.28,.4,.37,.71,.18,.58,.29,1.15,.21,1.76-.07,.56-.27,1.04-.68,1.43-.26,.25-.55,.45-.88,.61-.69,.32-1.62,.35-2.22-.17-.47-.41-.63-1.08-.81-1.65-.07-.23-.1-.47-.2-.7-.1-.21-.22-.42-.25-.66-.08-.55,.54-1.01,.99-1.15,.3-.09,.57-.22,.86-.35,.33-.15,.71-.25,1.05-.36,.34-.11,.62-.17,.96-.01,.36,.17,.63,.44,.59,.54Z"/><path class="cls-22" d="M67.25,38.53c.15,.1,.32,.17,.39,.33,.05,.12,.11,.28,.09,.41-.02,.11-.1,.29-.2,.35-.15,.08-.33-.04-.45-.13-.2-.15-.64-.44-.58-.75,.05-.23,.21-.34,.37-.48l.38,.27Z"/><path class="cls-22" d="M133,73.62c.04,.25,.14,.51,.01,.71-.08,.13-.32,.26-.46,.32-.43,.2-.93,.3-1.38,.48-.29,.12-.58,.21-.9,.18-.31-.02-.52-.31-.6-.61-.17-.63,.35-1.59,.9-1.89,.25-.14,.63-.16,.91-.16,.58,0,1.01,.28,1.52,.97Z"/><path class="cls-22" d="M137.88,74.72c.36,.38,1.17,1.19,.44,1.6-.44,.25-1.1,.23-1.59,.24-.5,0-1.3-.06-1.64-.49-.44-.55-.16-1.39,.38-1.76,.64-.44,1.45-.45,2.01,.09l.4,.32Z"/><path class="cls-22" d="M136.12,85.45c.05,.06,.2,.19,.23,.28,.02,.1,0,.3-.05,.38-.13,.21-.41,.14-.57,0-.15-.14-.21-.34-.15-.53,.07-.2,.27-.39,.5-.36l.04,.22Z"/><path class="cls-22" d="M128.86,84.75c.09,.12,.21,.21,.17,.36-.03,.12-.13,.25-.23,.31-.32,.17-.84,0-1.11-.18-.19-.12-.37-.29-.25-.53,.2-.4,.73-.29,1.07-.13l.36,.18Z"/><path class="cls-22" d="M129.47,67.78c-.18,.64-.19,1.27,.04,1.91,.09,.26,.21,.51,.47,.65,.22,.12,.47,.04,.7-.02,.61-.16,1.29-.58,1.56-1.18,.14-.32,.24-.69,.21-1.04-.03-.4-.18-.77-.33-1.14-.22-.52-.6-1.22-1.23-1.31-.54-.08-.96,.21-1.14,.71-.11,.3-.16,.61-.23,.92-.05,.24-.12,.38-.04,.5Z"/><path class="cls-22" d="M131.78,80.14c.12,.08,.27,.14,.33,.27,.04,.1,.09,.23,.07,.34-.01,.09-.08,.24-.17,.29-.13,.07-.27-.03-.37-.1-.17-.12-.53-.36-.48-.62,.04-.19,.17-.28,.31-.4l.31,.22Z"/><path class="cls-22" d="M22.03,109.9c-.05,.3-.17,.61-.01,.86,.1,.15,.39,.31,.56,.39,.52,.24,1.13,.36,1.67,.58,.36,.14,.7,.25,1.09,.22,.38-.03,.63-.38,.73-.74,.2-.76-.42-1.92-1.09-2.29-.31-.17-.76-.2-1.11-.19-.7,0-1.22,.34-1.84,1.18Z"/><path class="cls-22" d="M7.53,54.31c-.44,.46-1.41,1.44-.53,1.94,.53,.3,1.34,.28,1.93,.28,.6,0,1.57-.07,1.98-.59,.53-.66,.2-1.69-.46-2.13-.77-.53-1.76-.54-2.44,.11l-.49,.39Z"/><path class="cls-22" d="M11.82,50.68c-.03,.05-.62,1.1-.09,1.07,.18,0,.57-.37,.7-.46,.26-.18,.44-.35,.61-.62,.16-.24,.23-.45-.05-.6-.38-.2-.72,.14-.98,.42l-.19,.19Z"/><path class="cls-22" d="M5.44,66.23c-.28,.23-.49,.44-.61,.8-.16,.46-.18,.99,.08,1.42,.45,.79,1.63,1.46,2.53,1.06,.96-.43,1.43-2.01,.64-2.81-.4-.4-.93-.65-1.48-.75-.6-.11-1.04,.07-1.16,.28Z"/><path class="cls-22" d="M7.33,86.89c-.28,.23-.49,.44-.61,.8-.16,.46-.18,.99,.08,1.42,.45,.79,1.63,1.46,2.53,1.06,.96-.43,1.43-2.01,.64-2.81-.4-.4-.93-.65-1.48-.75-.6-.11-1.04,.08-1.16,.28Z"/><path class="cls-22" d="M11.82,94.93s-.06,.05-.09,.07c0,.02-.02,.05-.03,.07-.06,.11-.13,.22-.2,.32-.06,.08-.12,.15-.21,.2-.09,.05-.18,.07-.28,.06-.27-.02-.51-.26-.6-.51-.11-.29,0-.62,.19-.84,.17-.19,.4-.27,.65-.27,.19,0,.4,.06,.53,.21,.16,.2,.03,.42,.05,.68Z"/><path class="cls-22" d="M14.08,36.37c-.1,.11-.19,.25-.32,.33-.19,.12-.41,.18-.59,.31-.28,.2-.6,.46-.73,.79-.11,.28-.21,.63,.03,.88,.21,.22,.51,.3,.8,.27,.28-.02,.57-.09,.81-.24,.26-.17,.56-.3,.66-.61,.09-.27-.01-.48-.13-.72-.08-.16-.25-.56-.53-1.01Z"/><path class="cls-22" d="M9.09,44.32c-.19,.27-.28,.4-.37,.71-.18,.58-.29,1.15-.21,1.76,.07,.56,.27,1.04,.68,1.43,.26,.25,.55,.45,.88,.61,.69,.32,1.62,.35,2.22-.17,.47-.41,.63-1.08,.81-1.65,.07-.23,.1-.47,.2-.7,.1-.21,.22-.42,.25-.66,.08-.55-.54-1.01-.99-1.15-.3-.09-.57-.22-.86-.35-.33-.15-.71-.25-1.05-.36-.34-.11-.62-.17-.96-.01-.36,.17-.63,.44-.59,.54Z"/><path class="cls-22" d="M14.32,103.26c-.19,.27-.28,.4-.37,.71-.18,.58-.29,1.15-.21,1.76,.07,.56,.27,1.04,.68,1.43,.26,.25,.55,.45,.88,.61,.69,.32,1.62,.35,2.22-.17,.47-.41,.63-1.08,.81-1.65,.07-.23,.1-.47,.2-.7,.1-.21,.22-.42,.25-.66,.08-.55-.54-1.01-.99-1.15-.3-.09-.57-.22-.86-.35-.33-.15-.71-.25-1.05-.36-.34-.11-.62-.17-.96-.01-.36,.17-.63,.44-.59,.54Z"/><path class="cls-22" d="M8.98,73.62c-.04,.25-.14,.51-.01,.71,.08,.13,.32,.26,.46,.32,.43,.2,.93,.3,1.38,.48,.29,.12,.58,.21,.9,.18,.31-.02,.52-.31,.6-.61,.17-.63-.35-1.59-.9-1.89-.25-.14-.63-.16-.91-.16-.58,0-1.01,.28-1.52,.97Z"/><path class="cls-22" d="M4.1,74.72c-.36,.38-1.17,1.19-.44,1.6,.44,.25,1.1,.23,1.59,.24,.5,0,1.3-.06,1.64-.49,.44-.55,.16-1.39-.38-1.76-.64-.44-1.45-.45-2.01,.09l-.4,.32Z"/><path class="cls-22" d="M5.86,85.45c-.05,.06-.2,.19-.23,.28-.02,.1,0,.3,.05,.38,.13,.21,.41,.14,.57,0,.15-.14,.21-.34,.15-.53-.07-.2-.27-.39-.5-.36l-.04,.22Z"/><path class="cls-22" d="M13.12,84.75c-.09,.12-.21,.21-.17,.36,.03,.12,.13,.25,.23,.31,.32,.17,.84,0,1.11-.18,.19-.12,.37-.29,.25-.53-.2-.4-.73-.29-1.07-.13l-.36,.18Z"/><path class="cls-22" d="M12.51,67.78c.18,.64,.19,1.27-.04,1.91-.09,.26-.21,.51-.47,.65-.22,.12-.47,.04-.7-.02-.61-.16-1.29-.58-1.56-1.18-.14-.32-.24-.69-.21-1.04,.03-.4,.18-.77,.33-1.14,.22-.52,.6-1.22,1.23-1.31,.54-.08,.96,.21,1.14,.71,.11,.3,.16,.61,.23,.92,.05,.24,.12,.38,.04,.5Z"/><path class="cls-22" d="M10.2,80.14c-.12,.08-.27,.14-.33,.27-.04,.1-.09,.23-.07,.34,.01,.09,.08,.24,.17,.29,.13,.07,.28-.03,.37-.1,.17-.12,.53-.36,.48-.62-.04-.19-.17-.28-.31-.4l-.31,.22Z"/></g><path class="cls-24" d="M120.24,26.52C99.01,6.11,67.25-.02,44.54,10.9,21.84,21.82,1.78,54.31,8.04,80.28c6.3,26.1,19.54,46.53,61.42,54.28,10.24,1.9,30.55,1.39,51.89-24.86,21.34-26.26,20.11-62.76-1.11-83.18Zm-38.4,70.08c-18.89,7.2-35.49-4.93-38.5-16.11-3.02-11.18-.17-29.2,14.3-35.59,20.91-9.24,39.61,4.9,43.57,15.13,3.96,10.23-.83,29.5-19.37,36.57Z"/><g><path class="cls-1" d="M21.16,31.08c-4.38,9.67-2.23,9.54,7.87,28.99,10.11,19.45-9.23,45.09-4.36,53.36s8.21,3.27,18.67-5.34c10.45-8.61,19.37-8.99,26.28-7.67,6.91,1.33,8.74,6.57,5.21,10.32-3.54,3.76-15.92,12.16-15.92,12.16l21.54-14.82,.76-5.48s-16.28-5.79-31.1-4.71c-14.82,1.07-13.98-38.46-14.62-50.97-.64-12.51-14.33-15.86-14.33-15.86Z"/><path class="cls-20" d="M129.34,72.65c-8.16-23.23-26.28-12.83-36.55-25.21-9.98-12.04,2.09-36.89-9.19-39.51-.03,0-.05,0-.07-.02-.22-.04-.43-.07-.64-.11-.02-.01-.05-.01-.08-.01-.07,0-.14-.02-.22-.03-5.09-.54-12.25,6.71-23.94,3.28-2.64-.78-5.36-.96-8.1-.61-9.42,1.21-19.17,8.66-27.31,19.78,0,.02-.03,.04-.04,.06-10.51,14.41,9.5,20.96,12.23,40.12,2.74,19.17-14.48,40.85-6.4,42.51,8.09,1.66,6.32-4.45,23.68-11.18,17.35-6.73,33.04,2.56,20.09,11.18-12.65,8.41-21.66,16.36-22.07,16.73l1.75,.61s3.39-4.15,18.51-14.84c15.13-10.69,66.51-19.52,58.35-42.75Zm-47.5,23.95c-18.89,7.2-35.49-4.93-38.5-16.11-3.02-11.18-.17-29.2,14.3-35.59,20.91-9.24,39.61,4.9,43.57,15.13s-.83,29.5-19.37,36.57Z"/><path class="cls-21" d="M88.08,8.19c8.16,5.9,.54,25.02,9.97,34.15,9.43,9.13,22,4.41,30.18,8.67,8.18,4.26,8.51,14.41,8.51,14.41,0,0-.05-11.24-7.69-15.42-7.64-4.18-30.48-4.8-33.13-17.37-2.65-12.57-.43-21.53-.43-21.53,0,0-5.52-2.64-7.41-2.91Z"/><path class="cls-26" d="M99.11,12.33c1.73,3-5.57,18.39,9.59,25.33s23.31,7.79,27.15,18.88c-3.19-12.53-19.28-14.88-28-20.32-8.72-5.44-5.35-22.36-5.35-22.36l-3.38-1.53Z"/><path class="cls-17" d="M135.85,56.54c-4.19-11.53-10.84-11.73-25.49-19.35-14.65-7.62-7.86-23.33-7.86-23.33l3.46,1.65s-2.45,9.69,3.51,17.13c5.96,7.44,14.34,5.02,21.43,8.54,0,0,4.45,9.2,4.96,15.36Z"/><path class="cls-27" d="M64.65,133.58c-4.04-12.88,12.26-21.14,31.08-27.49,18.82-6.36,30.81-15.9,35.62-12.91l-.65,2.41s-3.39-3.06-11.85,1.49c-8.46,4.55-12.82,5.98-28.8,11.64-15.98,5.66-19.77,26.13-19.77,26.13l-5.63-1.27Z"/><path class="cls-19" d="M75.64,135.1s.44-17.75,11.24-23.15c10.8-5.4,18.51-5.21,26.84-8.75,8.34-3.54,12.31,0,12.31,0l-1.13,1.58s-4.93-2.91-12.69,.06c-7.77,2.97-17.68,5.43-24.19,9.16-6.51,3.73-5.74,20.84-5.74,20.84l-6.64,.25Z"/><path class="cls-16" d="M42.45,68.01c.79-10.72-16.64-23.45-9.49-35.94,7.15-12.49,17.12-6.08,26.91,0,9.79,6.08,16.08,1.46,21.32,4.29,5.24,2.83,7.71,10.46,7.71,10.46l-3.49-1.83s.26-8.08-8.36-8.45c-8.62-.38-9.68,.69-26.35-7.89s-16.26,11.02-10.92,18.22c5.34,7.2,5.64,10.19,5.64,10.19,0,0-2.73,6.03-2.98,10.95Z"/><path class="cls-23" d="M47.28,53.76c-.44-9.85-8.42-19.57-1.2-21.68,7.22-2.11,12.47,7.95,21.65,9.83l-3.44,.87s-4.69-1.2-13.03-6.67c-8.34-5.46,0,12.95,0,12.95l-3.98,4.7Z"/><path class="cls-18" d="M97.69,53.76c5.99,6.19,11.82,4.28,22.35,11.67,10.53,7.39,.32,21.9-14.55,30.71s-27.24,1.61-27.24,1.61l2.51-.28s11.84,5.3,23.21-1.24c11.37-6.54,20.94-20.43,15.35-26.6-5.59-6.18-13.1-10.46-18.11-9.6,0,0,.67-2.59-3.52-6.27Z"/></g><path class="cls-7" d="M109.85,99.24c5.53-5.82,12.2-8.47,14.9-5.91,2.69,2.56,.39,9.35-5.15,15.18-5.54,5.82-12.2,8.47-14.9,5.91-2.69-2.56-.39-9.35,5.15-15.18Z"/><path class="cls-6" d="M70.67,98.55c20.13-.38,36.6,6.85,36.77,16.16,.18,9.31-16,17.16-36.13,17.54-20.13,.38-36.6-6.85-36.77-16.16-.18-9.3,16-17.16,36.13-17.54Z"/><path class="cls-3" d="M48.49,12.19c5.62-1.93,10.91-1.39,11.8,1.21,.89,2.6-2.94,6.27-8.57,8.2-5.62,1.93-10.91,1.39-11.8-1.21-.89-2.6,2.94-6.27,8.57-8.2Z"/><path class="cls-9" d="M66.69,102.35c6.35,.71,11.31,2.96,11.08,5.03s-5.57,3.17-11.92,2.45c-6.35-.71-11.31-2.96-11.08-5.03s5.57-3.17,11.92-2.46Z"/><path class="cls-4" d="M11.4,88.36c-2.89-8.72-2.37-16.74,1.15-17.91,3.53-1.17,8.73,4.96,11.62,13.68,2.89,8.72,2.37,16.74-1.15,17.91-3.53,1.17-8.73-4.96-11.62-13.68Z"/><path class="cls-8" d="M31.74,25.07c2.55-2.4,.91-4.65,4.03-1.35,.67,.72-.03,2.48-1.58,3.94-1.55,1.46-3.35,2.06-4.03,1.35s.03-2.48,1.58-3.94Z"/><path class="cls-5" d="M82,103.36c3.15-1.54,2.24-4.17,4.24-.1,.43,.88-.76,2.36-2.67,3.3-1.91,.94-3.81,.98-4.24,.1s.76-2.36,2.67-3.3Z"/><path class="cls-12" d="M9.12,84.43c5.89,21.07,23.44,43.32,58.69,47.85,37.33,4.8,62.24-30.34,67.06-49.59-4.47,23.57-28.31,57.3-62.88,53.51-34.57-3.79-57.59-22.25-62.88-51.77Z"/><path class="cls-14" d="M120.24,26.52c-10.51-10.12-23.48-16.28-36.64-18.59-.03,0-.05,0-.07-.02-.22-.04-.43-.07-.64-.11-.02-.01-.05-.01-.08-.01-11.09-1.83-22.28-.93-32.26,2.64-1.85,.66-3.67,1.41-5.43,2.26-7.89,3.79-15.53,9.98-21.88,17.52,0,.02-.03,.04-.04,.06C11.3,44.43,3.96,63.36,8.04,80.28c5.25,21.73,15.3,39.53,42.69,49.35l1.75,.61c5.06,1.71,10.7,3.16,16.98,4.32,10.24,1.9,30.55,1.39,51.89-24.86,21.34-26.26,20.11-62.76-1.11-83.18Zm-62.6,18.38c20.91-9.24,39.61,4.9,43.57,15.13s-.83,29.5-19.37,36.57c-18.89,7.2-35.49-4.93-38.5-16.11-3.02-11.18-.17-29.2,14.3-35.59Z"/><path class="cls-13" d="M120.24,26.52C99.01,6.11,67.22,.49,44.51,11.41,21.81,22.33,1.78,54.31,8.04,80.28c6.3,26.1,19.54,46.53,61.42,54.28,10.24,1.9,30.55,1.39,51.89-24.86,21.34-26.26,20.11-62.76-1.11-83.18Zm-38.4,70.08c-18.89,7.2-35.49-4.93-38.5-16.11-3.02-11.18-.17-29.2,14.3-35.59,20.91-9.24,39.61,4.9,43.57,15.13,3.96,10.23-.83,29.5-19.37,36.57Z"/></g></g></g></g></svg>