<?xml version="1.0" encoding="UTF-8"?><svg xmlns="http://www.w3.org/2000/svg" xmlns:xlink="http://www.w3.org/1999/xlink" viewBox="0 0 141.99 141.99"><defs><style>.cls-1{fill:url(#_езымянный_градиент_615-2);}.cls-1,.cls-2,.cls-3,.cls-4,.cls-5,.cls-6,.cls-7,.cls-8,.cls-9,.cls-10,.cls-11,.cls-12,.cls-13,.cls-14,.cls-15,.cls-16,.cls-17,.cls-18,.cls-19,.cls-20,.cls-21,.cls-22,.cls-23,.cls-24,.cls-25,.cls-26,.cls-27,.cls-28,.cls-29,.cls-30,.cls-31,.cls-32,.cls-33,.cls-34,.cls-35,.cls-36,.cls-37,.cls-38,.cls-39,.cls-40,.cls-41,.cls-42,.cls-43,.cls-44,.cls-45,.cls-46,.cls-47,.cls-48,.cls-49,.cls-50,.cls-51,.cls-52,.cls-53,.cls-54,.cls-55,.cls-56,.cls-57,.cls-58,.cls-59{mix-blend-mode:multiply;}.cls-1,.cls-2,.cls-60,.cls-61,.cls-25,.cls-62,.cls-63,.cls-41,.cls-44,.cls-64,.cls-51{opacity:.8;}.cls-65{fill:url(#_езымянный_градиент_1078-5);}.cls-2{fill:url(#_езымянный_градиент_444-7);}.cls-3{fill:url(#_езымянный_градиент_157-44);}.cls-66{fill:url(#_езымянный_градиент_614);}.cls-4{fill:url(#_езымянный_градиент_444-4);}.cls-4,.cls-67,.cls-68,.cls-12,.cls-34,.cls-35,.cls-42,.cls-53,.cls-69{opacity:.5;}.cls-70{fill:url(#_езымянный_градиент_156-21);}.cls-5{fill:url(#_езымянный_градиент_157-30);}.cls-71{fill:url(#_езымянный_градиент_260);}.cls-6{fill:url(#_езымянный_градиент_157-39);}.cls-7{fill:url(#_езымянный_градиент_157-28);}.cls-72{fill:url(#_езымянный_градиент_225-4);}.cls-73{fill:url(#_езымянный_градиент_156-9);}.cls-74{fill:url(#_езымянный_градиент_156);}.cls-67,.cls-75{fill:#fff;mix-blend-mode:soft-light;}.cls-76{fill:url(#_езымянный_градиент_156-2);}.cls-77{fill:url(#_езымянный_градиент_467-2);}.cls-77,.cls-68,.cls-60,.cls-78,.cls-61,.cls-62,.cls-63,.cls-79,.cls-80,.cls-64,.cls-69{mix-blend-mode:screen;}.cls-77,.cls-78{opacity:.82;}.cls-8{fill:url(#_езымянный_градиент_157-26);}.cls-81{fill:url(#_езымянный_градиент_260-5);}.cls-82{fill:url(#_езымянный_градиент_225-6);}.cls-9{fill:url(#_езымянный_градиент_157-35);}.cls-68{fill:url(#_езымянный_градиент_84);}.cls-10{fill:url(#_езымянный_градиент_157-4);}.cls-83{fill:url(#_езымянный_градиент_225-2);}.cls-11{fill:url(#_езымянный_градиент_157-2);}.cls-84{fill:url(#_езымянный_градиент_286);}.cls-85{fill:url(#_езымянный_градиент_260-4);}.cls-12{fill:url(#_езымянный_градиент_121);}.cls-86{fill:url(#_езымянный_градиент_1078-8);}.cls-60{fill:url(#_езымянный_градиент_458-2);}.cls-87{fill:url(#_езымянный_градиент_156-20);}.cls-13{fill:url(#_езымянный_градиент_157-23);}.cls-14{fill:url(#_езымянный_градиент_157-5);}.cls-15{fill:url(#_езымянный_градиент_157-17);}.cls-16{fill:url(#_езымянный_градиент_157-25);}.cls-78{fill:url(#_езымянный_градиент_467-3);}.cls-88{fill:url(#_езымянный_градиент_260-3);}.cls-89{isolation:isolate;}.cls-90{fill:url(#_езымянный_градиент_225-7);}.cls-91{fill:url(#_езымянный_градиент_156-12);}.cls-92{fill:url(#_езымянный_градиент_63);}.cls-93{fill:url(#_езымянный_градиент_176-2);}.cls-94{fill:url(#_езымянный_градиент_156-6);}.cls-17{fill:url(#_езымянный_градиент_157-33);}.cls-18{fill:url(#_езымянный_градиент_157-9);}.cls-19{fill:url(#_езымянный_градиент_157-32);}.cls-95{fill:url(#_езымянный_градиент_156-8);}.cls-20{fill:url(#_езымянный_градиент_157-38);}.cls-21{fill:url(#_езымянный_градиент_157-21);}.cls-96{fill:url(#_езымянный_градиент_1078-7);}.cls-97{fill:url(#_езымянный_градиент_176-5);}.cls-22{fill:url(#_езымянный_градиент_157-27);}.cls-23{fill:url(#_езымянный_градиент_157-13);}.cls-98{fill:url(#_езымянный_градиент_614-3);}.cls-24{fill:url(#_езымянный_градиент_157-34);}.cls-61{fill:url(#_езымянный_градиент_450-2);}.cls-25{fill:url(#_езымянный_градиент_444-6);}.cls-99{fill:url(#_езымянный_градиент_156-13);}.cls-100{fill:url(#_езымянный_градиент_156-14);}.cls-26{fill:url(#_езымянный_градиент_157-3);}.cls-27{fill:url(#_езымянный_градиент_157-24);}.cls-28{fill:url(#_езымянный_градиент_157-19);}.cls-29{fill:url(#_езымянный_градиент_157-37);}.cls-101{fill:url(#_езымянный_градиент_176-3);}.cls-102{fill:url(#_езымянный_градиент_176-4);}.cls-62{fill:url(#_езымянный_градиент_450-3);}.cls-30{fill:url(#_езымянный_градиент_157-29);}.cls-103{fill:url(#_езымянный_градиент_156-16);}.cls-31{fill:url(#_езымянный_градиент_157-41);}.cls-104{fill:url(#_езымянный_градиент_1078-6);}.cls-32{fill:url(#_езымянный_градиент_157-36);}.cls-33{fill:url(#_езымянный_градиент_157-15);}.cls-105{fill:url(#_езымянный_градиент_225-3);}.cls-106{fill:url(#_езымянный_градиент_156-4);}.cls-63{fill:url(#_езымянный_градиент_458);}.cls-34{fill:url(#_езымянный_градиент_444-3);}.cls-35{fill:url(#_езымянный_градиент_444-2);}.cls-36{fill:url(#_езымянный_градиент_157-11);}.cls-37{fill:url(#_езымянный_градиент_157-20);}.cls-79{fill:url(#_езымянный_градиент_434);}.cls-79,.cls-80{opacity:.95;}.cls-38{fill:url(#_езымянный_градиент_157-31);}.cls-107{fill:url(#_езымянный_градиент_156-17);}.cls-108{fill:url(#_езымянный_градиент_156-3);}.cls-39{fill:url(#_езымянный_градиент_157-6);}.cls-40{fill:url(#_езымянный_градиент_157-14);}.cls-41{fill:url(#_езымянный_градиент_444-5);}.cls-109{fill:url(#_езымянный_градиент_156-19);}.cls-43{fill:url(#_езымянный_градиент_157-42);}.cls-110{fill:url(#_езымянный_градиент_225);}.cls-80{fill:url(#_езымянный_градиент_1061);}.cls-44{fill:url(#_езымянный_градиент_615);}.cls-45{fill:url(#_езымянный_градиент_488);}.cls-111{fill:#e6aea9;}.cls-46{fill:url(#_езымянный_градиент_157);}.cls-112{fill:url(#_езымянный_градиент_176);}.cls-113{fill:url(#_езымянный_градиент_1078);}.cls-114{fill:url(#_езымянный_градиент_1078-3);}.cls-115{fill:url(#_езымянный_градиент_156-10);}.cls-47{fill:url(#_езымянный_градиент_157-46);}.cls-48{fill:url(#_езымянный_градиент_157-45);}.cls-49{fill:url(#_езымянный_градиент_157-22);}.cls-116{fill:url(#_езымянный_градиент_1078-2);}.cls-117{fill:url(#_езымянный_градиент_156-11);}.cls-118{fill:url(#_езымянный_градиент_225-5);}.cls-50{fill:url(#_езымянный_градиент_157-40);}.cls-64{fill:url(#_езымянный_градиент_450);}.cls-51{fill:url(#_езымянный_градиент_615-3);}.cls-52{fill:url(#_езымянный_градиент_157-16);}.cls-119{fill:url(#_езымянный_градиент_614-2);}.cls-120{fill:url(#_езымянный_градиент_156-7);}.cls-121{fill:url(#_езымянный_градиент_156-15);}.cls-122{fill:url(#_езымянный_градиент_614-4);}.cls-53{fill:url(#_езымянный_градиент_444);}.cls-54{fill:url(#_езымянный_градиент_157-8);}.cls-55{fill:url(#_езымянный_градиент_157-7);}.cls-123{fill:url(#_езымянный_градиент_156-5);}.cls-56{fill:url(#_езымянный_градиент_157-10);}.cls-69{fill:url(#_езымянный_градиент_467);}.cls-124{fill:url(#_езымянный_градиент_156-18);}.cls-125{fill:url(#_езымянный_градиент_1078-4);}.cls-57{fill:url(#_езымянный_градиент_157-12);}.cls-58{fill:url(#_езымянный_градиент_157-18);}.cls-126{fill:url(#_езымянный_градиент_260-2);}.cls-59{fill:url(#_езымянный_градиент_157-43);}</style><radialGradient id="_езымянный_градиент_286" cx="70.99" cy="70.99" fx="70.99" fy="70.99" r="70.99" gradientTransform="matrix(1, 0, 0, 1, 0, 0)" gradientUnits="userSpaceOnUse"><stop offset=".31" stop-color="#d45429"/><stop offset=".86" stop-color="#d45429"/><stop offset=".97" stop-color="#ec7f20"/><stop offset=".98" stop-color="#ed8220"/><stop offset=".99" stop-color="#f38e20"/><stop offset="1" stop-color="#fb9d20"/></radialGradient><linearGradient id="_езымянный_градиент_84" x1="70.99" y1="141.99" x2="70.99" y2="0" gradientTransform="matrix(1, 0, 0, 1, 0, 0)" gradientUnits="userSpaceOnUse"><stop offset=".67" stop-color="#000"/><stop offset=".7" stop-color="#0a0700"/><stop offset=".74" stop-color="#261b00"/><stop offset=".81" stop-color="#543b01"/><stop offset=".88" stop-color="#946902"/><stop offset=".97" stop-color="#e3a103"/><stop offset=".99" stop-color="#ffb504"/></linearGradient><linearGradient id="_езымянный_градиент_121" x1="69.61" y1="141.99" x2="69.61" y2="101.72" gradientTransform="matrix(1, 0, 0, 1, 0, 0)" gradientUnits="userSpaceOnUse"><stop offset="0" stop-color="#d23223"/><stop offset=".25" stop-color="#e27b71"/><stop offset="1" stop-color="#ffe7e2"/></linearGradient><radialGradient id="_езымянный_градиент_63" cx="74.64" cy="24.35" fx="74.64" fy="24.35" r="104.16" gradientTransform="translate(0 5.6) scale(1 .77)" gradientUnits="userSpaceOnUse"><stop offset="0" stop-color="#5effd4"/><stop offset=".28" stop-color="#57efdb"/><stop offset=".63" stop-color="#4cd6e8"/><stop offset="1" stop-color="#4ab3ff"/></radialGradient><radialGradient id="_езымянный_градиент_488" cx="73.12" cy="52.21" fx="73.12" fy="52.21" r="53.36" gradientTransform="translate(0 4.31) scale(1 .92)" gradientUnits="userSpaceOnUse"><stop offset="0" stop-color="#8841a7"/><stop offset=".13" stop-color="#9050b0"/><stop offset=".37" stop-color="#a678c8"/><stop offset=".59" stop-color="#bda3e2"/><stop offset="1" stop-color="#fff"/></radialGradient><radialGradient id="_езымянный_градиент_434" cx="-568.25" cy="509.54" fx="-568.25" fy="509.54" r="9.05" gradientTransform="translate(-2000.6 -904.92) rotate(-91.08) scale(1.86 4.03) skewX(.01)" gradientUnits="userSpaceOnUse"><stop offset="0" stop-color="#3664ff"/><stop offset=".09" stop-color="#3059e3"/><stop offset=".34" stop-color="#1f3a94"/><stop offset=".57" stop-color="#112154"/><stop offset=".76" stop-color="#080f26"/><stop offset=".9" stop-color="#02040a"/><stop offset=".99" stop-color="#000"/></radialGradient><radialGradient id="_езымянный_градиент_1061" cx="-598.65" cy="528.98" fx="-598.65" fy="528.98" r="9.05" gradientTransform="translate(-2284.74 650.04) rotate(-132.42) scale(1.86 4.03)" gradientUnits="userSpaceOnUse"><stop offset="0" stop-color="#36c9ff"/><stop offset=".09" stop-color="#30b3e3"/><stop offset=".34" stop-color="#1f7494"/><stop offset=".57" stop-color="#114254"/><stop offset=".76" stop-color="#081e26"/><stop offset=".9" stop-color="#02080a"/><stop offset=".99" stop-color="#000"/></radialGradient><linearGradient id="_езымянный_градиент_444" x1="71.34" y1="136" x2="71.34" y2="75.03" gradientTransform="matrix(1, 0, 0, 1, 0, 0)" gradientUnits="userSpaceOnUse"><stop offset="0" stop-color="#d254ca"/><stop offset="1" stop-color="#ffe7e2"/></linearGradient><radialGradient id="_езымянный_градиент_467" cx="-689.05" cy="459.47" fx="-689.05" fy="459.47" r="5.6" gradientTransform="translate(-2118.42 716.03) rotate(-142.21) scale(1.86 4.03)" gradientUnits="userSpaceOnUse"><stop offset="0" stop-color="#607eed"/><stop offset=".03" stop-color="#5c79e3"/><stop offset=".3" stop-color="#3b4e93"/><stop offset=".54" stop-color="#222c54"/><stop offset=".74" stop-color="#0f1426"/><stop offset=".9" stop-color="#04050a"/><stop offset=".99" stop-color="#000"/></radialGradient><radialGradient id="_езымянный_градиент_467-2" cx="-845.41" cy="408.82" fx="-845.41" fy="408.82" r="5.6" gradientTransform="translate(1691.86 2646.44) rotate(107.57) scale(2.38 5.66)" xlink:href="#_езымянный_градиент_467"/><radialGradient id="_езымянный_градиент_467-3" cx="-807.41" cy="412.27" fx="-807.41" fy="412.27" r="5.6" gradientTransform="translate(1691.86 2646.44) rotate(107.57) scale(2.38 5.66)" xlink:href="#_езымянный_градиент_467"/><radialGradient id="_езымянный_градиент_450" cx="-593.3" cy="500.42" fx="-593.3" fy="500.42" r="2.67" gradientTransform="translate(-2176.72 -517.49) rotate(-105.35) scale(1.86 4.03)" gradientUnits="userSpaceOnUse"><stop offset=".37" stop-color="#7fabff"/><stop offset=".6" stop-color="#7ea9fd"/><stop offset=".68" stop-color="#7aa5f6"/><stop offset=".74" stop-color="#749dea"/><stop offset=".79" stop-color="#6c91d9"/><stop offset=".83" stop-color="#6183c3"/><stop offset=".86" stop-color="#5370a8"/><stop offset=".9" stop-color="#435b87"/><stop offset=".93" stop-color="#304162"/><stop offset=".96" stop-color="#1b2437"/><stop offset=".98" stop-color="#040609"/><stop offset=".99" stop-color="#000"/></radialGradient><radialGradient id="_езымянный_градиент_450-2" cx="-560" cy="498.65" fx="-560" fy="498.65" r="1.97" gradientTransform="translate(-488.53 -2096.14) rotate(-40.81) scale(1.86 4.03)" xlink:href="#_езымянный_градиент_450"/><radialGradient id="_езымянный_градиент_458" cx="-752.07" cy="478.34" fx="-752.07" fy="478.34" r="3.61" gradientTransform="translate(-2165.31 777.17) rotate(-142.52) scale(1.86 4.03)" gradientUnits="userSpaceOnUse"><stop offset="0" stop-color="#5e68f4"/><stop offset=".37" stop-color="#5d67f2"/><stop offset=".5" stop-color="#5a64eb"/><stop offset=".6" stop-color="#565fdf"/><stop offset=".68" stop-color="#4f58ce"/><stop offset=".74" stop-color="#474eb8"/><stop offset=".8" stop-color="#3c439d"/><stop offset=".85" stop-color="#30357c"/><stop offset=".9" stop-color="#212557"/><stop offset=".94" stop-color="#11132e"/><stop offset=".99" stop-color="#000"/></radialGradient><radialGradient id="_езымянный_градиент_458-2" cx="-763.75" cy="368.39" fx="-763.75" fy="368.39" r="3.61" gradientTransform="translate(-792.38 2143.67) rotate(161.67) scale(1.86 4.61) skewX(.01)" xlink:href="#_езымянный_градиент_458"/><radialGradient id="_езымянный_градиент_450-3" cx="-680.66" cy="476.78" fx="-680.66" fy="476.78" r=".96" gradientTransform="translate(-2245.77 273.31) rotate(-129.69) scale(1.86 4.03) skewX(.01)" xlink:href="#_езымянный_градиент_450"/><radialGradient id="_езымянный_градиент_614" cx="59.66" cy="25.21" fx="59.66" fy="25.21" r="67.68" gradientTransform="matrix(1, 0, 0, 1, 0, 0)" gradientUnits="userSpaceOnUse"><stop offset=".05" stop-color="#912f13"/><stop offset=".94" stop-color="#7a342b"/></radialGradient><radialGradient id="_езымянный_градиент_614-2" cx="114.57" cy="56.14" fx="114.57" fy="56.14" r="24.25" xlink:href="#_езымянный_градиент_614"/><radialGradient id="_езымянный_градиент_614-3" cx="69.12" cy="89.28" fx="69.12" fy="89.28" r="65.79" xlink:href="#_езымянный_градиент_614"/><radialGradient id="_езымянный_градиент_614-4" cx="24.6" cy="76.23" fx="24.6" fy="76.23" r="23.91" xlink:href="#_езымянный_градиент_614"/><linearGradient id="_езымянный_градиент_444-2" x1="30.34" y1="26.71" x2="118.16" y2="26.71" xlink:href="#_езымянный_градиент_444"/><linearGradient id="_езымянный_градиент_444-3" x1="13.33" y1="40.69" x2="123.83" y2="40.69" xlink:href="#_езымянный_градиент_444"/><linearGradient id="_езымянный_градиент_444-4" x1="20.39" y1="93.51" x2="136.7" y2="93.51" xlink:href="#_езымянный_градиент_444"/><linearGradient id="_езымянный_градиент_444-5" x1="95" y1="56.63" x2="134.96" y2="56.63" xlink:href="#_езымянный_градиент_444"/><linearGradient id="_езымянный_градиент_615" x1="14.04" y1="63.26" x2="45.72" y2="63.26" gradientTransform="matrix(1, 0, 0, 1, 0, 0)" gradientUnits="userSpaceOnUse"><stop offset="0" stop-color="#ffe7e2"/><stop offset=".99" stop-color="#d254ca"/></linearGradient><linearGradient id="_езымянный_градиент_444-6" x1="98.48" y1="79.58" x2="131.75" y2="79.58" xlink:href="#_езымянный_градиент_444"/><linearGradient id="_езымянный_градиент_444-7" x1="97.32" y1="68.55" x2="131.56" y2="68.55" xlink:href="#_езымянный_градиент_444"/><linearGradient id="_езымянный_градиент_615-2" x1="33.51" y1="75.07" x2="33.51" y2="69.85" xlink:href="#_езымянный_градиент_615"/><linearGradient id="_езымянный_градиент_615-3" x1="40.43" y1="90.1" x2="40.43" y2="82.13" xlink:href="#_езымянный_градиент_615"/><linearGradient id="_езымянный_градиент_157" x1="119.97" y1="59.76" x2="119.97" y2="56.29" gradientTransform="matrix(1, 0, 0, 1, 0, 0)" gradientUnits="userSpaceOnUse"><stop offset="0" stop-color="#ffe7e2"/><stop offset=".75" stop-color="#e27b71"/><stop offset=".99" stop-color="#d23223"/></linearGradient><radialGradient id="_езымянный_градиент_1078" cx="119.62" cy="56.43" fx="119.62" fy="56.43" r="2.16" gradientTransform="matrix(1, 0, 0, 1, 0, 0)" gradientUnits="userSpaceOnUse"><stop offset="0" stop-color="#ff0e66"/><stop offset=".26" stop-color="#ff0a69"/><stop offset=".49" stop-color="#ff0074"/><stop offset=".57" stop-color="#f7006a"/><stop offset=".7" stop-color="#e20050"/><stop offset=".87" stop-color="#c00025"/><stop offset="1" stop-color="#a20000"/></radialGradient><linearGradient id="_езымянный_градиент_157-2" x1="91.33" y1="108.78" x2="91.33" y2="105.3" xlink:href="#_езымянный_градиент_157"/><radialGradient id="_езымянный_градиент_1078-2" cx="90.98" cy="105.45" fx="90.98" fy="105.45" r="2.16" xlink:href="#_езымянный_градиент_1078"/><linearGradient id="_езымянный_градиент_157-3" x1="85.71" y1="128.08" x2="85.71" y2="124.6" xlink:href="#_езымянный_градиент_157"/><radialGradient id="_езымянный_градиент_1078-3" cx="85.36" cy="124.74" fx="85.36" fy="124.74" xlink:href="#_езымянный_градиент_1078"/><linearGradient id="_езымянный_градиент_157-4" x1="81.24" y1="113.68" x2="81.24" y2="110.21" xlink:href="#_езымянный_градиент_157"/><radialGradient id="_езымянный_градиент_1078-4" cx="80.89" cy="110.35" fx="80.89" fy="110.35" r="2.16" xlink:href="#_езымянный_градиент_1078"/><linearGradient id="_езымянный_градиент_157-5" x1="50.42" y1="97.88" x2="50.42" y2="94.41" xlink:href="#_езымянный_градиент_157"/><radialGradient id="_езымянный_градиент_1078-5" cx="50.07" cy="94.55" fx="50.07" fy="94.55" r="2.16" xlink:href="#_езымянный_градиент_1078"/><linearGradient id="_езымянный_градиент_157-6" x1="118.23" y1="86.27" x2="118.23" y2="82.8" xlink:href="#_езымянный_градиент_157"/><radialGradient id="_езымянный_градиент_1078-6" cx="117.88" cy="82.94" fx="117.88" fy="82.94" r="2.16" xlink:href="#_езымянный_градиент_1078"/><linearGradient id="_езымянный_градиент_157-7" x1="19.09" y1="68.43" x2="19.09" y2="64.96" xlink:href="#_езымянный_градиент_157"/><radialGradient id="_езымянный_градиент_1078-7" cx="18.74" cy="65.1" fx="18.74" fy="65.1" xlink:href="#_езымянный_градиент_1078"/><linearGradient id="_езымянный_градиент_157-8" x1="47.8" y1="38.32" x2="47.8" y2="34.85" xlink:href="#_езымянный_градиент_157"/><radialGradient id="_езымянный_градиент_176" cx="47.45" cy="34.99" fx="47.45" fy="34.99" r="2.16" gradientTransform="matrix(1, 0, 0, 1, 0, 0)" gradientUnits="userSpaceOnUse"><stop offset="0" stop-color="#00ccfe"/><stop offset=".14" stop-color="#00c8fa"/><stop offset=".27" stop-color="#00beef"/><stop offset=".39" stop-color="#00addc"/><stop offset=".49" stop-color="#009ac7"/><stop offset=".58" stop-color="#0890c8"/><stop offset=".73" stop-color="#2076cc"/><stop offset=".92" stop-color="#464bd3"/><stop offset="1" stop-color="#5739d6"/></radialGradient><linearGradient id="_езымянный_градиент_157-9" x1="114.5" y1="45.79" x2="114.5" y2="42.31" xlink:href="#_езымянный_градиент_157"/><radialGradient id="_езымянный_градиент_176-2" cx="114.15" cy="42.46" fx="114.15" fy="42.46" r="2.16" xlink:href="#_езымянный_градиент_176"/><linearGradient id="_езымянный_градиент_157-10" x1="32.19" y1="57.94" x2="32.19" y2="54.47" xlink:href="#_езымянный_градиент_157"/><radialGradient id="_езымянный_градиент_176-3" cx="31.84" cy="54.61" fx="31.84" fy="54.61" r="2.16" xlink:href="#_езымянный_градиент_176"/><linearGradient id="_езымянный_градиент_157-11" x1="45.42" y1="115.14" x2="45.42" y2="111.67" xlink:href="#_езымянный_градиент_157"/><radialGradient id="_езымянный_градиент_176-4" cx="45.07" cy="111.81" fx="45.07" fy="111.81" r="2.16" xlink:href="#_езымянный_градиент_176"/><linearGradient id="_езымянный_градиент_157-12" x1="91.63" y1="35.62" x2="91.63" y2="32.15" gradientTransform="translate(6.59 -14.2) rotate(9.19)" xlink:href="#_езымянный_градиент_157"/><radialGradient id="_езымянный_градиент_1078-8" cx="91.28" cy="32.29" fx="91.28" fy="32.29" r="2.16" gradientTransform="translate(109.3 -62.95) rotate(80.81)" xlink:href="#_езымянный_градиент_1078"/><linearGradient id="_езымянный_градиент_157-13" x1="62.93" y1="21.29" x2="62.93" y2="17.82" gradientTransform="translate(3.92 -9.78) rotate(9.17)" xlink:href="#_езымянный_градиент_157"/><radialGradient id="_езымянный_градиент_176-5" cx="62.58" cy="17.96" fx="62.58" fy="17.96" r="2.16" gradientTransform="translate(3.74 -9.79) rotate(9.17)" xlink:href="#_езымянный_градиент_176"/><linearGradient id="_езымянный_градиент_157-14" x1="104.25" y1="29.56" x2="104.25" y2="26.08" xlink:href="#_езымянный_градиент_157"/><radialGradient id="_езымянный_градиент_156" cx="103.9" cy="26.22" fx="103.9" fy="26.22" r="2.16" gradientTransform="matrix(1, 0, 0, 1, 0, 0)" gradientUnits="userSpaceOnUse"><stop offset="0" stop-color="#fffefe"/><stop offset=".14" stop-color="#fffbfa"/><stop offset=".27" stop-color="#fff2ef"/><stop offset=".39" stop-color="#ffe3dc"/><stop offset=".49" stop-color="#ffd2c7"/><stop offset=".68" stop-color="#ffc9bd"/><stop offset=".99" stop-color="#ffb2a3"/><stop offset="1" stop-color="#ffb1a2"/></radialGradient><linearGradient id="_езымянный_градиент_157-15" x1="118.23" y1="74.41" x2="118.23" y2="70.94" xlink:href="#_езымянный_градиент_157"/><radialGradient id="_езымянный_градиент_156-2" cx="117.88" cy="71.08" fx="117.88" fy="71.08" r="2.16" xlink:href="#_езымянный_градиент_156"/><linearGradient id="_езымянный_градиент_157-16" x1="96.73" y1="108.54" x2="96.73" y2="105.07" xlink:href="#_езымянный_градиент_157"/><radialGradient id="_езымянный_градиент_156-3" cx="96.38" cy="105.21" fx="96.38" fy="105.21" r="2.16" xlink:href="#_езымянный_градиент_156"/><linearGradient id="_езымянный_градиент_157-17" x1="91.33" y1="24.35" x2="91.33" y2="20.87" xlink:href="#_езымянный_градиент_157"/><radialGradient id="_езымянный_градиент_225" cx="90.98" cy="21.02" fx="90.98" fy="21.02" r="2.16" gradientTransform="translate(2.21 -7.85) rotate(4.98)" gradientUnits="userSpaceOnUse"><stop offset="0" stop-color="#fffe40"/><stop offset=".13" stop-color="#fffa40"/><stop offset=".24" stop-color="#ffef41"/><stop offset=".36" stop-color="#ffdc44"/><stop offset=".47" stop-color="#ffc247"/><stop offset=".49" stop-color="#ffbb48"/><stop offset=".63" stop-color="#ffb149"/><stop offset=".85" stop-color="#ff974c"/><stop offset="1" stop-color="#ff814f"/></radialGradient><linearGradient id="_езымянный_градиент_157-18" x1="100.86" y1="98.91" x2="100.86" y2="95.44" xlink:href="#_езымянный_градиент_157"/><radialGradient id="_езымянный_градиент_225-2" cx="100.51" cy="95.58" fx="100.51" fy="95.58" r="2.16" gradientTransform="matrix(1, 0, 0, 1, 0, 0)" xlink:href="#_езымянный_градиент_225"/><linearGradient id="_езымянный_градиент_157-19" x1="105.14" y1="124.17" x2="105.14" y2="120.7" xlink:href="#_езымянный_градиент_157"/><radialGradient id="_езымянный_градиент_225-3" cx="104.79" cy="120.84" fx="104.79" fy="120.84" r="2.16" gradientTransform="matrix(1, 0, 0, 1, 0, 0)" xlink:href="#_езымянный_градиент_225"/><linearGradient id="_езымянный_градиент_157-20" x1="60.8" y1="34.77" x2="60.8" y2="31.3" xlink:href="#_езымянный_градиент_157"/><radialGradient id="_езымянный_градиент_225-4" cx="60.45" cy="31.44" fx="60.45" fy="31.44" r="2.16" gradientTransform="translate(86.55 -31.76) rotate(84.36)" xlink:href="#_езымянный_градиент_225"/><linearGradient id="_езымянный_градиент_157-21" x1="51.14" y1="118.1" x2="51.14" y2="114.63" xlink:href="#_езымянный_градиент_157"/><radialGradient id="_езымянный_градиент_225-5" cx="50.79" cy="114.77" fx="50.79" fy="114.77" r="2.16" gradientTransform="matrix(1, 0, 0, 1, 0, 0)" xlink:href="#_езымянный_градиент_225"/><linearGradient id="_езымянный_градиент_157-22" x1="43.7" y1="37.47" x2="43.7" y2="34" xlink:href="#_езымянный_градиент_157"/><radialGradient id="_езымянный_градиент_225-6" cx="43.35" cy="34.14" fx="43.35" fy="34.14" r="2.16" gradientTransform="matrix(1, 0, 0, 1, 0, 0)" xlink:href="#_езымянный_градиент_225"/><linearGradient id="_езымянный_градиент_157-23" x1="36.54" y1="78.81" x2="36.54" y2="75.34" xlink:href="#_езымянный_градиент_157"/><radialGradient id="_езымянный_градиент_225-7" cx="36.19" cy="75.48" fx="36.19" fy="75.48" r="2.16" gradientTransform="matrix(1, 0, 0, 1, 0, 0)" xlink:href="#_езымянный_градиент_225"/><linearGradient id="_езымянный_градиент_157-24" x1="82.98" y1="32.17" x2="82.98" y2="28.69" gradientTransform="translate(5.91 -12.83) rotate(9.17)" xlink:href="#_езымянный_градиент_157"/><radialGradient id="_езымянный_градиент_156-4" cx="82.63" cy="28.83" fx="82.63" fy="28.83" r="2.16" xlink:href="#_езымянный_градиент_156"/><linearGradient id="_езымянный_градиент_157-25" x1="70.99" y1="24.05" x2="70.99" y2="20.58" xlink:href="#_езымянный_градиент_157"/><radialGradient id="_езымянный_градиент_156-5" cx="70.64" cy="20.72" fx="70.64" fy="20.72" r="2.16" xlink:href="#_езымянный_градиент_156"/><linearGradient id="_езымянный_градиент_157-26" x1="36.54" y1="34.89" x2="36.54" y2="31.42" gradientTransform="translate(65.95 -6.47) rotate(84.36)" xlink:href="#_езымянный_градиент_157"/><radialGradient id="_езымянный_градиент_156-6" cx="36.19" cy="31.56" fx="36.19" fy="31.56" r="2.16" xlink:href="#_езымянный_градиент_156"/><linearGradient id="_езымянный_градиент_157-27" x1="44.12" y1="41.96" x2="44.12" y2="38.49" xlink:href="#_езымянный_градиент_157"/><radialGradient id="_езымянный_градиент_156-7" cx="43.77" cy="38.63" fx="43.77" fy="38.63" r="2.16" xlink:href="#_езымянный_градиент_156"/><linearGradient id="_езымянный_градиент_157-28" x1="70.57" y1="112.09" x2="70.57" y2="108.62" xlink:href="#_езымянный_градиент_157"/><radialGradient id="_езымянный_градиент_156-8" cx="70.22" cy="108.76" fx="70.22" fy="108.76" r="2.16" xlink:href="#_езымянный_градиент_156"/><linearGradient id="_езымянный_градиент_157-29" x1="88.16" y1="115.72" x2="88.16" y2="112.25" xlink:href="#_езымянный_градиент_157"/><radialGradient id="_езымянный_градиент_156-9" cx="87.81" cy="112.39" fx="87.81" fy="112.39" r="2.16" xlink:href="#_езымянный_градиент_156"/><linearGradient id="_езымянный_градиент_157-30" x1="26.65" y1="61.23" x2="26.65" y2="57.76" xlink:href="#_езымянный_градиент_157"/><radialGradient id="_езымянный_градиент_156-10" cx="26.3" cy="57.9" fx="26.3" fy="57.9" r="2.16" xlink:href="#_езымянный_градиент_156"/><linearGradient id="_езымянный_градиент_157-31" x1="81.24" y1="127.4" x2="81.24" y2="123.93" xlink:href="#_езымянный_градиент_157"/><radialGradient id="_езымянный_градиент_156-11" cx="80.89" cy="124.07" fx="80.89" fy="124.07" r="2.16" xlink:href="#_езымянный_градиент_156"/><linearGradient id="_езымянный_градиент_157-32" x1="113.94" y1="110.25" x2="113.94" y2="106.77" xlink:href="#_езымянный_градиент_157"/><radialGradient id="_езымянный_градиент_156-12" cx="113.59" cy="106.92" fx="113.59" fy="106.92" r="2.16" xlink:href="#_езымянный_градиент_156"/><linearGradient id="_езымянный_градиент_157-33" x1="73.47" y1="118.68" x2="73.47" y2="115.21" xlink:href="#_езымянный_градиент_157"/><radialGradient id="_езымянный_градиент_156-13" cx="73.12" cy="115.35" fx="73.12" fy="115.35" r="2.16" xlink:href="#_езымянный_градиент_156"/><linearGradient id="_езымянный_градиент_157-34" x1="54.27" y1="115.02" x2="54.27" y2="111.55" xlink:href="#_езымянный_градиент_157"/><radialGradient id="_езымянный_градиент_156-14" cx="53.92" cy="111.69" fx="53.92" fy="111.69" r="2.16" xlink:href="#_езымянный_градиент_156"/><linearGradient id="_езымянный_градиент_157-35" x1="27.2" y1="85.69" x2="27.2" y2="82.22" xlink:href="#_езымянный_градиент_157"/><radialGradient id="_езымянный_градиент_156-15" cx="26.85" cy="82.36" fx="26.85" fy="82.36" r="2.16" xlink:href="#_езымянный_градиент_156"/><linearGradient id="_езымянный_градиент_157-36" x1="109.17" y1="43.14" x2="109.17" y2="39.66" xlink:href="#_езымянный_градиент_157"/><radialGradient id="_езымянный_градиент_156-16" cx="108.82" cy="39.8" fx="108.82" fy="39.8" r="2.16" xlink:href="#_езымянный_градиент_156"/><linearGradient id="_езымянный_градиент_157-37" x1="23.6" y1="47.65" x2="23.6" y2="44.17" xlink:href="#_езымянный_градиент_157"/><radialGradient id="_езымянный_градиент_156-17" cx="23.25" cy="44.32" fx="23.25" fy="44.32" r="2.16" xlink:href="#_езымянный_градиент_156"/><linearGradient id="_езымянный_градиент_157-38" x1="121.7" y1="54.79" x2="121.7" y2="51.32" xlink:href="#_езымянный_градиент_157"/><radialGradient id="_езымянный_градиент_156-18" cx="121.35" cy="51.46" fx="121.35" fy="51.46" r="2.16" xlink:href="#_езымянный_градиент_156"/><linearGradient id="_езымянный_градиент_157-39" x1="95" y1="100.1" x2="95" y2="96.63" xlink:href="#_езымянный_градиент_157"/><radialGradient id="_езымянный_градиент_156-19" cx="94.65" cy="96.77" fx="94.65" fy="96.77" r="2.16" xlink:href="#_езымянный_градиент_156"/><linearGradient id="_езымянный_градиент_157-40" x1="128.62" y1="42.95" x2="128.62" y2="39.48" xlink:href="#_езымянный_градиент_157"/><radialGradient id="_езымянный_градиент_156-20" cx="128.27" cy="39.62" fx="128.27" fy="39.62" r="2.16" xlink:href="#_езымянный_градиент_156"/><linearGradient id="_езымянный_градиент_157-41" x1="109.28" y1="50.79" x2="109.28" y2="47.32" xlink:href="#_езымянный_градиент_157"/><radialGradient id="_езымянный_градиент_156-21" cx="108.93" cy="47.46" fx="108.93" fy="47.46" r="2.16" xlink:href="#_езымянный_градиент_156"/><linearGradient id="_езымянный_градиент_157-42" x1="115.95" y1="64.68" x2="115.95" y2="61.2" xlink:href="#_езымянный_градиент_157"/><radialGradient id="_езымянный_градиент_260" cx="115.6" cy="61.34" fx="115.6" fy="61.34" r="2.16" gradientTransform="matrix(1, 0, 0, 1, 0, 0)" gradientUnits="userSpaceOnUse"><stop offset="0" stop-color="#9f3927"/><stop offset=".2" stop-color="#9b3527"/><stop offset=".39" stop-color="#902a27"/><stop offset=".49" stop-color="#862027"/><stop offset=".65" stop-color="#7c1e25"/><stop offset=".92" stop-color="#621920"/><stop offset="1" stop-color="#59181f"/></radialGradient><linearGradient id="_езымянный_градиент_157-43" x1="43.7" y1="100.82" x2="43.7" y2="97.35" xlink:href="#_езымянный_градиент_157"/><radialGradient id="_езымянный_градиент_260-2" cx="43.35" cy="97.49" fx="43.35" fy="97.49" r="2.16" xlink:href="#_езымянный_градиент_260"/><linearGradient id="_езымянный_градиент_157-44" x1="56.01" y1="119.68" x2="56.01" y2="116.21" xlink:href="#_езымянный_градиент_157"/><radialGradient id="_езымянный_градиент_260-3" cx="55.66" cy="116.35" fx="55.66" fy="116.35" xlink:href="#_езымянный_градиент_260"/><linearGradient id="_езымянный_градиент_157-45" x1="106.19" y1="94.95" x2="106.19" y2="91.48" xlink:href="#_езымянный_градиент_157"/><radialGradient id="_езымянный_градиент_260-4" cx="105.84" cy="91.62" fx="105.84" fy="91.62" xlink:href="#_езымянный_градиент_260"/><linearGradient id="_езымянный_градиент_157-46" x1="102.59" y1="45.33" x2="102.59" y2="41.86" xlink:href="#_езымянный_градиент_157"/><radialGradient id="_езымянный_градиент_260-5" cx="102.24" cy="42" fx="102.24" fy="42" r="2.16" xlink:href="#_езымянный_градиент_260"/></defs><g class="cls-89"><g id="Layer_2"><g id="objects"><g><path class="cls-84" d="M104.03,8.14C94.16,2.94,82.92,0,70.99,0,48.63,0,31.76,9.96,18.74,26.13,8.94,38.3,0,54.15,0,70.99c0,11.13,2.81,21.52,7.67,30.73,5.8,11.07,14.54,20.45,24.84,27.41,6.35,4.29,12.21,8.31,19.79,10.37,5.96,1.62,12.22,2.49,18.69,2.49,17.71,0,33.4-5.71,45.84-16.43,5.66-4.87,10.71-10.89,14.73-17.53,2.87-4.71,5.21-9.73,6.9-14.87,2.29-6.98,3.53-14.43,3.53-22.17,0-27.28-15.39-50.97-37.96-62.85ZM55.12,51.89c4.61-3.88,9.38-7.38,15.87-7.38s11.97,2.16,16.49,5.76c6.09,4.85,9.99,12.33,9.99,20.72,0,14.63-11.85,26.48-26.48,26.48s-26.48-11.85-26.48-26.48c0-8.13,4.85-14.24,10.61-19.1Z"/><path class="cls-68" d="M104.03,8.14C94.16,2.94,82.92,0,70.99,0,48.63,0,31.76,9.96,18.74,26.13,8.94,38.3,0,54.15,0,70.99c0,11.13,2.81,21.52,7.67,30.73,5.8,11.07,14.54,20.45,24.84,27.41,6.35,4.29,12.21,8.31,19.79,10.37,5.96,1.62,12.22,2.49,18.69,2.49,17.71,0,33.4-5.71,45.84-16.43,5.66-4.87,10.71-10.89,14.73-17.53,2.87-4.71,5.21-9.73,6.9-14.87,2.29-6.98,3.53-14.43,3.53-22.17,0-27.28-15.39-50.97-37.96-62.85Zm-33.04,89.33c-14.62,0-26.48-11.85-26.48-26.48,0-8.13,4.85-14.24,10.61-19.1,4.61-3.88,9.38-7.38,15.87-7.38s11.97,2.16,16.49,5.76c6.09,4.85,9.99,12.33,9.99,20.72,0,14.63-11.85,26.48-26.48,26.48Z"/><path class="cls-12" d="M131.56,108.03c-4.02,6.64-9.07,12.66-14.73,17.53-12.44,10.72-28.13,16.43-45.84,16.43-6.47,0-12.73-.87-18.69-2.49-7.58-2.06-13.44-6.08-19.79-10.37-10.3-6.96-19.04-16.34-24.84-27.41,9.88,14.29,31.91,35.93,66.04,37.2,37.43,1.39,57.85-30.89,57.85-30.89Z"/><g class="cls-42"><path class="cls-111" d="M68.3,29.11c.05,.3,.17,.61,.01,.86-.1,.15-.39,.31-.56,.39-.52,.24-1.13,.36-1.67,.58-.36,.14-.7,.25-1.09,.22-.38-.03-.63-.38-.73-.74-.2-.76,.42-1.92,1.09-2.29,.31-.17,.76-.2,1.11-.19,.7,0,1.22,.34,1.84,1.18Z"/><path class="cls-111" d="M119.52,108.37c.05,.3,.17,.61,.01,.86-.1,.15-.39,.31-.56,.39-.52,.24-1.13,.36-1.67,.58-.36,.14-.7,.25-1.09,.22-.38-.03-.63-.38-.73-.74-.2-.76,.42-1.92,1.1-2.29,.31-.17,.76-.2,1.11-.19,.7,0,1.22,.34,1.84,1.18Z"/><path class="cls-111" d="M87.79,27.25c.24-.19,.74-.52,.86-.87,.08-.25-.16-.34-.37-.3-.34,.07-.88,.87-.49,1.17h0Z"/><path class="cls-111" d="M56.33,24.11c.73,1.49,1.11,2.88,1.47,4.49,.39,1.77-.75,2.34-2.3,2.78-3.51,1-8.98,2.61-11.73-.92-1.8-2.31-1.23-6.59,1.41-8.15,1.58-.93,3.97-.69,5.73-.64,1.85,.05,3.48,.53,5.43,2.44Z"/><path class="cls-111" d="M55.44,124.56c.41,.84,.63,1.62,.82,2.52,.22,1-.42,1.31-1.29,1.56-1.97,.56-5.04,1.47-6.58-.52-1.01-1.3-.69-3.7,.79-4.57,.89-.52,2.23-.39,3.22-.36,1.04,.03,1.95,.3,3.05,1.37Z"/><path class="cls-111" d="M54.24,39.95c-.02-.2,0-.64-.11-.82-.07-.1-.31-.19-.41-.24-.22-.12-.48-.25-.73-.2-.47,.08-.7,.59-.69,1.02,0,.26-.09,.72,.12,.93,.1,.11,.35,.15,.5,.17,.48,.08,.87-.26,1.33-.28v-.58Z"/><path class="cls-111" d="M28.61,30.75c-.02-.2,0-.64-.11-.82-.07-.1-.31-.19-.41-.24-.22-.12-.48-.25-.73-.2-.47,.08-.7,.59-.69,1.02,0,.26-.09,.72,.12,.93,.1,.11,.35,.15,.5,.17,.48,.08,.87-.26,1.33-.28v-.58Z"/><path class="cls-111" d="M59.64,40.06c.36,.66,.64,1.31,.79,2.05,.09,.41,.2,1.14-.21,1.44-.41,.3-1.08,.23-1.55,.2-.51-.04-1.02-.11-1.46-.38-.32-.2-.63-.41-.8-.76-.19-.41-.12-1.02-.01-1.44,.18-.67,.95-1.18,1.6-1.32,.25-.05,1.38-.28,1.63,.21Z"/><path class="cls-111" d="M60.86,35.23c.21-.18,.82-.57,.57-.98-.14-.23-.66-.07-.86-.02-.15,.04-.58,.22-.6,.41-.02,.16,.58,.49,.7,.49l.19,.1Z"/><path class="cls-111" d="M74.21,30.44c.44,.46,1.41,1.44,.53,1.94-.53,.3-1.34,.28-1.93,.28-.6,0-1.57-.07-1.98-.59-.53-.66-.2-1.69,.46-2.13,.77-.53,1.76-.54,2.44,.11l.49,.39Z"/><path class="cls-111" d="M135.05,48.82c.44,.46,1.41,1.44,.53,1.94-.53,.3-1.34,.28-1.93,.28-.6,0-1.57-.07-1.98-.59-.53-.66-.2-1.69,.46-2.13,.77-.53,1.76-.54,2.44,.11l.49,.39Z"/><path class="cls-111" d="M38.07,14.53c.61-.49,1.26-.86,1.19-1.72-.06-.79-.9-.9-1.53-.73-.64,.17-1.05,.62-1.16,1.27-.13,.8,.27,1.15,1,1.34l.5-.17Z"/><path class="cls-111" d="M29.41,34.58c.22,.27,1.33,1.16,.77,1.5-.2,.12-.85,0-1.07,0-.34,0-.68,.02-1.02,0-.46-.02-.66-.2-.41-.67,.23-.43,.89-.75,1.39-.67l.34-.17Z"/><path class="cls-111" d="M27.48,22.79c.22,.27,1.33,1.16,.77,1.5-.2,.12-.85,0-1.07,0-.34,0-.68,.02-1.02,0-.46-.02-.66-.2-.41-.67,.23-.43,.89-.75,1.39-.67l.34-.17Z"/><path class="cls-111" d="M54.63,14.65c.23-.24,.71-.66,.69-1.08-.02-.33-.38-.29-.64-.19-.29,.11-.54,.34-.68,.63-.18,.39,0,.42,.24,.64h.39Z"/><path class="cls-111" d="M88.18,13.78c.03,.05,.62,1.1,.09,1.07-.18,0-.57-.37-.7-.46-.26-.18-.44-.35-.61-.62-.16-.24-.23-.45,.05-.6,.39-.2,.72,.14,.98,.42l.19,.19Z"/><path class="cls-111" d="M132.77,40.62c.03,.05,.62,1.1,.09,1.07-.18,0-.57-.37-.7-.46-.26-.18-.44-.35-.61-.62-.16-.24-.23-.45,.05-.6,.39-.2,.72,.14,.98,.42l.19,.19Z"/><path class="cls-111" d="M63.47,15.06c.19-.45,.37-.7,.25-1.16-.12-.48-.41-.97-.8-1.29-.69-.55-1.64-.82-2.48-.46-.64,.28-1.03,.84-1.31,1.45-.17,.37-.31,.69-.51,1.05-.1,.19-.28,.29-.34,.48-.06,.02-.08,.05-.07,.11,.07,.08,.15,.15,.24,.2,.29,.21,.64,.3,.98,.4,.62,.18,1.19,.15,1.82,0,.64-.16,1.37-.25,2.21-.78Z"/><path class="cls-111" d="M39.91,20.57c.43,.37,1.44,1.13,1.28,1.89-.16,.77-1.51,.35-1.93,.12-.38-.2-.81-.53-.71-1.01,.13-.6,.67-.68,1.19-.67l.17-.34Z"/><path class="cls-111" d="M46.59,39.94c0-.74-.04-1.49,.05-2.22,.1-.81,.35-1.72,.14-2.53-.09-.37-.21-.69-.58-.82-.64-.22-1.5-.1-2.13,.11-.62,.2-1.26,.55-1.63,1.1-.4,.58-.17,1.32,.15,1.88,.29,.5,.5,1.05,.93,1.45,.71,.67,1.82,1.13,3.07,1.02Z"/><path class="cls-111" d="M43.25,31.03c.32,.42,.63,.86,.33,1.39-.23,.4-.84,.57-1.24,.31-.28-.18-.22-.49-.13-.78,.07-.22,.13-.23,.28-.37,.1-.09,.24-.28,.39-.28l.37-.28Z"/><path class="cls-111" d="M41.76,36.5c.25,.39,.61,.89,.26,1.36-.16,.22-.48,.35-.69,.18-.28-.22-.55-.81-.58-1.17-.03-.29,.32-.76,.64-.74l.37,.37Z"/><path class="cls-111" d="M72.09,43.43c.06,.07,.25,.23,.28,.34,.03,.12,0,.37-.07,.46-.15,.26-.5,.17-.69,0-.18-.17-.26-.41-.18-.64,.08-.24,.33-.47,.6-.43l.05,.27Z"/><path class="cls-111" d="M49.7,19.29c.1,.04,.26,.07,.33,.16,.07,.09,.11,.25,.15,.35,.07,.16,.19,.33,.02,.46-.14,.1-.36,.04-.51,0-.21-.06-.52-.15-.66-.33-.16-.21-.26-.51-.3-.78-.02-.15,.09-.25,.21-.34,.22-.16,.41-.11,.65,0l.11,.48Z"/><path class="cls-111" d="M75.55,32.41c0,.31-.03,.75-.38,.9-.2,.09-.37-.02-.46-.2-.21-.42,.08-1.1,.57-1.13l.27,.43Z"/><path class="cls-111" d="M55.43,21.46c-.12,.27-.2,.48-.51,.53-.36,.05-.61-.21-.78-.49-.12-.22-.19-.5-.02-.73,.23-.3,.66-.24,.98-.17l.32,.86Z"/><path class="cls-111" d="M90.18,18.44c.28,.23,.49,.44,.61,.8,.16,.46,.18,.99-.08,1.42-.45,.79-1.63,1.46-2.53,1.06-.96-.43-1.43-2.01-.64-2.81,.4-.4,.93-.65,1.48-.75,.6-.11,1.04,.07,1.16,.28Z"/><path class="cls-111" d="M136.11,64.7c.28,.23,.49,.44,.61,.8,.16,.46,.18,.99-.08,1.42-.45,.79-1.63,1.46-2.53,1.06-.96-.43-1.43-2.01-.64-2.81,.4-.4,.93-.65,1.48-.75,.6-.11,1.04,.07,1.16,.28Z"/><path class="cls-111" d="M134.23,85.36c.28,.23,.49,.44,.61,.8,.16,.46,.18,.99-.08,1.42-.45,.79-1.63,1.46-2.53,1.06-.96-.43-1.43-2.01-.64-2.81,.4-.4,.93-.65,1.48-.75,.6-.11,1.04,.07,1.16,.28Z"/><path class="cls-111" d="M41.7,22.32c.14,.18,.26,.32,.31,.54,.04,.19,.08,.45,.08,.65,0,.43-.41,.71-.82,.59-.11-.03-.29-.08-.37-.17-.11-.12-.08-.4-.04-.54,.05-.19,.17-.36,.32-.48,.09-.07,.3-.27,.42-.26l.11-.32Z"/><path class="cls-111" d="M32.19,17.16c.55,.07,.81,.11,1.18,.54,.29,.33,.67,.85,.66,1.32-.02,.49-.49,.97-.87,1.22-.45,.29-1.16,.57-1.7,.63-.39,.05-.7-.14-.92-.45-.24-.34-.22-.67-.11-1.05,.12-.46,.26-.93,.59-1.29,.27-.28,.77-.7,1.18-.92Z"/><path class="cls-111" d="M32.16,123.52c-.17-.11-.48-.43-.69-.45-.12-.02-.34,.11-.45,.15-.23,.09-.5,.2-.63,.42-.25,.41,0,.92,.32,1.19,.2,.17,.49,.54,.78,.52,.15,0,.34-.17,.46-.26,.37-.31,.38-.83,.66-1.19l-.44-.38Z"/><path class="cls-111" d="M26.12,105.75c.04-.78,.18-1.51-.52-2.02-.63-.47-1.26,.09-1.55,.68-.29,.59-.22,1.2,.2,1.71,.52,.63,1.04,.55,1.67,.13l.2-.49Z"/><path class="cls-111" d="M35.58,125.43c.35,.01,1.75-.24,1.64,.4-.04,.24-.55,.65-.69,.81-.22,.26-.43,.53-.67,.77-.32,.33-.59,.37-.78-.13-.18-.45,.02-1.17,.41-1.49l.09-.36Z"/><path class="cls-111" d="M25.41,119.16c.35,.01,1.75-.24,1.64,.4-.04,.24-.55,.65-.69,.81-.22,.26-.43,.53-.67,.77-.32,.33-.59,.37-.78-.13-.18-.45,.02-1.17,.41-1.49l.09-.36Z"/><path class="cls-111" d="M31.89,108.32c.56-.08,1.8-.34,2.27,.27,.48,.62-.73,1.37-1.17,1.53-.4,.15-.93,.26-1.23-.13-.37-.49-.07-.95,.27-1.33l-.14-.35Z"/><path class="cls-111" d="M45.13,117.37c.46,.07,1.07,.12,1.2,.69,.06,.26-.05,.59-.32,.64-.36,.07-.97-.12-1.27-.33-.23-.17-.36-.74-.14-.96l.52-.04Z"/><path class="cls-111" d="M34.38,108.12c.23,.02,.41,0,.61,.12,.17,.1,.4,.24,.54,.37,.32,.29,.27,.77-.09,1.01-.09,.06-.25,.16-.38,.17-.16,0-.35-.2-.44-.33-.11-.16-.16-.36-.15-.55,0-.11,0-.4,.08-.49l-.17-.29Z"/><path class="cls-111" d="M24.25,111.91c.42-.37,.62-.54,1.18-.54,.44,0,1.08,.05,1.43,.37,.36,.34,.41,1.01,.35,1.46-.07,.53-.33,1.25-.64,1.7-.22,.33-.56,.44-.95,.4-.41-.04-.65-.28-.87-.6-.27-.39-.53-.81-.58-1.29-.04-.39-.02-1.04,.08-1.5Z"/><path class="cls-111" d="M84.99,28.82s.06,.05,.09,.07c0,.03,.02,.05,.03,.07,.06,.11,.13,.22,.2,.32,.06,.08,.12,.15,.21,.2,.09,.05,.18,.07,.28,.06,.27-.02,.51-.26,.6-.51,.11-.29,0-.62-.19-.84-.17-.19-.4-.27-.65-.27-.19,0-.4,.06-.53,.21-.16,.2-.03,.42-.05,.68Z"/><path class="cls-111" d="M129.74,93.4s.06,.05,.09,.07c0,.03,.02,.05,.03,.07,.06,.11,.13,.22,.2,.32,.06,.08,.12,.15,.21,.2,.09,.05,.18,.07,.28,.06,.27-.02,.51-.26,.6-.51,.11-.29,0-.62-.19-.84-.17-.19-.4-.27-.65-.27-.19,0-.4,.06-.53,.21-.16,.2-.03,.42-.05,.68Z"/><path class="cls-111" d="M60.7,26.03c.25-.04,.39-.13,.57,.03,.18,.16,.34,.34,.44,.56,.09,.18,.13,.32-.08,.42-.2,.09-.47,.09-.68,.06-.25-.04-.66-.21-.73-.48-.03-.11,0-.19,.05-.28,.12-.21,.23-.31,.48-.31h-.05Z"/><path class="cls-111" d="M60.1,29.26c.1,.11,.19,.25,.32,.33,.19,.12,.41,.18,.59,.31,.28,.2,.6,.46,.73,.79,.11,.28,.21,.63-.03,.88-.21,.22-.51,.3-.8,.27-.28-.02-.57-.09-.81-.24-.26-.17-.56-.3-.66-.61-.09-.27,.01-.48,.13-.72,.08-.16,.25-.56,.53-1.01Z"/><path class="cls-111" d="M127.48,34.84c.1,.11,.19,.25,.32,.33,.19,.12,.41,.18,.59,.31,.28,.2,.6,.46,.73,.79,.11,.28,.21,.63-.03,.88-.21,.22-.51,.3-.8,.27-.28-.02-.57-.09-.81-.24-.26-.17-.56-.3-.66-.61-.09-.27,.01-.48,.13-.72,.08-.16,.25-.56,.53-1.01Z"/><path class="cls-111" d="M63.3,42.58c.11,.15,.26,.25,.21,.43-.04,.14-.15,.3-.28,.37-.39,.21-1.02,0-1.35-.21-.23-.15-.44-.36-.3-.64,.25-.49,.89-.35,1.29-.16l.43,.22Z"/><path class="cls-111" d="M64.03,22.03c-.22,.78-.23,1.54,.05,2.31,.11,.31,.26,.62,.57,.78,.27,.14,.57,.05,.85-.02,.74-.2,1.56-.71,1.88-1.43,.17-.39,.29-.83,.26-1.26-.03-.48-.21-.94-.4-1.37-.27-.63-.73-1.47-1.49-1.59-.66-.1-1.16,.25-1.38,.86-.13,.37-.2,.74-.28,1.12-.06,.29-.14,.46-.05,.6Z"/><path class="cls-111" d="M97.02,9.58c.35,.11,.68,.25,1.02,.36,.45,.15,.94,.32,1.21,.75,.51,.79-.86,1.23-1.39,1.29-.52,.05-1.53,.13-1.87-.42-.39-.64,.44-1.23,.94-1.42l.09-.56Z"/><path class="cls-111" d="M80.81,33.21c.19,.27,.28,.4,.37,.71,.18,.58,.29,1.15,.21,1.76-.07,.56-.27,1.04-.68,1.43-.26,.25-.55,.45-.88,.61-.69,.32-1.62,.35-2.22-.17-.47-.41-.63-1.08-.81-1.65-.07-.23-.1-.47-.2-.7-.1-.21-.22-.42-.25-.66-.08-.55,.54-1.01,.99-1.15,.3-.09,.57-.22,.86-.35,.33-.15,.71-.25,1.05-.36,.34-.11,.62-.17,.96-.01,.36,.17,.63,.44,.59,.54Z"/><path class="cls-111" d="M132.47,42.79c.19,.27,.28,.4,.37,.71,.18,.58,.29,1.15,.21,1.76-.07,.56-.27,1.04-.68,1.43-.26,.25-.55,.45-.88,.61-.69,.32-1.62,.35-2.22-.17-.47-.41-.63-1.08-.81-1.65-.07-.23-.1-.47-.2-.7-.1-.21-.22-.42-.25-.66-.08-.55,.54-1.01,.99-1.15,.3-.09,.57-.22,.86-.35,.33-.15,.71-.25,1.05-.36,.34-.11,.62-.17,.96-.01,.36,.17,.63,.44,.59,.54Z"/><path class="cls-111" d="M127.24,101.73c.19,.27,.28,.4,.37,.71,.18,.58,.29,1.15,.21,1.76-.07,.56-.27,1.04-.68,1.43-.26,.25-.55,.45-.88,.61-.69,.32-1.62,.35-2.22-.17-.47-.41-.63-1.08-.81-1.65-.07-.23-.1-.47-.2-.7-.1-.21-.22-.42-.25-.66-.08-.55,.54-1.01,.99-1.15,.3-.09,.57-.22,.86-.35,.33-.15,.71-.25,1.05-.36,.34-.11,.62-.17,.96-.01,.36,.17,.63,.44,.59,.54Z"/><path class="cls-111" d="M66.82,37c.15,.1,.32,.17,.39,.33,.05,.12,.11,.28,.09,.41-.02,.11-.1,.29-.2,.35-.15,.08-.33-.04-.45-.13-.2-.15-.64-.44-.58-.75,.05-.23,.21-.34,.37-.48l.38,.27Z"/><path class="cls-111" d="M132.57,72.09c.04,.25,.14,.51,.01,.71-.08,.13-.32,.26-.46,.32-.43,.2-.93,.3-1.38,.48-.29,.12-.58,.21-.9,.18-.31-.02-.52-.31-.6-.61-.17-.63,.35-1.59,.9-1.89,.25-.14,.63-.16,.91-.16,.58,0,1.01,.28,1.52,.97Z"/><path class="cls-111" d="M137.45,73.19c.36,.38,1.17,1.19,.44,1.6-.44,.25-1.1,.23-1.59,.24-.5,0-1.3-.06-1.64-.49-.44-.55-.16-1.39,.38-1.76,.64-.44,1.45-.45,2.01,.09l.4,.32Z"/><path class="cls-111" d="M135.7,83.92c.05,.06,.2,.19,.23,.28,.02,.1,0,.3-.05,.38-.13,.21-.41,.14-.57,0-.15-.14-.21-.34-.15-.53,.07-.2,.27-.39,.5-.36l.04,.22Z"/><path class="cls-111" d="M128.44,83.22c.09,.12,.21,.21,.17,.36-.03,.12-.13,.25-.23,.31-.32,.17-.84,0-1.11-.18-.19-.12-.37-.29-.25-.53,.2-.4,.73-.29,1.07-.13l.36,.18Z"/><path class="cls-111" d="M129.05,66.25c-.18,.64-.19,1.27,.04,1.91,.09,.26,.21,.51,.47,.65,.22,.12,.47,.04,.7-.02,.61-.16,1.29-.58,1.56-1.18,.14-.32,.24-.69,.21-1.04-.03-.4-.18-.77-.33-1.14-.22-.52-.6-1.22-1.23-1.31-.54-.08-.96,.21-1.14,.71-.11,.3-.16,.61-.23,.92-.05,.24-.12,.38-.04,.5Z"/><path class="cls-111" d="M131.35,78.61c.12,.08,.27,.14,.33,.27,.04,.1,.09,.23,.07,.34-.01,.09-.08,.24-.17,.29-.13,.07-.28-.03-.37-.1-.17-.12-.52-.36-.48-.62,.04-.19,.17-.28,.31-.4l.31,.22Z"/><path class="cls-111" d="M21.61,108.37c-.05,.3-.17,.61-.01,.86,.1,.15,.39,.31,.56,.39,.52,.24,1.13,.36,1.67,.58,.36,.14,.7,.25,1.09,.22,.38-.03,.63-.38,.73-.74,.2-.76-.42-1.92-1.1-2.29-.31-.17-.76-.2-1.11-.19-.7,0-1.22,.34-1.84,1.18Z"/><path class="cls-111" d="M7.11,52.78c-.44,.46-1.41,1.44-.53,1.94,.53,.3,1.34,.28,1.93,.28,.6,0,1.57-.07,1.98-.59,.53-.66,.2-1.69-.46-2.13-.77-.53-1.76-.54-2.44,.11l-.49,.39Z"/><path class="cls-111" d="M11.4,49.15c-.03,.05-.62,1.1-.09,1.07,.18,0,.57-.37,.7-.46,.26-.18,.44-.35,.61-.62,.16-.24,.23-.45-.05-.6-.39-.2-.72,.14-.98,.42l-.19,.19Z"/><path class="cls-111" d="M5.02,64.7c-.28,.23-.49,.44-.61,.8-.16,.46-.18,.99,.08,1.42,.45,.79,1.63,1.46,2.53,1.06,.96-.43,1.43-2.01,.64-2.81-.4-.4-.93-.65-1.48-.75-.6-.11-1.04,.07-1.16,.28Z"/><path class="cls-111" d="M6.9,85.36c-.28,.23-.49,.44-.61,.8-.16,.46-.18,.99,.08,1.42,.45,.79,1.63,1.46,2.53,1.06,.96-.43,1.43-2.01,.64-2.81-.4-.4-.93-.65-1.48-.75-.6-.11-1.04,.07-1.16,.28Z"/><path class="cls-111" d="M11.4,93.4s-.06,.05-.09,.07c0,.03-.02,.05-.03,.07-.06,.11-.13,.22-.2,.32-.06,.08-.12,.15-.21,.2-.09,.05-.18,.07-.28,.06-.27-.02-.51-.26-.6-.51-.11-.29,0-.62,.19-.84,.17-.19,.4-.27,.65-.27,.19,0,.4,.06,.53,.21,.16,.2,.03,.42,.05,.68Z"/><path class="cls-111" d="M13.66,34.84c-.1,.11-.19,.25-.32,.33-.19,.12-.41,.18-.59,.31-.28,.2-.6,.46-.73,.79-.11,.28-.21,.63,.03,.88,.21,.22,.51,.3,.8,.27,.28-.02,.57-.09,.81-.24,.26-.17,.56-.3,.66-.61,.09-.27-.01-.48-.13-.72-.08-.16-.25-.56-.53-1.01Z"/><path class="cls-111" d="M8.66,42.79c-.19,.27-.28,.4-.37,.71-.18,.58-.29,1.15-.21,1.76,.07,.56,.27,1.04,.68,1.43,.26,.25,.55,.45,.88,.61,.69,.32,1.62,.35,2.22-.17,.47-.41,.63-1.08,.81-1.65,.07-.23,.1-.47,.2-.7,.1-.21,.22-.42,.25-.66,.08-.55-.54-1.01-.99-1.15-.3-.09-.57-.22-.86-.35-.33-.15-.71-.25-1.05-.36-.34-.11-.62-.17-.96-.01-.36,.17-.63,.44-.59,.54Z"/><path class="cls-111" d="M13.9,101.73c-.19,.27-.28,.4-.37,.71-.18,.58-.29,1.15-.21,1.76,.07,.56,.27,1.04,.68,1.43,.26,.25,.55,.45,.88,.61,.69,.32,1.62,.35,2.22-.17,.47-.41,.63-1.08,.81-1.65,.07-.23,.1-.47,.2-.7,.1-.21,.22-.42,.25-.66,.08-.55-.54-1.01-.99-1.15-.3-.09-.57-.22-.86-.35-.33-.15-.71-.25-1.05-.36-.34-.11-.62-.17-.96-.01-.36,.17-.63,.44-.59,.54Z"/><path class="cls-111" d="M8.56,72.09c-.04,.25-.14,.51-.01,.71,.08,.13,.32,.26,.46,.32,.43,.2,.93,.3,1.38,.48,.29,.12,.58,.21,.9,.18,.31-.02,.52-.31,.6-.61,.17-.63-.35-1.59-.9-1.89-.25-.14-.63-.16-.91-.16-.58,0-1.01,.28-1.52,.97Z"/><path class="cls-111" d="M3.68,73.19c-.36,.38-1.17,1.19-.44,1.6,.44,.25,1.1,.23,1.59,.24,.5,0,1.3-.06,1.64-.49,.44-.55,.16-1.39-.38-1.76-.64-.44-1.45-.45-2.01,.09l-.4,.32Z"/><path class="cls-111" d="M5.44,83.92c-.05,.06-.2,.19-.23,.28-.02,.1,0,.3,.05,.38,.13,.21,.41,.14,.57,0,.15-.14,.21-.34,.15-.53-.07-.2-.27-.39-.5-.36l-.04,.22Z"/><path class="cls-111" d="M12.69,83.22c-.09,.12-.21,.21-.17,.36,.03,.12,.13,.25,.23,.31,.32,.17,.84,0,1.11-.18,.19-.12,.37-.29,.25-.53-.2-.4-.73-.29-1.07-.13l-.36,.18Z"/><path class="cls-111" d="M12.09,66.25c.18,.64,.19,1.27-.04,1.91-.09,.26-.21,.51-.47,.65-.22,.12-.47,.04-.7-.02-.61-.16-1.29-.58-1.56-1.18-.14-.32-.24-.69-.21-1.04,.03-.4,.18-.77,.33-1.14,.22-.52,.6-1.22,1.23-1.31,.54-.08,.96,.21,1.14,.71,.11,.3,.16,.61,.23,.92,.05,.24,.12,.38,.04,.5Z"/><path class="cls-111" d="M9.78,78.61c-.12,.08-.27,.14-.33,.27-.04,.1-.09,.23-.07,.34,.01,.09,.08,.24,.17,.29,.13,.07,.28-.03,.37-.1,.17-.12,.53-.36,.48-.62-.04-.19-.17-.28-.31-.4l-.31,.22Z"/></g><path class="cls-92" d="M119.62,25.89C97.86,11.98,82.95,7.1,65.12,5.7c-17.83-1.39-25.95,5.06-30.74,11.37-8.63,11.36-22.61,15.8-26.32,40.61-3.72,24.82,2.72,26.05,5.27,40.11,2.56,14.07,26.38,35.08,45.08,34.4,18.69-.68,31.73,7.03,50.52-5.7,18.79-12.73,26.03-30.07,26.6-45.93,.58-15.86,5.84-40.75-15.91-54.67Zm-48.63,71.58c-14.62,0-26.48-11.85-26.48-26.48,0-8.13,4.85-14.24,10.61-19.1,4.61-3.88,9.38-7.38,15.87-7.38s11.97,2.16,16.49,5.76c6.09,4.85,9.99,12.33,9.99,20.72,0,14.63-11.85,26.48-26.48,26.48Z"/><path class="cls-45" d="M119.62,25.89c-21.76-13.91-36.67-16.26-54.5-17.66-17.83-1.39-25.95,2.53-30.74,8.84-8.63,11.36-22.61,15.8-26.32,40.61-3.72,24.82,2.72,26.05,5.27,40.11,2.56,14.07,26.38,35.08,45.08,34.4,18.69-.68,31.73,7.03,50.52-5.7,18.79-12.73,26.03-30.07,26.6-45.93,.58-15.86,5.84-40.75-15.91-54.67Zm-48.63,71.58c-14.62,0-26.48-11.85-26.48-26.48,0-8.13,4.85-14.24,10.61-19.1,4.61-3.88,9.38-7.38,15.87-7.38s11.97,2.16,16.49,5.76c6.09,4.85,9.99,12.33,9.99,20.72,0,14.63-11.85,26.48-26.48,26.48Z"/><path class="cls-79" d="M72.51,97.62c20.13-.38,36.6,6.85,36.77,16.16,.18,9.31-16,17.16-36.13,17.54-20.13,.38-36.6-6.85-36.77-16.16-.18-9.3,16-17.16,36.13-17.54Z"/><path class="cls-80" d="M30.09,22.46C44.96,8.87,62.1,3.43,68.37,10.3c6.28,6.87-.68,23.45-15.55,37.04-14.86,13.58-32,19.03-38.28,12.16-6.28-6.87,.68-23.45,15.55-37.04Z"/><path class="cls-53" d="M7.11,75.03c1.34,9.4,6.55,17.43,9.49,27.81,2.94,10.39,20.99,26.3,45.26,27.86s35.35,2.44,53.59-11.99c18.24-14.42,20.18-40.33,20.18-40.33,0,0,1.44,9.17-4.23,24.45s-22.47,28.04-44.07,32.08-40.38-4.38-48.51-7.23c-8.13-2.86-22.72-15.2-25.7-26.97-2.98-11.77-7.29-21.16-6.02-25.69Z"/><path class="cls-69" d="M22.49,32.59c7.64-9.86,17.53-14.98,22.09-11.45,4.56,3.53,2.05,14.39-5.59,24.24-7.64,9.86-17.53,14.98-22.09,11.45-4.56-3.53-2.05-14.39,5.59-24.24Z"/><path class="cls-77" d="M88.55,42.53c-16.7-5.29-28.44-15.26-26.22-22.28,2.22-7.02,17.56-8.43,34.26-3.14,16.7,5.29,28.44,15.26,26.22,22.29-2.22,7.02-17.56,8.43-34.26,3.14Z"/><path class="cls-78" d="M42.63,122.85c-16.7-5.29-28.44-15.26-26.22-22.28,2.22-7.02,17.56-8.43,34.26-3.14,16.7,5.29,28.44,15.26,26.22,22.29-2.22,7.02-17.56,8.43-34.26,3.14Z"/><path class="cls-64" d="M59.57,9.58c5.73-1.57,10.97-.7,11.7,1.95,.73,2.65-3.33,6.07-9.07,7.65-5.73,1.57-10.97,.7-11.7-1.95-.73-2.65,3.33-6.07,9.07-7.65Z"/><path class="cls-61" d="M38.24,104.5c2.86,3.31,3.94,7.07,2.41,8.39s-5.09-.29-7.95-3.6c-2.86-3.31-3.94-7.07-2.41-8.39,1.53-1.32,5.09,.29,7.95,3.6Z"/><path class="cls-63" d="M114.28,95.61c4.89-6.38,11.24-9.71,14.19-7.45,2.95,2.26,1.37,9.26-3.52,15.64-4.89,6.38-11.24,9.71-14.19,7.45-2.95-2.26-1.37-9.26,3.52-15.64Z"/><path class="cls-60" d="M17.77,86.32c-2.89-8.72-2.37-16.74,1.15-17.91,3.53-1.17,8.73,4.96,11.62,13.68,2.89,8.72,2.37,16.74-1.15,17.91-3.53,1.17-8.73-4.96-11.62-13.68Z"/><path class="cls-62" d="M41.59,20.02c1.64-1.36,3.47-1.85,4.1-1.09,.63,.76-.19,2.47-1.83,3.83-1.64,1.36-3.47,1.85-4.1,1.09-.63-.76,.19-2.47,1.83-3.83Z"/><path class="cls-75" d="M76.97,8.8s17.31,3.75,34.23,13.53c0,0-28.78-11.11-34.23-13.53Z"/><path class="cls-75" d="M58.41,6.46s-15.41,.1-22.86,11.67c0,0,9.1-8.63,22.86-11.67Z"/><path class="cls-75" d="M114.36,24.13s9.41,3.02,14.75,12.14c0,0-7.45-8.06-14.75-12.14Z"/><path class="cls-75" d="M8.06,73.24s-1.48-18.52,6.57-32.71c0,0-3.74,12.46-6.57,32.71Z"/><path class="cls-75" d="M85.63,129.09s14.82-1.93,25.57-8.84c0,0-9.74,11.32-25.57,8.84Z"/><path class="cls-75" d="M8.49,75.9s.2,7.78,4.85,14.2l-4.85-14.2Z"/><path class="cls-66" d="M94.09,12.02c6.91,3.93-26.67-1.86-43.67-.35-15.7,1.39-21.87,7.8-20.08,12.98,1.79,5.18,14.17,5.21,43.6,2.48,29.43-2.73,41.19-5.14,45.67,.13s-28.11,10.98-52.93,14.9c-24.82,3.92-46.67,1.1-53.56,4.05-6.89,2.95-5.12,15.85,11.93,18.18s19.07,1.13,20.21-1.68c1.14-2.81-3.94-.72-16.31,0-12.37,.72-22.9-7.87-14.34-13.21,8.56-5.35,15.82,.37,59.52-6.02s52.63-11.34,51.16-16.22c-1.47-4.88-9.52-5.18-32.64-3.69-23.12,1.49-58.27,6.39-58.27-1.57,0-7.96,16.49-9.47,35.21-8.02,18.73,1.45,28.39,2.62,29.75-.62,1.36-3.24-4.61-4.73-5.27-1.34Z"/><path class="cls-119" d="M96.67,56.88c-.95,5.52,1.68,1.39,18.78-1.88,17.1-3.27,20.9-.31,21.05,5.8,.15,6.11-36.22,5.1-38.09,8.06-1.86,2.96,2.43,1.31,15.44,0,13.01-1.31,24.03-3.15,24.33-9.22s-3.79-9.99-14.45-8.6c-10.66,1.39-26.58,2.97-27.07,5.84Z"/><path class="cls-98" d="M99.36,79.53c-1.84,5.48,32.39-5.51,33.29,3.9,.94,9.89-39.34,22.48-68.88,20.12-29.55-2.36-43.2-5.46-45.66,.17s26.03,23.78,58.87,18.59c32.84-5.2,41.35-10.58,47.23-10.07,5.88,.51,6.2-6.69-3.62-3.84-9.82,2.85-33.86,12.4-52.19,13.46-18.33,1.06-50.16-11.42-48.01-16.86,2.15-5.44,26.75,3.31,62.62,.52,35.87-2.79,51.64-14.3,52.87-20.93,1.23-6.63-3.88-9-14.82-7.64s-20.53-.88-21.69,2.59Z"/><path class="cls-122" d="M42.88,73.26c-1.02,2.85-25.37-1.23-29.32,4.97-3.95,6.21-.14,11.21,9.64,12.28,9.78,1.07,17.77-8.76,22.08-7.63,4.32,1.14-1.83,2.91-9.43,6.36-7.6,3.44-15.22,4.55-22.98-.48-7.76-5.03-6.88-13.4,3.12-14.97s29.12-6.8,26.88-.53Z"/><path class="cls-35" d="M30.34,24.65c2.17,6.82,16.95,5.82,47.55,3.29,30.6-2.53,40.27-1.96,40.27-1.96,0,0-1.43-4.36-28.14-1.32-26.72,3.03-53.79,7.58-59.67,0Z"/><path class="cls-34" d="M13.33,50.22c6.06-5.23,13.11-2.87,46.08-5.82,32.97-2.95,64.42-13.23,64.42-13.23,0,0-17.73,9.83-55.25,13.67-37.51,3.85-48.14,1.47-55.25,5.38Z"/><path class="cls-4" d="M20.39,104.99c2.33-4.12,13.36-1.66,47.84,.44,34.48,2.11,61.14-13.21,64.42-17.22,3.28-4.01,2.88-7.65,2.88-7.65,0,0,2.34,1.75,.41,5.92-1.93,4.17-23.37,20.14-58.43,19.98-35.05-.15-48.3-4.72-57.13-1.47Z"/><path class="cls-41" d="M107,53.3s-4.36,.51-3.82,2.55,10.48-2.46,20.15-2.84c9.66-.38,11.63,3.05,11.63,3.05,0,0-5.75-3.75-17.25-.97-11.49,2.78-21.28,7.14-22.55,4.23-1.26-2.91,4.86-6.16,11.84-6.02Z"/><path class="cls-44" d="M34.79,62.23s2.39,1.01,1.13,2.52c-1.26,1.52-16.86-1.27-21.88-4.47,3.76,3.97,12.16,5.96,24.03,5.96,10.8,0,7.45-5.52,6-5.6-1.45-.08-9.28,1.59-9.28,1.59Z"/><path class="cls-25" d="M105.74,77.45s-1.66,1.62,.38,2.33c2.04,.71,10.89-1.08,17.34-.83s8.3,2.51,8.3,2.51c0,0-2.9-2.44-13.88-1.21-10.99,1.23-17.81,2.6-19.14,.3s2.89-3.59,7.01-3.11Z"/><path class="cls-2" d="M105.83,67.14s-3.16,1.89,1.9,1.72,20.32-2.29,23.83-3.08c-9.14,2.96-22.22,3.85-27.95,5.13-5.73,1.28-7.58-.87-5.4-2.57,2.18-1.69,7.62-1.21,7.62-1.21Z"/><path class="cls-1" d="M34.65,70.51s1.94,1.3,.23,2.73c-1.71,1.43-8.1,.94-12.21,1.59,0,0,11.58-.27,16.9,.2,5.32,.47,5.64-3.04,3.69-4.52-1.94-1.48-8.61,0-8.61,0Z"/><path class="cls-51" d="M35.24,87.28s3.14-1.58,3.95-.96c.81,.62-5.68,3.78-5.68,3.78,0,0,5.02-1.42,9.47-3.19,4.45-1.77,5.1-3.24,3.74-4.52-1.37-1.28-9.03,2.54-11.47,4.89Z"/><path class="cls-67" d="M59.97,44.02s8.11-.55,19.18-2.19c11.06-1.64,12.48-3.15,12.48-3.15,0,0-11.79,1.82-19.42,3.09-7.63,1.26-12.24,2.26-12.24,2.26Z"/><path class="cls-67" d="M56.01,44.4s-11.94-.02-17.24,.44c-5.31,.46-8.42,1.07-8.42,1.07,0,0,13.96,.66,25.66-1.52Z"/><path class="cls-67" d="M20.05,46.01s-8.36,3.36-8.96,5.89c-.6,2.52-.04,3.73-.04,3.73,0,0-3.13-5.78,1.18-8.34,4.31-2.56,7.82-1.28,7.82-1.28Z"/><path class="cls-67" d="M103.94,55.2s2.2-1.93,10.12-2.93c7.92-1,12-.39,12-.39,0,0-10.73,1.65-15.44,2.98-4.71,1.34-6.68,.33-6.68,.33Z"/><path class="cls-67" d="M128.01,51.93s3.98-1.18,5.87,.66c0,0-3.69,.85-5.87-.66Z"/><path class="cls-67" d="M105.93,67.75s8.97-1.82,16.01-1.51c0,0-11.23,4.4-16.01,1.51Z"/><path class="cls-67" d="M40.43,102.24s15.22,2.99,32.4,2.82c17.18-.17,19.74-1.28,19.74-1.28,0,0-25.11,.23-34.2-.23s-17.94-1.31-17.94-1.31Z"/><path class="cls-67" d="M29.1,101.09s-10.42,.94-8.72,5.48c0,0-5.18-5.39,8.72-5.48Z"/><path class="cls-67" d="M38.39,117.37s10.41,4.03,21.98,4.79c0,0-13.07,.96-21.98-4.79Z"/><path class="cls-67" d="M102.74,115.09s12.19-4.2,17.68-4.66c5.49-.46,5.83,.74,5.83,.74,0,0-4.42,.44-11.76,1.89-7.34,1.45-11.76,2.02-11.76,2.02Z"/><path class="cls-67" d="M100.09,102.24s9.93-1.5,15.03-3.95c0,0-9.91,.38-15.03,3.95Z"/><path class="cls-67" d="M105.4,79.37s3.04-2.04,17.37-2.01c0,0-8.21,4.06-17.37,2.01Z"/><path class="cls-67" d="M35.97,25.2s-5.32-3.92,0-8.51c0,0-12.13,6.61,0,8.51Z"/><path class="cls-67" d="M37.9,26.35s3.99,1.52,13.41,1.58c9.43,.06,12.55-.81,12.55-.81,0,0-18.94,.34-25.97-.77Z"/><path class="cls-67" d="M37.9,15.09s5.55-2.47,16.12-2.42c0,0-8.73-1.51-16.12,2.42Z"/><path class="cls-67" d="M107.93,35.68s13.27-3.69,13.68-8.43c0,0,4.99,6.3-13.68,8.43Z"/><path class="cls-67" d="M100.44,23.57s18.11-.96,21.3,2.3c0,0-2.59-4.7-21.3-2.3Z"/><path class="cls-67" d="M82.25,13.31s11.7,1,13.41-.2c1.71-1.2-.24-1.85,1.52-2.31,1.75-.45,2.98,2.22-1.71,3.18-4.69,.96-13.22-.67-13.22-.67Z"/><path class="cls-67" d="M62.93,12.61s4.29-.44,10.54,.29c0,0-5.39,.91-10.54-.29Z"/><g><path class="cls-46" d="M121.7,58.02c0-.96-.78-1.74-1.74-1.74s-1.74,.78-1.74,1.74,.78,1.74,1.74,1.74,1.74-.78,1.74-1.74Z"/><path class="cls-113" d="M121.7,56.87c0-.96-.78-1.74-1.74-1.74s-1.74,.78-1.74,1.74,.78,1.74,1.74,1.74,1.74-.78,1.74-1.74Z"/></g><g><circle class="cls-11" cx="91.33" cy="107.04" r="1.74"/><circle class="cls-116" cx="91.33" cy="105.88" r="1.74"/></g><g><circle class="cls-26" cx="85.71" cy="126.34" r="1.74"/><circle class="cls-114" cx="85.71" cy="125.18" r="1.74"/></g><g><path class="cls-10" d="M82.98,111.95c0-.96-.78-1.74-1.74-1.74s-1.74,.78-1.74,1.74,.78,1.74,1.74,1.74,1.74-.78,1.74-1.74Z"/><circle class="cls-125" cx="81.24" cy="110.79" r="1.74"/></g><g><path class="cls-14" d="M52.16,96.14c0-.96-.78-1.74-1.74-1.74s-1.74,.78-1.74,1.74,.78,1.74,1.74,1.74,1.74-.78,1.74-1.74Z"/><path class="cls-65" d="M52.16,94.99c0-.96-.78-1.74-1.74-1.74s-1.74,.78-1.74,1.74,.78,1.74,1.74,1.74,1.74-.78,1.74-1.74Z"/></g><g><circle class="cls-39" cx="118.23" cy="84.53" r="1.74"/><circle class="cls-104" cx="118.23" cy="83.38" r="1.74"/></g><g><circle class="cls-55" cx="19.09" cy="66.69" r="1.74"/><circle class="cls-96" cx="19.09" cy="65.54" r="1.74"/></g><g><circle class="cls-54" cx="47.8" cy="36.58" r="1.74"/><circle class="cls-112" cx="47.8" cy="35.43" r="1.74"/></g><g><circle class="cls-18" cx="114.5" cy="44.05" r="1.74"/><circle class="cls-93" cx="114.5" cy="42.89" r="1.74"/></g><g><circle class="cls-56" cx="32.19" cy="56.2" r="1.74"/><path class="cls-101" d="M33.92,55.05c0-.96-.78-1.74-1.74-1.74s-1.74,.78-1.74,1.74,.78,1.74,1.74,1.74,1.74-.78,1.74-1.74Z"/></g><g><circle class="cls-36" cx="45.42" cy="113.4" r="1.74"/><circle class="cls-102" cx="45.42" cy="112.25" r="1.74"/></g><g><circle class="cls-57" cx="91.63" cy="33.89" r="1.74" transform="translate(-4.24 15.07) rotate(-9.19)"/><circle class="cls-86" cx="91.63" cy="32.73" r="1.74" transform="translate(44.68 117.95) rotate(-80.81)"/></g><g><circle class="cls-23" cx="62.93" cy="19.56" r="1.74" transform="translate(-2.31 10.28) rotate(-9.17)"/><circle class="cls-97" cx="62.93" cy="18.4" r="1.74" transform="translate(-2.13 10.26) rotate(-9.17)"/></g><g><path class="cls-40" d="M105.99,27.82c0-.96-.78-1.74-1.74-1.74s-1.74,.78-1.74,1.74,.78,1.74,1.74,1.74,1.74-.78,1.74-1.74Z"/><path class="cls-74" d="M105.99,26.66c0-.96-.78-1.74-1.74-1.74s-1.74,.78-1.74,1.74,.78,1.74,1.74,1.74,1.74-.78,1.74-1.74Z"/></g><g><circle class="cls-33" cx="118.23" cy="72.67" r="1.74"/><circle class="cls-76" cx="118.23" cy="71.52" r="1.74"/></g><g><path class="cls-52" d="M98.47,106.8c0-.96-.78-1.74-1.74-1.74s-1.74,.78-1.74,1.74,.78,1.74,1.74,1.74,1.74-.78,1.74-1.74Z"/><path class="cls-108" d="M98.47,105.65c0-.96-.78-1.74-1.74-1.74s-1.74,.78-1.74,1.74,.78,1.74,1.74,1.74,1.74-.78,1.74-1.74Z"/></g><g><circle class="cls-15" cx="91.33" cy="22.61" r="1.74"/><circle class="cls-110" cx="91.33" cy="21.45" r="1.74" transform="translate(-1.52 8.01) rotate(-4.98)"/></g><g><circle class="cls-58" cx="100.86" cy="97.17" r="1.74"/><circle class="cls-83" cx="100.86" cy="96.01" r="1.74"/></g><g><circle class="cls-28" cx="105.14" cy="122.43" r="1.74"/><circle class="cls-105" cx="105.14" cy="121.28" r="1.74"/></g><g><circle class="cls-37" cx="60.8" cy="33.03" r="1.74"/><circle class="cls-72" cx="60.8" cy="31.88" r="1.74" transform="translate(23.11 89.26) rotate(-84.36)"/></g><g><path class="cls-21" d="M52.88,116.37c0-.96-.78-1.74-1.74-1.74s-1.74,.78-1.74,1.74,.78,1.74,1.74,1.74,1.74-.78,1.74-1.74Z"/><path class="cls-118" d="M52.88,115.21c0-.96-.78-1.74-1.74-1.74s-1.74,.78-1.74,1.74,.78,1.74,1.74,1.74,1.74-.78,1.74-1.74Z"/></g><g><circle class="cls-49" cx="43.7" cy="35.73" r="1.74"/><path class="cls-82" d="M45.44,34.58c0-.96-.78-1.74-1.74-1.74s-1.74,.78-1.74,1.74,.78,1.74,1.74,1.74,1.74-.78,1.74-1.74Z"/></g><g><circle class="cls-13" cx="36.54" cy="77.07" r="1.74"/><circle class="cls-90" cx="36.54" cy="75.92" r="1.74"/></g><g><circle class="cls-27" cx="82.98" cy="30.43" r="1.74" transform="translate(-3.79 13.61) rotate(-9.17)"/><circle class="cls-106" cx="82.98" cy="29.27" r="1.74"/></g><g><path class="cls-16" d="M72.73,22.31c0-.96-.78-1.74-1.74-1.74s-1.74,.78-1.74,1.74,.78,1.74,1.74,1.74,1.74-.78,1.74-1.74Z"/><path class="cls-123" d="M72.73,21.16c0-.96-.78-1.74-1.74-1.74s-1.74,.78-1.74,1.74,.78,1.74,1.74,1.74,1.74-.78,1.74-1.74Z"/></g><g><circle class="cls-8" cx="36.54" cy="33.15" r="1.74" transform="translate(-.04 66.26) rotate(-84.36)"/><path class="cls-94" d="M38.28,32c0-.96-.78-1.74-1.74-1.74s-1.74,.78-1.74,1.74,.78,1.74,1.74,1.74,1.74-.78,1.74-1.74Z"/></g><g><circle class="cls-22" cx="44.12" cy="40.22" r="1.74"/><circle class="cls-120" cx="44.12" cy="39.06" r="1.74"/></g><g><path class="cls-7" d="M72.3,110.36c0-.96-.78-1.74-1.74-1.74s-1.74,.78-1.74,1.74,.78,1.74,1.74,1.74,1.74-.78,1.74-1.74Z"/><path class="cls-95" d="M72.3,109.2c0-.96-.78-1.74-1.74-1.74s-1.74,.78-1.74,1.74,.78,1.74,1.74,1.74,1.74-.78,1.74-1.74Z"/></g><g><circle class="cls-30" cx="88.16" cy="113.98" r="1.74"/><circle class="cls-73" cx="88.16" cy="112.83" r="1.74"/></g><g><circle class="cls-5" cx="26.65" cy="59.49" r="1.74"/><circle class="cls-115" cx="26.65" cy="58.33" r="1.74"/></g><g><circle class="cls-38" cx="81.24" cy="125.67" r="1.74"/><circle class="cls-117" cx="81.24" cy="124.51" r="1.74"/></g><g><path class="cls-19" d="M115.67,108.51c0-.96-.78-1.74-1.74-1.74s-1.74,.78-1.74,1.74,.78,1.74,1.74,1.74,1.74-.78,1.74-1.74Z"/><path class="cls-91" d="M115.67,107.35c0-.96-.78-1.74-1.74-1.74s-1.74,.78-1.74,1.74,.78,1.74,1.74,1.74,1.74-.78,1.74-1.74Z"/></g><g><circle class="cls-17" cx="73.47" cy="116.95" r="1.74"/><circle class="cls-99" cx="73.47" cy="115.79" r="1.74"/></g><g><path class="cls-24" d="M56.01,113.29c0-.96-.78-1.74-1.74-1.74s-1.74,.78-1.74,1.74,.78,1.74,1.74,1.74,1.74-.78,1.74-1.74Z"/><circle class="cls-100" cx="54.27" cy="112.13" r="1.74"/></g><g><path class="cls-9" d="M28.94,83.96c0-.96-.78-1.74-1.74-1.74s-1.74,.78-1.74,1.74,.78,1.74,1.74,1.74,1.74-.78,1.74-1.74Z"/><path class="cls-121" d="M28.94,82.8c0-.96-.78-1.74-1.74-1.74s-1.74,.78-1.74,1.74,.78,1.74,1.74,1.74,1.74-.78,1.74-1.74Z"/></g><g><circle class="cls-32" cx="109.17" cy="41.4" r="1.74"/><path class="cls-103" d="M110.91,40.24c0-.96-.78-1.74-1.74-1.74s-1.74,.78-1.74,1.74,.78,1.74,1.74,1.74,1.74-.78,1.74-1.74Z"/></g><g><circle class="cls-29" cx="23.6" cy="45.91" r="1.74"/><circle class="cls-107" cx="23.6" cy="44.75" r="1.74"/></g><g><circle class="cls-20" cx="121.7" cy="53.05" r="1.74"/><circle class="cls-124" cx="121.7" cy="51.89" r="1.74"/></g><g><circle class="cls-6" cx="95" cy="98.37" r="1.74"/><circle class="cls-109" cx="95" cy="97.21" r="1.74"/></g><g><circle class="cls-50" cx="128.62" cy="41.21" r="1.74"/><circle class="cls-87" cx="128.62" cy="40.06" r="1.74"/></g><g><circle class="cls-31" cx="109.28" cy="49.06" r="1.74"/><circle class="cls-70" cx="109.28" cy="47.9" r="1.74"/></g><g><circle class="cls-43" cx="115.95" cy="62.94" r="1.74"/><circle class="cls-71" cx="115.95" cy="61.78" r="1.74"/></g><g><circle class="cls-59" cx="43.7" cy="99.09" r="1.74"/><circle class="cls-126" cx="43.7" cy="97.93" r="1.74"/></g><g><circle class="cls-3" cx="56.01" cy="117.95" r="1.74"/><circle class="cls-88" cx="56.01" cy="116.79" r="1.74"/></g><g><circle class="cls-48" cx="106.19" cy="93.22" r="1.74"/><circle class="cls-85" cx="106.19" cy="92.06" r="1.74"/></g><g><circle class="cls-47" cx="102.59" cy="43.6" r="1.74"/><circle class="cls-81" cx="102.59" cy="42.44" r="1.74"/></g></g></g></g></g></svg>