<?xml version="1.0" encoding="UTF-8"?><svg xmlns="http://www.w3.org/2000/svg" xmlns:xlink="http://www.w3.org/1999/xlink" viewBox="0 0 148.54 144.55"><defs><style>.cls-1{fill:url(#_езымянный_градиент_692-15);}.cls-2{fill:url(#_езымянный_градиент_1115-12);}.cls-2,.cls-3,.cls-4,.cls-5,.cls-6,.cls-7,.cls-8,.cls-9,.cls-10,.cls-11,.cls-12,.cls-13,.cls-14,.cls-15,.cls-16,.cls-17,.cls-18,.cls-19,.cls-20,.cls-21,.cls-22,.cls-23,.cls-24,.cls-25,.cls-26,.cls-27,.cls-28,.cls-29,.cls-30,.cls-31,.cls-32,.cls-33,.cls-34,.cls-35,.cls-36,.cls-37,.cls-38,.cls-39,.cls-40,.cls-41,.cls-42,.cls-43,.cls-44,.cls-45,.cls-46,.cls-47,.cls-48,.cls-49,.cls-50,.cls-51,.cls-52,.cls-53,.cls-54,.cls-55,.cls-56,.cls-57,.cls-58,.cls-59,.cls-60,.cls-61,.cls-62,.cls-63,.cls-64,.cls-65,.cls-66,.cls-67,.cls-68,.cls-69,.cls-70,.cls-71,.cls-72,.cls-73,.cls-74,.cls-75,.cls-76{mix-blend-mode:multiply;}.cls-3{fill:url(#_езымянный_градиент_1115-27);}.cls-77{fill:url(#_езымянный_градиент_692);}.cls-78{fill:url(#_езымянный_градиент_328);}.cls-78,.cls-79{opacity:.3;}.cls-78,.cls-79,.cls-80,.cls-81,.cls-82,.cls-83,.cls-84,.cls-85,.cls-86,.cls-87,.cls-88,.cls-89,.cls-90,.cls-91{mix-blend-mode:screen;}.cls-4{fill:url(#_езымянный_градиент_6);}.cls-5{fill:url(#_езымянный_градиент_1115-43);}.cls-92{fill:url(#_езымянный_градиент_692-18);}.cls-6{fill:url(#_езымянный_градиент_1115-2);}.cls-7{fill:url(#_езымянный_градиент_1115-69);}.cls-93{fill:url(#_езымянный_градиент_692-29);}.cls-8{fill:url(#_езымянный_градиент_1115-54);}.cls-9{fill:url(#_езымянный_градиент_1115-36);}.cls-94{fill:url(#_езымянный_градиент_753);}.cls-95{fill:url(#_езымянный_градиент_1122-5);}.cls-10{fill:url(#_езымянный_градиент_1115-45);}.cls-11{fill:url(#_езымянный_градиент_1115-60);}.cls-79{fill:url(#_езымянный_градиент_358);}.cls-12{fill:url(#_езымянный_градиент_1115-44);}.cls-13{fill:url(#_езымянный_градиент_1115);}.cls-96{fill:url(#_езымянный_градиент_1122-4);}.cls-80{fill:url(#_езымянный_градиент_84);}.cls-80,.cls-18,.cls-51{opacity:.5;}.cls-97{fill:url(#_езымянный_градиент_692-5);}.cls-98{fill:url(#_езымянный_градиент_692-13);}.cls-14{fill:url(#_езымянный_градиент_1115-63);}.cls-15{fill:url(#_езымянный_градиент_1115-25);}.cls-99{fill:url(#_езымянный_градиент_672-2);}.cls-81{fill:url(#_езымянный_градиент_556-2);}.cls-100{fill:url(#_езымянный_градиент_286);}.cls-16{fill:url(#_езымянный_градиент_1115-66);}.cls-17{fill:url(#_езымянный_градиент_1115-61);}.cls-18{fill:url(#_езымянный_градиент_121);}.cls-19{fill:url(#_езымянный_градиент_1115-33);}.cls-20{fill:url(#_езымянный_градиент_1115-34);}.cls-101{fill:url(#_езымянный_градиент_692-16);}.cls-21{fill:url(#_езымянный_градиент_1115-28);}.cls-102{fill:url(#_езымянный_градиент_753-6);}.cls-22{fill:url(#_езымянный_градиент_1115-6);}.cls-103{fill:url(#_езымянный_градиент_692-25);}.cls-104{isolation:isolate;}.cls-23{fill:url(#_езымянный_градиент_1115-68);}.cls-105{fill:url(#_езымянный_градиент_683-3);}.cls-24{fill:url(#_езымянный_градиент_1115-46);}.cls-106{fill:url(#_езымянный_градиент_692-20);}.cls-107{fill:url(#_езымянный_градиент_683-4);}.cls-108{fill:url(#_езымянный_градиент_753-11);}.cls-25{fill:url(#_езымянный_градиент_1115-15);}.cls-26{fill:url(#_езымянный_градиент_1115-4);}.cls-27{fill:url(#_езымянный_градиент_1115-40);}.cls-28{fill:url(#_езымянный_градиент_1115-17);}.cls-82{fill:url(#_езымянный_градиент_553-2);}.cls-29{fill:url(#_езымянный_градиент_1115-62);}.cls-30{fill:url(#_езымянный_градиент_1115-21);}.cls-109{fill:url(#_езымянный_градиент_692-21);}.cls-31{fill:url(#_езымянный_градиент_67);}.cls-83{fill:url(#_езымянный_градиент_556-4);}.cls-110{fill:url(#_езымянный_градиент_76);}.cls-111{fill:url(#_езымянный_градиент_692-4);}.cls-112{fill:url(#_езымянный_градиент_672-4);}.cls-32{fill:url(#_езымянный_градиент_1115-37);}.cls-33{fill:url(#_езымянный_градиент_1115-16);}.cls-84{fill:url(#_езымянный_градиент_321);opacity:.95;}.cls-34{fill:url(#_езымянный_градиент_1115-5);}.cls-113{fill:url(#_езымянный_градиент_692-7);}.cls-35{fill:url(#_езымянный_градиент_1115-53);}.cls-114{fill:url(#_езымянный_градиент_683-8);}.cls-36{fill:url(#_езымянный_градиент_1115-56);}.cls-37{fill:url(#_езымянный_градиент_1115-48);}.cls-115{fill:url(#_езымянный_градиент_672);}.cls-116{fill:url(#_езымянный_градиент_753-2);}.cls-38{fill:url(#_езымянный_градиент_1115-35);}.cls-39{fill:url(#_езымянный_градиент_1115-42);}.cls-40{fill:url(#_езымянный_градиент_1115-64);}.cls-117{fill:#fff;mix-blend-mode:soft-light;}.cls-41{fill:url(#_езымянный_градиент_1115-7);}.cls-42{fill:url(#_езымянный_градиент_1115-38);}.cls-118{fill:url(#_езымянный_градиент_692-17);}.cls-119{fill:url(#_езымянный_градиент_1129-3);}.cls-43{fill:url(#_езымянный_градиент_1115-57);}.cls-44{fill:url(#_езымянный_градиент_1115-59);}.cls-120{fill:url(#_езымянный_градиент_692-2);}.cls-121{fill:url(#_езымянный_градиент_672-6);}.cls-122{fill:url(#_езымянный_градиент_753-9);}.cls-123{fill:url(#_езымянный_градиент_692-22);}.cls-45{fill:url(#_езымянный_градиент_1115-58);}.cls-124{fill:url(#_езымянный_градиент_683-9);}.cls-46{fill:url(#_езымянный_градиент_1115-13);}.cls-125{fill:url(#_езымянный_градиент_692-19);}.cls-126{fill:url(#_езымянный_градиент_692-3);}.cls-47{fill:url(#_езымянный_градиент_1115-65);}.cls-48{fill:url(#_езымянный_градиент_1115-8);}.cls-127{fill:url(#_езымянный_градиент_692-6);}.cls-128{fill:url(#_езымянный_градиент_1122-3);}.cls-129{fill:url(#_езымянный_градиент_692-24);}.cls-49{fill:url(#_езымянный_градиент_1115-30);}.cls-130{fill:url(#_езымянный_градиент_692-27);}.cls-50{fill:url(#_езымянный_градиент_121-2);}.cls-85{fill:url(#_езымянный_градиент_553);}.cls-131{fill:url(#_езымянный_градиент_692-28);}.cls-52{fill:url(#_езымянный_градиент_1115-39);}.cls-132{fill:url(#_езымянный_градиент_692-14);}.cls-86{fill:url(#_езымянный_градиент_556);}.cls-53{fill:url(#_езымянный_градиент_1115-31);}.cls-54{fill:url(#_езымянный_градиент_1115-26);}.cls-133{fill:url(#_езымянный_градиент_692-26);}.cls-134{fill:url(#_езымянный_градиент_692-23);}.cls-135{fill:url(#_езымянный_градиент_672-3);}.cls-55{fill:url(#_езымянный_градиент_1115-24);}.cls-56{fill:url(#_езымянный_градиент_1115-67);}.cls-136{fill:url(#_езымянный_градиент_753-7);}.cls-137{fill:url(#_езымянный_градиент_1129-5);}.cls-138{fill:url(#_езымянный_градиент_1129-7);}.cls-57{fill:url(#_езымянный_градиент_1115-22);}.cls-58{fill:url(#_езымянный_градиент_1115-11);}.cls-59{fill:url(#_езымянный_градиент_1115-50);}.cls-139{fill:url(#_езымянный_градиент_1129-2);}.cls-140{fill:url(#_езымянный_градиент_1122-6);}.cls-141{fill:#e6aea9;}.cls-60{fill:url(#_езымянный_градиент_1115-55);}.cls-142{fill:url(#_езымянный_градиент_753-5);}.cls-143{fill:url(#_езымянный_градиент_753-3);}.cls-144{fill:url(#_езымянный_градиент_1129-6);}.cls-145{fill:url(#_езымянный_градиент_672-5);}.cls-146{fill:url(#_езымянный_градиент_1122-7);}.cls-87{fill:url(#_езымянный_градиент_553-3);}.cls-147{fill:url(#_езымянный_градиент_692-9);}.cls-61{fill:url(#_езымянный_градиент_1115-32);}.cls-148{fill:url(#_езымянный_градиент_1122-2);}.cls-62{fill:url(#_езымянный_градиент_1115-49);}.cls-63{fill:url(#_езымянный_градиент_1115-23);}.cls-149{fill:url(#_езымянный_градиент_753-8);}.cls-150{fill:url(#_езымянный_градиент_1122);}.cls-151{fill:url(#_езымянный_градиент_683-2);}.cls-152{fill:url(#_езымянный_градиент_683-5);}.cls-88{fill:url(#_езымянный_градиент_556-5);}.cls-64{fill:url(#_езымянный_градиент_1115-52);}.cls-153{fill:url(#_езымянный_градиент_1122-8);}.cls-65{fill:url(#_езымянный_градиент_1115-3);}.cls-66{fill:url(#_езымянный_градиент_1115-29);}.cls-154{fill:url(#_езымянный_градиент_683-6);}.cls-67{fill:url(#_езымянный_градиент_1115-19);}.cls-89{fill:url(#_езымянный_градиент_556-3);}.cls-68{fill:url(#_езымянный_градиент_1115-9);}.cls-69{fill:url(#_езымянный_градиент_1115-70);}.cls-70{fill:url(#_езымянный_градиент_1115-10);}.cls-71{fill:url(#_езымянный_градиент_1115-47);}.cls-72{fill:url(#_езымянный_градиент_1115-18);}.cls-73{fill:url(#_езымянный_градиент_1115-41);}.cls-74{fill:url(#_езымянный_градиент_1115-20);}.cls-155{fill:url(#_езымянный_градиент_683-7);}.cls-156{fill:url(#_езымянный_градиент_683);}.cls-90{fill:url(#_езымянный_градиент_329);}.cls-90,.cls-91{opacity:.8;}.cls-157{fill:url(#_езымянный_градиент_692-12);}.cls-158{fill:url(#_езымянный_градиент_692-8);}.cls-159{fill:url(#_езымянный_градиент_1129);}.cls-160{fill:url(#_езымянный_градиент_692-10);}.cls-161{fill:url(#_езымянный_градиент_1129-4);}.cls-162{fill:url(#_езымянный_градиент_692-11);}.cls-75{fill:url(#_езымянный_градиент_1115-14);}.cls-163{fill:url(#_езымянный_градиент_753-10);}.cls-164{fill:url(#_езымянный_градиент_753-4);}.cls-91{fill:url(#_езымянный_градиент_329-2);}.cls-76{fill:url(#_езымянный_градиент_1115-51);}</style><radialGradient id="_езымянный_градиент_286" cx="815.93" cy="72.28" fx="815.93" fy="72.28" r="73.28" gradientTransform="translate(890.19) rotate(-180) scale(1 -1)" gradientUnits="userSpaceOnUse"><stop offset=".31" stop-color="#d45429"/><stop offset=".86" stop-color="#d45429"/><stop offset=".97" stop-color="#ec7f20"/><stop offset=".98" stop-color="#ed8220"/><stop offset=".99" stop-color="#f38e20"/><stop offset="1" stop-color="#fb9d20"/></radialGradient><linearGradient id="_езымянный_градиент_84" x1="815.92" y1="143.11" x2="815.92" y2="0" gradientTransform="translate(890.19) rotate(-180) scale(1 -1)" gradientUnits="userSpaceOnUse"><stop offset=".67" stop-color="#000"/><stop offset=".7" stop-color="#0a0700"/><stop offset=".74" stop-color="#261b00"/><stop offset=".81" stop-color="#543b01"/><stop offset=".88" stop-color="#946902"/><stop offset=".97" stop-color="#e3a103"/><stop offset=".99" stop-color="#ffb504"/></linearGradient><linearGradient id="_езымянный_градиент_121" x1="818.1" y1="144.55" x2="818.1" y2="74.56" gradientTransform="translate(890.19) rotate(-180) scale(1 -1)" gradientUnits="userSpaceOnUse"><stop offset="0" stop-color="#d23223"/><stop offset=".25" stop-color="#e27b71"/><stop offset="1" stop-color="#ffe7e2"/></linearGradient><radialGradient id="_езымянный_градиент_76" cx="66.34" cy="42.96" fx="66.34" fy="42.96" r="105.31" gradientTransform="matrix(1, 0, 0, 1, 0, 0)" gradientUnits="userSpaceOnUse"><stop offset=".06" stop-color="#fff"/><stop offset="1" stop-color="#ffdfda"/></radialGradient><radialGradient id="_езымянный_градиент_67" cx="77.29" cy="34.14" fx="77.29" fy="34.14" r="118.69" gradientTransform="matrix(1, 0, 0, 1, 0, 0)" gradientUnits="userSpaceOnUse"><stop offset=".58" stop-color="#fff"/><stop offset=".64" stop-color="#fffcfc"/><stop offset=".69" stop-color="#fff2f4"/><stop offset=".74" stop-color="#ffe3e7"/><stop offset=".77" stop-color="#ffcdd4"/><stop offset=".81" stop-color="#ffb0bc"/><stop offset=".84" stop-color="#ff94a4"/><stop offset=".91" stop-color="#d75780"/><stop offset=".97" stop-color="#bd2e68"/><stop offset=".99" stop-color="#b41f60"/></radialGradient><radialGradient id="_езымянный_градиент_6" cx="75.35" cy="63.12" fx="75.35" fy="63.12" r="104.28" gradientTransform="translate(0 14.53) scale(1 .77)" gradientUnits="userSpaceOnUse"><stop offset="0" stop-color="#b41f60"/><stop offset=".04" stop-color="#bd2e68"/><stop offset=".1" stop-color="#d75780"/><stop offset=".18" stop-color="#ff94a4"/><stop offset=".27" stop-color="#ffb0bc"/><stop offset=".38" stop-color="#ffcdd4"/><stop offset=".51" stop-color="#ffe3e7"/><stop offset=".64" stop-color="#fff2f4"/><stop offset=".79" stop-color="#fffcfc"/><stop offset="1" stop-color="#fff"/></radialGradient><linearGradient id="_езымянный_градиент_121-2" x1="76.1" y1="137.14" x2="76.1" y2="79.85" gradientTransform="matrix(1, 0, 0, 1, 0, 0)" xlink:href="#_езымянный_градиент_121"/><radialGradient id="_езымянный_градиент_321" cx="-11.93" cy="298.99" fx="-11.93" fy="298.99" r="9.35" gradientTransform="translate(-1128.24 114.71) rotate(-91.08) scale(1.86 4.03) skewX(.01)" gradientUnits="userSpaceOnUse"><stop offset="0" stop-color="#4c1a13"/><stop offset=".4" stop-color="#260d09"/><stop offset=".77" stop-color="#0a0302"/><stop offset=".99" stop-color="#000"/></radialGradient><radialGradient id="_езымянный_градиент_329" cx="74.43" cy="292.29" fx="74.43" fy="292.29" r="3.05" gradientTransform="translate(-921.87 697.86) rotate(-117.75) scale(1.86 4.03)" gradientUnits="userSpaceOnUse"><stop offset="0" stop-color="#ff744f"/><stop offset=".16" stop-color="#fb724d"/><stop offset=".28" stop-color="#f16d4a"/><stop offset=".4" stop-color="#e06645"/><stop offset=".51" stop-color="#c85b3e"/><stop offset=".62" stop-color="#a84c34"/><stop offset=".73" stop-color="#823b28"/><stop offset=".83" stop-color="#54261a"/><stop offset=".93" stop-color="#210f0a"/><stop offset=".99" stop-color="#000"/></radialGradient><radialGradient id="_езымянный_градиент_329-2" cx="119.18" cy="303.56" fx="119.18" fy="303.56" r="1.34" gradientTransform="translate(-676.82 1054.25) rotate(-134.51) scale(1.86 4.03)" xlink:href="#_езымянный_градиент_329"/><radialGradient id="_езымянный_градиент_328" cx="134.49" cy="322.23" fx="134.49" fy="322.23" r="4.93" gradientTransform="translate(605.26 1471.25) rotate(166.81) scale(1.86 4.61)" gradientUnits="userSpaceOnUse"><stop offset="0" stop-color="#ff744f"/><stop offset=".21" stop-color="#fc724e"/><stop offset=".34" stop-color="#f36e4b"/><stop offset=".45" stop-color="#e46846"/><stop offset=".55" stop-color="#d05e40"/><stop offset=".65" stop-color="#b55238"/><stop offset=".73" stop-color="#93432d"/><stop offset=".82" stop-color="#6c3121"/><stop offset=".9" stop-color="#3e1c13"/><stop offset=".97" stop-color="#0c0503"/><stop offset=".99" stop-color="#000"/></radialGradient><radialGradient id="_езымянный_градиент_358" cx="22.89" cy="323.38" fx="22.89" fy="323.38" r="4.93" gradientTransform="translate(520.37 1490.92) rotate(166.81) scale(2.62 4.61)" gradientUnits="userSpaceOnUse"><stop offset="0" stop-color="#ff744f"/><stop offset=".14" stop-color="#cf5e40"/><stop offset=".37" stop-color="#863d29"/><stop offset=".58" stop-color="#4c2217"/><stop offset=".76" stop-color="#230f0a"/><stop offset=".9" stop-color="#090402"/><stop offset=".99" stop-color="#000"/></radialGradient><radialGradient id="_езымянный_градиент_553" cx="-11" cy="298.87" fx="-11" fy="298.87" r="9.35" gradientTransform="translate(-1128.18 117.92) rotate(-91.08) scale(1.71 4.03) skewX(.01)" gradientUnits="userSpaceOnUse"><stop offset="0" stop-color="#ffa4b3"/><stop offset=".09" stop-color="#e3929f"/><stop offset=".34" stop-color="#945f67"/><stop offset=".57" stop-color="#54363b"/><stop offset=".76" stop-color="#26181b"/><stop offset=".9" stop-color="#0a0607"/><stop offset=".99" stop-color="#000"/></radialGradient><radialGradient id="_езымянный_градиент_553-2" cx="89.6" cy="286.23" fx="89.6" fy="286.23" r="9.35" gradientTransform="translate(-502.04 907.19) rotate(-138.45) scale(1.86 3.51)" xlink:href="#_езымянный_градиент_553"/><radialGradient id="_езымянный_градиент_553-3" cx="55.88" cy="558.45" fx="55.88" fy="558.45" r="9.35" gradientTransform="translate(2261.21 646.37) rotate(108.5) scale(1.86 4.03)" xlink:href="#_езымянный_градиент_553"/><radialGradient id="_езымянный_градиент_556" cx="43.37" cy="289.81" fx="43.37" fy="289.81" r="2.76" gradientTransform="translate(-1019.78 476.41) rotate(-108.96) scale(1.86 4.03)" gradientUnits="userSpaceOnUse"><stop offset="0" stop-color="#fff"/><stop offset=".37" stop-color="#fdfdfd"/><stop offset=".5" stop-color="#f6f6f6"/><stop offset=".59" stop-color="#eaeaea"/><stop offset=".67" stop-color="#d9d9d9"/><stop offset=".74" stop-color="#c3c3c3"/><stop offset=".79" stop-color="#a8a8a8"/><stop offset=".85" stop-color="#878787"/><stop offset=".89" stop-color="#626262"/><stop offset=".94" stop-color="#373737"/><stop offset=".98" stop-color="#090909"/><stop offset=".99" stop-color="#000"/></radialGradient><radialGradient id="_езымянный_градиент_556-2" cx="40.99" cy="304.85" fx="40.99" fy="304.85" r="3.73" gradientTransform="translate(-673.57 1036.45) rotate(-136.46) scale(1.86 4.03)" xlink:href="#_езымянный_градиент_556"/><radialGradient id="_езымянный_градиент_556-3" cx="-23.83" cy="273.48" fx="-23.83" fy="273.48" r="3.73" gradientTransform="translate(-793.18 -11.27) rotate(-83.61) scale(1.04 3.21)" xlink:href="#_езымянный_градиент_556"/><radialGradient id="_езымянный_градиент_556-4" cx="81.13" cy="288.86" fx="81.13" fy="288.86" r="1.11" gradientTransform="translate(-702.85 936.8) rotate(-133.31) scale(1.86 4.03)" xlink:href="#_езымянный_градиент_556"/><radialGradient id="_езымянный_градиент_556-5" cx="9.11" cy="277.66" fx="9.11" fy="277.66" r="1.11" gradientTransform="translate(-904.82 617.81) rotate(-116.14) scale(1.86 4.03) skewX(.01)" xlink:href="#_езымянный_градиент_556"/><radialGradient id="_езымянный_градиент_1115" cx="89.52" cy="205.32" fx="89.52" fy="205.32" r="3.36" gradientTransform="translate(192.51 -216.6) rotate(30.96) scale(1 1.57)" gradientUnits="userSpaceOnUse"><stop offset="0" stop-color="#ffbfb3"/><stop offset=".37" stop-color="#ffdbd4"/><stop offset=".77" stop-color="#fff5f3"/><stop offset="1" stop-color="#fff"/></radialGradient><linearGradient id="_езымянный_градиент_1129" x1="87.92" y1="266.71" x2="90.5" y2="266.71" gradientTransform="translate(164.56 -169.44) rotate(30.96)" gradientUnits="userSpaceOnUse"><stop offset="0" stop-color="#4d59ff"/><stop offset=".23" stop-color="#4c57fb"/><stop offset=".45" stop-color="#4c53f0"/><stop offset=".66" stop-color="#4c4ddd"/><stop offset=".87" stop-color="#4c44c3"/><stop offset="1" stop-color="#4c3dae"/></linearGradient><radialGradient id="_езымянный_градиент_1115-2" cx="55.93" cy="222.06" fx="55.93" fy="222.06" r="3.36" xlink:href="#_езымянный_градиент_1115"/><linearGradient id="_езымянный_градиент_1129-2" x1="54.33" y1="292.97" x2="56.91" y2="292.97" xlink:href="#_езымянный_градиент_1129"/><radialGradient id="_езымянный_градиент_1115-3" cx="712.57" cy="273.22" fx="712.57" fy="273.22" r="3.36" gradientTransform="translate(635.62 -550.52) rotate(97.45) scale(1 1.57)" xlink:href="#_езымянный_градиент_1115"/><linearGradient id="_езымянный_градиент_1129-3" x1="711.45" y1="373.05" x2="714.02" y2="373.05" gradientTransform="translate(581.11 -557.8) rotate(97.45)" xlink:href="#_езымянный_градиент_1129"/><radialGradient id="_езымянный_градиент_1115-4" cx="275.23" cy="-72.18" fx="275.23" fy="-72.18" r="3.36" gradientTransform="translate(-26.51 319.52) rotate(-47.14) scale(1 1.57)" xlink:href="#_езымянный_градиент_1115"/><linearGradient id="_езымянный_градиент_692" x1="273.84" y1="-168.42" x2="276.42" y2="-168.42" gradientTransform="translate(13.54 356.54) rotate(-47.14)" gradientUnits="userSpaceOnUse"><stop offset="0" stop-color="#ffffce"/><stop offset=".32" stop-color="#ffffca"/><stop offset=".61" stop-color="#ffffbf"/><stop offset=".9" stop-color="#ffffac"/><stop offset="1" stop-color="#ffffa4"/></linearGradient><radialGradient id="_езымянный_градиент_1115-5" cx="667.47" cy="84.09" fx="667.47" fy="84.09" r="3.36" gradientTransform="translate(488.92 580.54) rotate(-141.93) scale(1 1.57)" xlink:href="#_езымянный_градиент_1115"/><linearGradient id="_езымянный_градиент_692-2" x1="666.41" y1="76.4" x2="668.99" y2="76.4" gradientTransform="translate(522.97 537.45) rotate(-141.93)" xlink:href="#_езымянный_градиент_692"/><radialGradient id="_езымянный_градиент_1115-6" cx="469.6" cy="-74.49" fx="469.6" fy="-74.49" r="3.36" gradientTransform="translate(121.63 541.77) rotate(-86.29) scale(1 1.57)" xlink:href="#_езымянный_градиент_1115"/><linearGradient id="_езымянный_градиент_672" x1="468.46" y1="-172.51" x2="471.03" y2="-172.51" gradientTransform="translate(176.52 545.47) rotate(-86.29)" gradientUnits="userSpaceOnUse"><stop offset="0" stop-color="#ff2000"/><stop offset=".29" stop-color="#fb1d00"/><stop offset=".56" stop-color="#f01600"/><stop offset=".82" stop-color="#dd0a00"/><stop offset="1" stop-color="#c00"/></linearGradient><radialGradient id="_езымянный_градиент_1115-7" cx="675.76" cy="97.12" fx="675.76" fy="97.12" r="3.36" gradientTransform="translate(459.15 653.52) rotate(-132.13) scale(1 1.57)" xlink:href="#_езымянный_градиент_1115"/><linearGradient id="_езымянный_градиент_1129-4" x1="674.2" y1="96.95" x2="676.78" y2="96.95" gradientTransform="translate(499.62 616.55) rotate(-132.13)" xlink:href="#_езымянный_градиент_1129"/><radialGradient id="_езымянный_градиент_1115-8" cx="592.17" cy="11.86" fx="592.17" fy="11.86" r="3.36" gradientTransform="translate(227 615.08) rotate(-103.26) scale(1 1.57)" xlink:href="#_езымянный_градиент_1115"/><linearGradient id="_езымянный_градиент_692-3" x1="591.17" y1="-37.22" x2="593.75" y2="-37.22" gradientTransform="translate(280.8 602.7) rotate(-103.26)" xlink:href="#_езымянный_градиент_692"/><radialGradient id="_езымянный_градиент_1115-9" cx="436.31" cy="370.61" fx="436.31" fy="370.61" r="3.36" gradientTransform="translate(810.34 44.88) rotate(128.56) scale(1 1.57)" xlink:href="#_езымянный_градиент_1115"/><linearGradient id="_езымянный_градиент_1129-5" x1="435.44" y1="526.48" x2="438.02" y2="526.48" gradientTransform="translate(768.04 10.66) rotate(128.56)" xlink:href="#_езымянный_градиент_1129"/><radialGradient id="_езымянный_градиент_1115-10" cx="491.99" cy="382.78" fx="491.99" fy="382.78" r="3.36" gradientTransform="translate(810.34 44.88) rotate(128.56) scale(1 1.57)" xlink:href="#_езымянный_градиент_1115"/><linearGradient id="_езымянный_градиент_692-4" x1="491.13" y1="545.59" x2="493.71" y2="545.59" gradientTransform="translate(768.04 10.66) rotate(128.56)" xlink:href="#_езымянный_градиент_692"/><radialGradient id="_езымянный_градиент_1115-11" cx="103.95" cy="269.18" fx="103.95" fy="269.18" r="3.36" gradientTransform="translate(273.76 -304.27) rotate(49.72) scale(1 1.57)" xlink:href="#_езымянный_градиент_1115"/><linearGradient id="_езымянный_градиент_692-5" x1="102.47" y1="367.65" x2="105.05" y2="367.65" gradientTransform="translate(232.61 -269.16) rotate(49.72)" xlink:href="#_езымянный_градиент_692"/><radialGradient id="_езымянный_градиент_1115-12" cx="457.92" cy="338.27" fx="457.92" fy="338.27" r="3.36" gradientTransform="translate(810.34 44.88) rotate(128.56) scale(1 1.57)" xlink:href="#_езымянный_градиент_1115"/><linearGradient id="_езымянный_градиент_692-6" x1="457.05" y1="475.74" x2="459.63" y2="475.74" gradientTransform="translate(768.04 10.66) rotate(128.56)" xlink:href="#_езымянный_градиент_692"/><radialGradient id="_езымянный_градиент_1115-13" cx="483.6" cy="332.8" fx="483.6" fy="332.8" r="3.36" gradientTransform="translate(810.34 44.88) rotate(128.56) scale(1 1.57)" xlink:href="#_езымянный_градиент_1115"/><linearGradient id="_езымянный_градиент_692-7" x1="482.73" y1="467.16" x2="485.31" y2="467.16" gradientTransform="translate(768.04 10.66) rotate(128.56)" xlink:href="#_езымянный_градиент_692"/><radialGradient id="_езымянный_градиент_1115-14" cx="760.32" cy="148.22" fx="760.32" fy="148.22" r="3.36" gradientTransform="translate(793.89 515.68) rotate(-167.38) scale(1 1.57)" xlink:href="#_езымянный_градиент_1115"/><linearGradient id="_езымянный_градиент_692-8" x1="759.17" y1="177.34" x2="761.75" y2="177.34" gradientTransform="translate(805.94 462.42) rotate(-167.38)" xlink:href="#_езымянный_градиент_692"/><radialGradient id="_езымянный_градиент_1115-15" cx="555.45" cy="-112.78" fx="555.45" fy="-112.78" r="3.36" gradientTransform="translate(51.51 693.39) rotate(-74.14) scale(1 1.57)" xlink:href="#_езымянный_градиент_1115"/><linearGradient id="_езымянный_градиент_692-9" x1="554.35" y1="-232.05" x2="556.93" y2="-232.05" gradientTransform="translate(103.86 708.46) rotate(-74.14)" xlink:href="#_езымянный_градиент_692"/><radialGradient id="_езымянный_градиент_1115-16" cx="766.3" cy="203.05" fx="766.3" fy="203.05" r="3.36" gradientTransform="translate(793.89 515.68) rotate(-167.38) scale(1 1.57)" xlink:href="#_езымянный_градиент_1115"/><linearGradient id="_езымянный_градиент_692-10" x1="765.15" y1="263.36" x2="767.72" y2="263.36" gradientTransform="translate(805.94 462.42) rotate(-167.38)" xlink:href="#_езымянный_градиент_692"/><radialGradient id="_езымянный_градиент_1115-17" cx="786" cy="144.96" fx="786" fy="144.96" r="3.36" gradientTransform="translate(793.89 515.68) rotate(-167.38) scale(1 1.57)" xlink:href="#_езымянный_градиент_1115"/><linearGradient id="_езымянный_градиент_692-11" x1="784.84" y1="172.21" x2="787.42" y2="172.21" gradientTransform="translate(805.94 462.42) rotate(-167.38)" xlink:href="#_езымянный_градиент_692"/><radialGradient id="_езымянный_градиент_1115-18" cx="96.48" cy="251.41" fx="96.48" fy="251.41" r="3.36" gradientTransform="translate(380.85 -211.93) rotate(52.81) scale(1 1.57)" xlink:href="#_езымянный_градиент_1115"/><linearGradient id="_езымянный_градиент_692-12" x1="94.79" y1="338.8" x2="97.37" y2="338.8" gradientTransform="translate(337.24 -178.36) rotate(52.81)" xlink:href="#_езымянный_градиент_692"/><radialGradient id="_езымянный_градиент_1115-19" cx="701.18" cy="97.22" fx="701.18" fy="97.22" r="3.36" gradientTransform="translate(662.06 -357.32) rotate(136.37) scale(1 1.57)" xlink:href="#_езымянный_градиент_1115"/><linearGradient id="_езымянный_градиент_692-13" x1="699.5" y1="97.22" x2="702.08" y2="97.22" gradientTransform="translate(624.05 -396.65) rotate(136.37)" xlink:href="#_езымянный_градиент_692"/><radialGradient id="_езымянный_градиент_1115-20" cx="54.99" cy="118.82" fx="54.99" fy="118.82" r="3.36" gradientTransform="translate(25.68 -70.89) rotate(5.61) scale(1 1.57)" xlink:href="#_езымянный_градиент_1115"/><linearGradient id="_езымянный_градиент_692-14" x1="53.72" y1="131.05" x2="56.3" y2="131.05" gradientTransform="translate(20.31 -16.39) rotate(5.61)" xlink:href="#_езымянный_градиент_692"/><radialGradient id="_езымянный_градиент_1115-21" cx="101.82" cy="4.47" fx="101.82" fy="4.47" r="3.36" gradientTransform="translate(31.76 75.9) rotate(-11.15) scale(1 1.57)" xlink:href="#_езымянный_градиент_1115"/><linearGradient id="_езымянный_градиент_672-2" x1="100.61" y1="-48.29" x2="103.18" y2="-48.29" gradientTransform="translate(42.25 129.56) rotate(-11.15)" xlink:href="#_езымянный_градиент_672"/><radialGradient id="_езымянный_градиент_1115-22" cx="318.98" cy="-61.8" fx="318.98" fy="-61.8" r="3.36" gradientTransform="translate(9.26 395.48) rotate(-55.81) scale(1 1.57)" xlink:href="#_езымянный_градиент_1115"/><linearGradient id="_езымянный_градиент_692-15" x1="317.7" y1="-152.5" x2="320.28" y2="-152.5" gradientTransform="translate(54.68 426.34) rotate(-55.81)" xlink:href="#_езымянный_градиент_692"/><radialGradient id="_езымянный_градиент_1115-23" cx="516.5" cy="374.17" fx="516.5" fy="374.17" r="3.36" gradientTransform="translate(810.34 44.88) rotate(128.56) scale(1 1.57)" xlink:href="#_езымянный_градиент_1115"/><linearGradient id="_езымянный_градиент_692-16" x1="515.63" y1="532.06" x2="518.21" y2="532.06" gradientTransform="translate(768.04 10.66) rotate(128.56)" xlink:href="#_езымянный_градиент_692"/><radialGradient id="_езымянный_градиент_1115-24" cx="530.46" cy="352.43" fx="530.46" fy="352.43" r="3.36" gradientTransform="translate(810.34 44.88) rotate(128.56) scale(1 1.57)" xlink:href="#_езымянный_градиент_1115"/><linearGradient id="_езымянный_градиент_692-17" x1="529.6" y1="497.96" x2="532.18" y2="497.96" gradientTransform="translate(768.04 10.66) rotate(128.56)" xlink:href="#_езымянный_градиент_692"/><radialGradient id="_езымянный_градиент_1115-25" cx="143.87" cy="266.98" fx="143.87" fy="266.98" r="3.36" gradientTransform="translate(315.67 -262.25) rotate(56.87) scale(1 1.57)" xlink:href="#_езымянный_градиент_1115"/><linearGradient id="_езымянный_градиент_692-18" x1="142.49" y1="362.95" x2="145.07" y2="362.95" gradientTransform="translate(269.39 -231.96) rotate(56.87)" xlink:href="#_езымянный_градиент_692"/><radialGradient id="_езымянный_градиент_1115-26" cx="208.1" cy="-44.33" fx="208.1" fy="-44.33" r="3.36" gradientTransform="translate(-38.7 212.33) rotate(-37.15) scale(1 1.57)" xlink:href="#_езымянный_градиент_1115"/><linearGradient id="_езымянный_градиент_692-19" x1="206.69" y1="-124.26" x2="209.26" y2="-124.26" gradientTransform="translate(-5.94 255.36) rotate(-37.15)" xlink:href="#_езымянный_градиент_692"/><radialGradient id="_езымянный_градиент_1115-27" cx="231.08" cy="266.61" fx="231.08" fy="266.61" r="3.36" gradientTransform="translate(344.99 -293.44) rotate(60.2) scale(1 1.57)" xlink:href="#_езымянный_градиент_1115"/><linearGradient id="_езымянный_градиент_672-3" x1="229.63" y1="362.71" x2="232.21" y2="362.71" gradientTransform="translate(297.36 -265.99) rotate(60.2)" xlink:href="#_езымянный_градиент_672"/><radialGradient id="_езымянный_градиент_1115-28" cx="351.28" cy="-83.1" fx="351.28" fy="-83.1" r="3.36" gradientTransform="translate(-54.87 396.07) rotate(-42.94) scale(1 1.57)" xlink:href="#_езымянный_градиент_1115"/><linearGradient id="_езымянный_градиент_692-20" x1="350.24" y1="-185.2" x2="352.81" y2="-185.2" gradientTransform="translate(-18.13 435.92) rotate(-42.94)" xlink:href="#_езымянный_градиент_692"/><radialGradient id="_езымянный_градиент_1115-29" cx="694.12" cy="29.64" fx="694.12" fy="29.64" r="3.36" gradientTransform="translate(518.57 663.07) rotate(-132.3) scale(1 1.57)" xlink:href="#_езымянный_градиент_1115"/><linearGradient id="_езымянный_градиент_692-21" x1="693.02" y1="-9.06" x2="695.6" y2="-9.06" gradientTransform="translate(559.32 626.22) rotate(-132.3)" xlink:href="#_езымянный_градиент_692"/><radialGradient id="_езымянный_градиент_1115-30" cx="162.79" cy="248.68" fx="162.79" fy="248.68" r="3.36" gradientTransform="translate(344.99 -293.44) rotate(60.2) scale(1 1.57)" xlink:href="#_езымянный_градиент_1115"/><linearGradient id="_езымянный_градиент_672-4" x1="161.34" y1="334.59" x2="163.92" y2="334.59" gradientTransform="translate(297.36 -265.99) rotate(60.2)" xlink:href="#_езымянный_градиент_672"/><radialGradient id="_езымянный_градиент_1115-31" cx="355.14" cy="360.86" fx="355.14" fy="360.86" r="3.36" gradientTransform="translate(679.55 -173.77) rotate(102.46) scale(1 1.57)" xlink:href="#_езымянный_градиент_1115"/><linearGradient id="_езымянный_градиент_692-22" x1="353.16" y1="510.89" x2="355.73" y2="510.89" gradientTransform="translate(626 -184.94) rotate(102.46)" xlink:href="#_езымянный_градиент_692"/><radialGradient id="_езымянный_градиент_1115-32" cx="506.69" cy="347.78" fx="506.69" fy="347.78" r="3.36" gradientTransform="translate(811.67 -19.7) rotate(128.19) scale(1 1.57)" xlink:href="#_езымянный_градиент_1115"/><linearGradient id="_езымянный_градиент_692-23" x1="505.21" y1="490.02" x2="507.79" y2="490.02" gradientTransform="translate(768.31 -53.57) rotate(128.19)" xlink:href="#_езымянный_градиент_692"/><radialGradient id="_езымянный_градиент_1115-33" cx="130.91" cy="515.55" fx="130.91" fy="515.55" r="3.36" gradientTransform="translate(808.29 -215.77) rotate(81.71) scale(1 1.57)" xlink:href="#_езымянный_градиент_1115"/><linearGradient id="_езымянный_градиент_692-24" x1="129.48" y1="752.8" x2="132.05" y2="752.8" gradientTransform="translate(753.45 -207.65) rotate(81.71)" xlink:href="#_езымянный_градиент_692"/><radialGradient id="_езымянный_градиент_1115-34" cx="161.28" cy="284.42" fx="161.28" fy="284.42" r="3.36" gradientTransform="translate(369.98 -310.82) rotate(62.99) scale(1 1.57)" xlink:href="#_езымянный_градиент_1115"/><linearGradient id="_езымянный_градиент_1129-6" x1="160.44" y1="390.37" x2="163.02" y2="390.37" gradientTransform="translate(320.55 -286.12) rotate(62.99)" xlink:href="#_езымянный_градиент_1129"/><radialGradient id="_езымянный_градиент_1115-35" cx="144.65" cy="287.53" fx="144.65" fy="287.53" r="3.36" gradientTransform="translate(369.98 -310.82) rotate(62.99) scale(1 1.57)" xlink:href="#_езымянный_градиент_1115"/><linearGradient id="_езымянный_градиент_1129-7" x1="143.82" y1="395.24" x2="146.4" y2="395.24" gradientTransform="translate(320.55 -286.12) rotate(62.99)" xlink:href="#_езымянный_градиент_1129"/><radialGradient id="_езымянный_градиент_1115-36" cx="137.32" cy="278.99" fx="137.32" fy="278.99" r="3.36" gradientTransform="translate(344.99 -293.44) rotate(60.2) scale(1 1.57)" xlink:href="#_езымянный_градиент_1115"/><linearGradient id="_езымянный_градиент_672-5" x1="135.87" y1="382.14" x2="138.44" y2="382.14" gradientTransform="translate(297.36 -265.99) rotate(60.2)" xlink:href="#_езымянный_градиент_672"/><radialGradient id="_езымянный_градиент_1115-37" cx="185.25" cy="297.96" fx="185.25" fy="297.96" r="3.36" gradientTransform="translate(351.34 -319.91) rotate(53.62) scale(1 1.57)" xlink:href="#_езымянный_градиент_1115"/><linearGradient id="_езымянный_градиент_683" x1="183.65" y1="412.61" x2="186.23" y2="412.61" gradientTransform="translate(307.81 -287.48) rotate(53.62)" gradientUnits="userSpaceOnUse"><stop offset="0" stop-color="#00c5ff"/><stop offset=".23" stop-color="#00c2fb"/><stop offset=".45" stop-color="#00b9f0"/><stop offset=".66" stop-color="#00acdd"/><stop offset=".87" stop-color="#0098c3"/><stop offset="1" stop-color="#0089ae"/></linearGradient><radialGradient id="_езымянный_градиент_1115-38" cx="142.68" cy="267.88" fx="142.68" fy="267.88" r="3.36" gradientTransform="translate(351.34 -319.91) rotate(53.62) scale(1 1.57)" xlink:href="#_езымянный_градиент_1115"/><linearGradient id="_езымянный_градиент_1122" x1="141.08" y1="365.42" x2="143.66" y2="365.42" gradientTransform="translate(307.81 -287.48) rotate(53.62)" gradientUnits="userSpaceOnUse"><stop offset="0" stop-color="#ffa100"/><stop offset=".31" stop-color="#ff9d00"/><stop offset=".6" stop-color="#ff9200"/><stop offset=".87" stop-color="#ff7f00"/><stop offset="1" stop-color="#ff7400"/></linearGradient><radialGradient id="_езымянный_градиент_1115-39" cx="166.84" cy="307.85" fx="166.84" fy="307.85" r="3.36" gradientTransform="translate(351.34 -319.91) rotate(53.62) scale(1 1.57)" xlink:href="#_езымянный_градиент_1115"/><linearGradient id="_езымянный_градиент_683-2" x1="165.24" y1="428.13" x2="167.82" y2="428.13" xlink:href="#_езымянный_градиент_683"/><radialGradient id="_езымянный_градиент_1115-40" cx="138.57" cy="307.45" fx="138.57" fy="307.45" r="3.36" gradientTransform="translate(351.34 -319.91) rotate(53.62) scale(1 1.57)" xlink:href="#_езымянный_градиент_1115"/><linearGradient id="_езымянный_градиент_683-3" x1="136.97" y1="427.51" x2="139.54" y2="427.51" xlink:href="#_езымянный_градиент_683"/><radialGradient id="_езымянный_градиент_1115-41" cx="261.16" cy="-1.68" fx="261.16" fy="-1.68" r="3.36" gradientTransform="translate(-155.51 202.96) rotate(-36.6) scale(1 1.57)" xlink:href="#_езымянный_градиент_1115"/><linearGradient id="_езымянный_градиент_683-4" x1="259.32" y1="-57.82" x2="261.89" y2="-57.82" gradientTransform="translate(-122.53 246.43) rotate(-36.6)" xlink:href="#_езымянный_градиент_683"/><radialGradient id="_езымянный_градиент_1115-42" cx="223.37" cy="-8.1" fx="223.37" fy="-8.1" r="3.36" gradientTransform="translate(-155.51 202.96) rotate(-36.6) scale(1 1.57)" xlink:href="#_езымянный_градиент_1115"/><linearGradient id="_езымянный_градиент_683-5" x1="221.52" y1="-67.9" x2="224.1" y2="-67.9" gradientTransform="translate(-122.53 246.43) rotate(-36.6)" xlink:href="#_езымянный_градиент_683"/><radialGradient id="_езымянный_градиент_1115-43" cx="307.06" cy="20.68" fx="307.06" fy="20.68" r="3.36" gradientTransform="translate(-155.51 202.96) rotate(-36.6) scale(1 1.57)" xlink:href="#_езымянный_градиент_1115"/><linearGradient id="_езымянный_градиент_683-6" x1="305.21" y1="-22.75" x2="307.78" y2="-22.75" gradientTransform="translate(-122.53 246.43) rotate(-36.6)" xlink:href="#_езымянный_градиент_683"/><radialGradient id="_езымянный_градиент_1115-44" cx="514.84" cy="-32.81" fx="514.84" fy="-32.81" r="3.36" gradientTransform="translate(-22.64 518.38) rotate(-73.04) scale(1 1.57)" xlink:href="#_езымянный_градиент_1115"/><linearGradient id="_езымянный_градиент_1122-2" x1="513.4" y1="-106.64" x2="515.98" y2="-106.64" gradientTransform="translate(29.57 534.15) rotate(-73.04)" xlink:href="#_езымянный_градиент_1122"/><radialGradient id="_езымянный_градиент_1115-45" cx="107.6" cy="206.01" fx="107.6" fy="206.01" r="3.36" gradientTransform="translate(168.64 -298.29) rotate(25.49) scale(1 1.57)" xlink:href="#_езымянный_градиент_1115"/><linearGradient id="_езымянный_градиент_683-7" x1="106.63" y1="268.42" x2="109.21" y2="268.42" gradientTransform="translate(145.03 -249.48) rotate(25.49)" xlink:href="#_езымянный_градиент_683"/><radialGradient id="_езымянный_градиент_1115-46" cx="300.31" cy="10.45" fx="300.31" fy="10.45" r="3.36" gradientTransform="translate(-155.51 202.96) rotate(-36.6) scale(1 1.57)" xlink:href="#_езымянный_градиент_1115"/><linearGradient id="_езымянный_градиент_1122-3" x1="298.46" y1="-38.79" x2="301.04" y2="-38.79" gradientTransform="translate(-122.53 246.43) rotate(-36.6)" xlink:href="#_езымянный_градиент_1122"/><radialGradient id="_езымянный_градиент_1115-47" cx="861.17" cy="-222.79" fx="861.17" fy="-222.79" r="3.36" gradientTransform="translate(679.19 747.71) rotate(-106.31) scale(1 1.57)" xlink:href="#_езымянный_градиент_1115"/><linearGradient id="_езымянный_градиент_1122-4" x1="860.31" y1="-404.91" x2="862.89" y2="-404.91" gradientTransform="translate(731.83 732.77) rotate(-106.31)" xlink:href="#_езымянный_градиент_1122"/><radialGradient id="_езымянный_градиент_1115-48" cx="260.54" cy="42" fx="260.54" fy="42" r="3.36" gradientTransform="translate(-155.51 202.96) rotate(-36.6) scale(1 1.57)" xlink:href="#_езымянный_градиент_1115"/><linearGradient id="_езымянный_градиент_1122-5" x1="258.69" y1="10.7" x2="261.27" y2="10.7" gradientTransform="translate(-122.53 246.43) rotate(-36.6)" xlink:href="#_езымянный_градиент_1122"/><radialGradient id="_езымянный_градиент_1115-49" cx="727.09" cy="121.56" fx="727.09" fy="121.56" r="3.36" gradientTransform="translate(351 796.76) rotate(-123.73) scale(1 1.57)" xlink:href="#_езымянный_градиент_1115"/><linearGradient id="_езымянный_градиент_683-8" x1="725.59" y1="134.8" x2="728.16" y2="134.8" gradientTransform="translate(396.88 765.87) rotate(-123.73)" xlink:href="#_езымянный_градиент_683"/><radialGradient id="_езымянный_градиент_1115-50" cx="206.66" cy="251.39" fx="206.66" fy="251.39" r="3.36" gradientTransform="translate(328.71 -275.25) rotate(57.17) scale(1 1.57)" xlink:href="#_езымянный_градиент_1115"/><linearGradient id="_езымянный_градиент_753" x1="204.87" y1="338.34" x2="207.45" y2="338.34" gradientTransform="translate(282.37 -244.78) rotate(57.17)" gradientUnits="userSpaceOnUse"><stop offset="0" stop-color="#ff9d97"/><stop offset=".23" stop-color="#ff84a2"/><stop offset=".47" stop-color="#ff71ab"/><stop offset=".73" stop-color="#ff66b1"/><stop offset="1" stop-color="#ff63b3"/></linearGradient><radialGradient id="_езымянный_градиент_1115-51" cx="505.37" cy="341.82" fx="505.37" fy="341.82" r="3.36" gradientTransform="translate(857.78 -60.09) rotate(123.03) scale(1 1.57)" xlink:href="#_езымянный_градиент_1115"/><linearGradient id="_езымянный_градиент_753-2" x1="503.83" y1="480.69" x2="506.41" y2="480.69" gradientTransform="translate(811.54 -89.88) rotate(123.03)" xlink:href="#_езымянный_градиент_753"/><radialGradient id="_езымянный_градиент_1115-52" cx="136.36" cy="273.62" fx="136.36" fy="273.62" r="3.36" gradientTransform="translate(328.71 -275.25) rotate(57.17) scale(1 1.57)" xlink:href="#_езымянный_градиент_1115"/><linearGradient id="_езымянный_градиент_753-3" x1="134.57" y1="373.22" x2="137.14" y2="373.22" xlink:href="#_езымянный_градиент_753"/><radialGradient id="_езымянный_градиент_1115-53" cx="183.41" cy="39.68" fx="183.41" fy="39.68" r="3.36" gradientTransform="translate(-129.42 43.57) scale(1 1.57)" xlink:href="#_езымянный_градиент_1115"/><linearGradient id="_езымянный_градиент_753-4" x1="182.55" y1="7.15" x2="185.12" y2="7.15" gradientTransform="translate(-128.52 129.17) rotate(-9.71)" xlink:href="#_езымянный_градиент_753"/><radialGradient id="_езымянный_градиент_1115-54" cx="106.95" cy="243.33" fx="106.95" fy="243.33" r="3.36" gradientTransform="translate(328.71 -275.25) rotate(57.17) scale(1 1.57)" xlink:href="#_езымянный_градиент_1115"/><linearGradient id="_езымянный_градиент_753-5" x1="105.16" y1="325.7" x2="107.74" y2="325.7" xlink:href="#_езымянный_градиент_753"/><radialGradient id="_езымянный_градиент_1115-55" cx="198.93" cy="-74.62" fx="198.93" fy="-74.62" r="3.36" gradientTransform="translate(-26.51 319.52) rotate(-47.14) scale(1 1.57)" xlink:href="#_езымянный_градиент_1115"/><linearGradient id="_езымянный_градиент_692-25" x1="197.54" y1="-172.24" x2="200.12" y2="-172.24" xlink:href="#_езымянный_градиент_692"/><radialGradient id="_езымянный_градиент_1115-56" cx="520.64" cy="368.96" fx="520.64" fy="368.96" r="3.36" gradientTransform="translate(810.34 44.88) rotate(128.56) scale(1 1.57)" xlink:href="#_езымянный_градиент_1115"/><linearGradient id="_езымянный_градиент_692-26" x1="519.78" y1="523.9" x2="522.35" y2="523.9" gradientTransform="translate(768.04 10.66) rotate(128.56)" xlink:href="#_езымянный_градиент_692"/><radialGradient id="_езымянный_градиент_1115-57" cx="127" cy="-29.48" fx="127" fy="-29.48" r="3.36" gradientTransform="translate(-38.7 212.33) rotate(-37.15) scale(1 1.57)" xlink:href="#_езымянный_градиент_1115"/><linearGradient id="_езымянный_градиент_692-27" x1="125.6" y1="-100.96" x2="128.17" y2="-100.96" gradientTransform="translate(-5.94 255.36) rotate(-37.15)" xlink:href="#_езымянный_градиент_692"/><radialGradient id="_езымянный_градиент_1115-58" cx="204.37" cy="298.73" fx="204.37" fy="298.73" r="3.36" gradientTransform="translate(344.99 -293.44) rotate(60.2) scale(1 1.57)" xlink:href="#_езымянный_градиент_1115"/><linearGradient id="_езымянный_градиент_672-6" x1="202.91" y1="413.11" x2="205.49" y2="413.11" gradientTransform="translate(297.36 -265.99) rotate(60.2)" xlink:href="#_езымянный_градиент_672"/><radialGradient id="_езымянный_градиент_1115-59" cx="514.84" cy="302.94" fx="514.84" fy="302.94" r="3.36" gradientTransform="translate(811.67 -19.7) rotate(128.19) scale(1 1.57)" xlink:href="#_езымянный_градиент_1115"/><linearGradient id="_езымянный_градиент_692-28" x1="513.36" y1="419.66" x2="515.94" y2="419.66" gradientTransform="translate(768.31 -53.57) rotate(128.19)" xlink:href="#_езымянный_градиент_692"/><radialGradient id="_езымянный_градиент_1115-60" cx="-246.94" cy="55.78" fx="-246.94" fy="55.78" r="3.36" gradientTransform="translate(266.64 -9.97) rotate(1.62) scale(1 1.57)" xlink:href="#_езымянный_градиент_1115"/><linearGradient id="_езымянный_градиент_692-29" x1="-247.61" y1="32.16" x2="-245.03" y2="32.16" gradientTransform="translate(264.48 44.74) rotate(1.62)" xlink:href="#_езымянный_градиент_692"/><radialGradient id="_езымянный_градиент_1115-61" cx="177.29" cy="321.88" fx="177.29" fy="321.88" r="3.36" gradientTransform="translate(351.34 -319.91) rotate(53.62) scale(1 1.57)" xlink:href="#_езымянный_градиент_1115"/><linearGradient id="_езымянный_градиент_1122-6" x1="175.69" y1="450.16" x2="178.27" y2="450.16" xlink:href="#_езымянный_градиент_1122"/><radialGradient id="_езымянный_градиент_1115-62" cx="303.4" cy="46.9" fx="303.4" fy="46.9" r="3.36" gradientTransform="translate(-155.51 202.96) rotate(-36.6) scale(1 1.57)" xlink:href="#_езымянный_градиент_1115"/><linearGradient id="_езымянный_градиент_683-9" x1="301.55" y1="18.4" x2="304.13" y2="18.4" gradientTransform="translate(-122.53 246.43) rotate(-36.6)" xlink:href="#_езымянный_градиент_683"/><radialGradient id="_езымянный_градиент_1115-63" cx="435.48" cy="-51.07" fx="435.48" fy="-51.07" r="3.36" gradientTransform="translate(-22.64 518.38) rotate(-73.04) scale(1 1.57)" xlink:href="#_езымянный_градиент_1115"/><linearGradient id="_езымянный_градиент_1122-7" x1="434.05" y1="-135.29" x2="436.63" y2="-135.29" gradientTransform="translate(29.57 534.15) rotate(-73.04)" xlink:href="#_езымянный_градиент_1122"/><radialGradient id="_езымянный_градиент_1115-64" cx="232.09" cy="25.05" fx="232.09" fy="25.05" r="3.36" gradientTransform="translate(-155.51 202.96) rotate(-36.6) scale(1 1.57)" xlink:href="#_езымянный_градиент_1115"/><linearGradient id="_езымянный_градиент_1122-8" x1="230.24" y1="-15.89" x2="232.81" y2="-15.89" gradientTransform="translate(-122.53 246.43) rotate(-36.6)" xlink:href="#_езымянный_градиент_1122"/><radialGradient id="_езымянный_градиент_1115-65" cx="136.3" cy="293.75" fx="136.3" fy="293.75" r="3.36" gradientTransform="translate(328.71 -275.25) rotate(57.17) scale(1 1.57)" xlink:href="#_езымянный_градиент_1115"/><linearGradient id="_езымянный_градиент_753-6" x1="134.51" y1="404.8" x2="137.08" y2="404.8" xlink:href="#_езымянный_градиент_753"/><radialGradient id="_езымянный_градиент_1115-66" cx="127.01" cy="266.54" fx="127.01" fy="266.54" r="3.36" gradientTransform="translate(328.71 -275.25) rotate(57.17) scale(1 1.57)" xlink:href="#_езымянный_градиент_1115"/><linearGradient id="_езымянный_градиент_753-7" x1="125.22" y1="362.1" x2="127.8" y2="362.1" xlink:href="#_езымянный_градиент_753"/><radialGradient id="_езымянный_градиент_1115-67" cx="526.79" cy="332.33" fx="526.79" fy="332.33" r="3.36" gradientTransform="translate(840.92 -13.2) rotate(130.09) scale(1 1.57)" xlink:href="#_езымянный_градиент_1115"/><linearGradient id="_езымянный_градиент_753-8" x1="525.33" y1="466.21" x2="527.9" y2="466.21" gradientTransform="translate(799.04 -48.24) rotate(130.09)" xlink:href="#_езымянный_градиент_753"/><radialGradient id="_езымянный_градиент_1115-68" cx="204.87" cy="237" fx="204.87" fy="237" r="3.36" gradientTransform="translate(207.65 -285.59) rotate(52.36) scale(1 1.57)" xlink:href="#_езымянный_градиент_1115"/><linearGradient id="_езымянный_градиент_753-9" x1="203.69" y1="316.55" x2="206.27" y2="316.55" gradientTransform="translate(164.27 -252.28) rotate(52.36)" xlink:href="#_езымянный_градиент_753"/><radialGradient id="_езымянный_градиент_1115-69" cx="379.58" cy="-53.61" fx="379.58" fy="-53.61" r="3.36" gradientTransform="translate(-113.77 452.89) rotate(-49.48) scale(1 1.57)" xlink:href="#_езымянный_градиент_1115"/><linearGradient id="_езымянный_градиент_753-10" x1="378.05" y1="-139.88" x2="380.62" y2="-139.88" gradientTransform="translate(-71.69 488.53) rotate(-49.48)" xlink:href="#_езымянный_градиент_753"/><radialGradient id="_езымянный_градиент_1115-70" cx="741.68" cy="-13.47" fx="741.68" fy="-13.47" r="3.36" gradientTransform="translate(353.54 722.33) rotate(-113.2) scale(1 1.57)" xlink:href="#_езымянный_градиент_1115"/><linearGradient id="_езымянный_градиент_753-11" x1="739.91" y1="-76.78" x2="742.49" y2="-76.78" gradientTransform="translate(403.92 700.2) rotate(-113.2)" xlink:href="#_езымянный_градиент_753"/></defs><g class="cls-104"><g id="Layer_2"><g id="objects"><g><path class="cls-100" d="M23.98,21.23C37.35,8.21,54.12,0,74.27,0c6.3,0,12.79,.51,19.08,1.66,5.24,.96,10.34,2.37,15.06,4.3,3.43,1.41,6.67,3.08,9.62,5.08,19.76,13.35,30.52,37.59,30.52,63.22,0,3.5-.49,6.92-1.24,10.29,0,0-.01,.05-.03,.17-.77,3.37-1.82,6.67-2.93,9.89-.01,.03-.02,.05-.03,.08-.08,.23-.16,.45-.24,.68-.01,.03-.03,.06-.04,.1-.45,1.31-.93,2.61-1.39,3.89-2.96,8.26-6.84,15.84-11.92,22.45h-.01c-3.73,4.87-8.11,9.2-13.27,12.88-9.51,6.8-20.7,8.15-32.83,8.41-3.38,.07-6.84,1.45-10.34,1.45-11.88,0-23.12-2.9-33.08-6.57-10.46-3.84-19.52-10.04-26.46-19.33-2.23-3-4.26-6.17-6.03-9.49-.42-.78-.82-1.56-1.21-2.36C3.35,98.34,.79,85.44,.16,74.56c-.01-.24-.03-.47-.04-.67-.07-1.51-.11-2.98-.11-4.38C0,48.62,10.11,34.72,23.98,21.23Zm51.65,29.26c-9.02,0-18.3,3.43-22.73,10.58-2.37,3.83-3.74,8.36-3.74,13.19,0,13.87,11.24,21.68,25.11,21.68,7.56,0,14.37-1.9,18.98-7.2,3.84-4.41,6.12-8.19,6.12-14.49,0-13.87-9.87-23.77-23.73-23.77Z"/><path class="cls-80" d="M118.02,11.05c-2.95-2-6.18-3.67-9.62-5.08-4.72-1.93-9.81-3.34-15.06-4.3C87.06,.51,80.57,0,74.27,0,54.13,0,37.36,8.22,23.99,21.24,10.12,34.73,0,48.63,0,69.51,0,81.18,2.69,96.99,7.49,106.82c.39,.8,.79,1.58,1.21,2.36,1.77,3.32,3.8,6.49,6.03,9.49,6.94,9.29,16,15.49,26.46,19.33,9.96,3.67,19.02-1.48,30.9-1.48,3.51,0,9.14,6.67,12.52,6.6,12.13-.26,21.25-4.56,30.76-11.36,5.16-3.68,11.6-5.06,15.34-9.92h.01c5.09-6.62,8.97-14.2,11.92-22.46,.55-1.54,1.12-3.09,1.66-4.67,.01-.03,.02-.05,.03-.08,2.23-6.46,4.2-13.29,4.2-20.34,0-25.63-10.75-49.87-30.52-63.22Zm-24.79,77.7c-4.6,5.29-11.41,7.21-18.96,7.21-13.87,0-25.11-7.82-25.11-21.68,0-4.84,1.38-9.37,3.74-13.19,4.43-7.15,13.71-10.58,22.73-10.58,13.87,0,23.73,9.91,23.73,23.77,0,6.3-2.3,10.07-6.13,14.48Z"/><g class="cls-51"><path class="cls-141" d="M72.77,28.86c.05,.33,.19,.66,.01,.92-.11,.16-.42,.33-.6,.42-.56,.26-1.21,.39-1.79,.62-.38,.15-.75,.27-1.17,.24-.4-.03-.68-.41-.78-.79-.21-.81,.45-2.05,1.17-2.45,.33-.18,.82-.21,1.18-.21,.75,0,1.3,.37,1.96,1.26Z"/><path class="cls-141" d="M127.53,113.6c.05,.33,.19,.66,.01,.92-.11,.16-.42,.33-.6,.42-.56,.26-1.21,.39-1.79,.62-.38,.15-.75,.27-1.17,.24-.4-.03-.68-.41-.78-.79-.21-.81,.45-2.05,1.17-2.45,.33-.18,.82-.21,1.18-.21,.75,0,1.3,.37,1.96,1.26Z"/><path class="cls-141" d="M93.61,26.87c.26-.21,.79-.56,.92-.93,.09-.27-.17-.37-.4-.32-.36,.08-.94,.93-.52,1.25h0Z"/><path class="cls-141" d="M59.97,23.52c.78,1.6,1.19,3.08,1.57,4.8,.41,1.9-.81,2.5-2.46,2.97-3.75,1.07-9.6,2.79-12.54-.99-1.92-2.47-1.31-7.05,1.51-8.71,1.69-1,4.25-.73,6.13-.69,1.98,.05,3.72,.56,5.8,2.61Z"/><path class="cls-141" d="M59.02,130.9c.44,.9,.67,1.73,.88,2.69,.23,1.06-.45,1.4-1.38,1.67-2.11,.6-5.39,1.57-7.04-.55-1.08-1.39-.74-3.96,.85-4.89,.95-.56,2.38-.41,3.44-.39,1.11,.03,2.09,.32,3.26,1.46Z"/><path class="cls-141" d="M57.74,40.45c-.03-.21,0-.69-.12-.88-.07-.11-.33-.2-.44-.26-.24-.13-.51-.26-.78-.22-.5,.09-.75,.64-.74,1.09,0,.28-.09,.78,.12,.99,.11,.11,.37,.16,.53,.18,.51,.08,.93-.28,1.42-.3v-.62Z"/><path class="cls-141" d="M30.34,30.61c-.03-.21,0-.69-.12-.88-.07-.11-.33-.2-.44-.26-.24-.13-.51-.26-.78-.22-.5,.09-.74,.64-.74,1.09,0,.28-.09,.77,.12,.99,.11,.11,.37,.16,.53,.18,.51,.08,.93-.28,1.42-.3v-.62Z"/><path class="cls-141" d="M63.51,40.56c.39,.7,.68,1.4,.85,2.19,.09,.44,.22,1.22-.22,1.54-.44,.32-1.15,.25-1.66,.21-.54-.04-1.09-.11-1.56-.4-.34-.21-.67-.44-.85-.81-.21-.44-.13-1.09-.01-1.54,.19-.72,1.01-1.26,1.71-1.41,.26-.06,1.48-.3,1.74,.23Z"/><path class="cls-141" d="M64.82,35.4c.23-.2,.88-.61,.61-1.05-.15-.24-.71-.07-.92-.02-.16,.04-.62,.23-.64,.44-.02,.17,.62,.52,.75,.52l.21,.1Z"/><path class="cls-141" d="M79.09,30.28c.47,.49,1.51,1.54,.57,2.07-.57,.32-1.43,.3-2.06,.3-.64,0-1.68-.08-2.12-.63-.57-.71-.21-1.81,.49-2.28,.83-.56,1.88-.58,2.61,.12l.52,.42Z"/><path class="cls-141" d="M144.13,49.92c.47,.49,1.51,1.54,.57,2.07-.57,.32-1.43,.3-2.06,.3-.64,0-1.68-.08-2.12-.63-.57-.71-.21-1.81,.49-2.28,.83-.56,1.88-.58,2.61,.12l.52,.42Z"/><path class="cls-141" d="M40.45,13.27c.66-.52,1.34-.91,1.27-1.84-.07-.84-.96-.96-1.64-.78-.68,.18-1.12,.66-1.24,1.36-.14,.86,.28,1.23,1.06,1.43l.54-.18Z"/><path class="cls-141" d="M31.2,34.7c.24,.29,1.42,1.24,.83,1.6-.22,.13-.91,0-1.14,0-.36,0-.73,.02-1.09,0-.49-.02-.71-.22-.44-.72,.24-.46,.96-.8,1.49-.72l.36-.18Z"/><path class="cls-141" d="M29.13,22.1c.24,.29,1.42,1.24,.83,1.6-.22,.13-.91,0-1.14,0-.36,0-.73,.02-1.09,0-.49-.02-.71-.22-.44-.72,.24-.46,.96-.8,1.49-.72l.36-.18Z"/><path class="cls-141" d="M58.16,13.39c.24-.26,.76-.7,.73-1.15-.02-.36-.41-.31-.68-.21-.31,.12-.58,.36-.72,.67-.19,.41,0,.45,.26,.69h.42Z"/><path class="cls-141" d="M94.02,12.47c.03,.06,.67,1.17,.1,1.14-.2-.01-.6-.39-.75-.49-.28-.19-.47-.37-.65-.66-.17-.26-.25-.48,.06-.65,.41-.22,.77,.14,1.04,.45l.21,.21Z"/><path class="cls-141" d="M141.69,41.16c.03,.06,.67,1.17,.1,1.14-.2-.01-.6-.39-.75-.49-.28-.19-.47-.37-.65-.66-.17-.26-.25-.48,.06-.65,.41-.22,.77,.14,1.04,.45l.21,.21Z"/><path class="cls-141" d="M67.61,13.84c.21-.48,.4-.75,.27-1.24-.13-.51-.44-1.04-.85-1.37-.74-.59-1.75-.88-2.65-.49-.69,.29-1.1,.9-1.4,1.55-.18,.39-.33,.74-.54,1.12-.11,.2-.3,.31-.36,.52-.06,.02-.09,.06-.08,.12,.07,.09,.16,.16,.25,.22,.31,.22,.69,.32,1.05,.42,.67,.19,1.28,.16,1.94,0,.68-.17,1.46-.27,2.36-.84Z"/><path class="cls-141" d="M42.42,19.72c.46,.39,1.54,1.21,1.37,2.02-.17,.83-1.61,.37-2.06,.13-.4-.22-.86-.57-.76-1.08,.14-.64,.71-.72,1.27-.72l.18-.36Z"/><path class="cls-141" d="M49.56,40.43c0-.79-.04-1.59,.06-2.38,.11-.87,.37-1.84,.15-2.7-.1-.39-.22-.74-.62-.88-.69-.23-1.6-.1-2.27,.11-.66,.22-1.34,.58-1.75,1.18-.42,.62-.18,1.41,.16,2.01,.31,.54,.54,1.13,.99,1.55,.76,.72,1.95,1.2,3.28,1.09Z"/><path class="cls-141" d="M45.99,30.91c.35,.45,.68,.92,.35,1.48-.25,.43-.89,.61-1.33,.33-.3-.19-.24-.52-.14-.83,.07-.24,.14-.25,.3-.39,.11-.09,.26-.3,.42-.3l.4-.3Z"/><path class="cls-141" d="M44.4,36.76c.27,.42,.65,.95,.28,1.45-.17,.23-.51,.37-.74,.19-.3-.24-.59-.87-.62-1.26-.03-.31,.34-.81,.68-.79l.4,.4Z"/><path class="cls-141" d="M76.82,44.17c.07,.08,.26,.24,.3,.36,.03,.12,0,.39-.07,.5-.16,.27-.54,.19-.74,0-.19-.18-.28-.44-.19-.69,.09-.25,.35-.51,.64-.46l.06,.29Z"/><path class="cls-141" d="M52.88,18.35c.11,.04,.28,.08,.36,.18,.07,.09,.11,.27,.16,.37,.08,.17,.21,.35,.02,.49-.15,.11-.39,.05-.55,0-.23-.06-.56-.16-.71-.36-.17-.23-.28-.55-.32-.83-.02-.16,.1-.27,.23-.36,.24-.17,.44-.12,.69,0l.11,.52Z"/><path class="cls-141" d="M80.52,32.39c-.01,.34-.03,.8-.41,.96-.21,.09-.39-.02-.49-.21-.23-.44,.09-1.17,.61-1.21l.29,.46Z"/><path class="cls-141" d="M59.01,20.68c-.13,.29-.21,.52-.55,.56-.38,.05-.66-.22-.83-.53-.13-.24-.2-.54-.02-.78,.25-.32,.71-.25,1.05-.18l.34,.92Z"/><path class="cls-141" d="M96.16,17.45c.3,.24,.52,.47,.65,.85,.17,.5,.19,1.05-.08,1.52-.49,.84-1.74,1.56-2.7,1.13-1.02-.46-1.53-2.15-.69-3,.43-.43,.99-.69,1.58-.81,.64-.12,1.11,.08,1.24,.3Z"/><path class="cls-141" d="M145.27,66.9c.3,.24,.52,.47,.65,.85,.17,.5,.19,1.05-.08,1.52-.49,.84-1.74,1.56-2.7,1.13-1.02-.46-1.53-2.15-.69-3,.43-.43,.99-.69,1.58-.81,.64-.12,1.11,.08,1.24,.3Z"/><path class="cls-141" d="M143.26,89c.3,.24,.52,.47,.65,.85,.17,.5,.19,1.05-.08,1.52-.49,.84-1.74,1.56-2.7,1.13-1.02-.46-1.53-2.15-.69-3,.43-.43,.99-.69,1.58-.81,.64-.12,1.11,.08,1.24,.3Z"/><path class="cls-141" d="M44.33,21.6c.15,.19,.28,.34,.33,.57,.04,.21,.09,.49,.08,.7,0,.46-.44,.76-.87,.63-.12-.03-.31-.09-.4-.19-.12-.13-.08-.43-.04-.58,.05-.2,.18-.38,.34-.51,.09-.07,.32-.28,.45-.28l.11-.34Z"/><path class="cls-141" d="M34.16,16.08c.59,.08,.86,.12,1.27,.58,.31,.35,.72,.91,.7,1.41-.02,.53-.52,1.03-.93,1.3-.48,.31-1.24,.61-1.82,.68-.42,.05-.75-.15-.99-.49-.25-.36-.23-.71-.12-1.12,.13-.49,.28-.99,.63-1.37,.28-.3,.83-.75,1.26-.99Z"/><path class="cls-141" d="M34.13,129.79c-.18-.12-.51-.46-.74-.49-.13-.02-.36,.12-.48,.16-.25,.1-.53,.21-.68,.45-.26,.44,0,.98,.34,1.27,.21,.18,.53,.58,.83,.56,.16,0,.37-.18,.49-.28,.4-.33,.4-.89,.71-1.27l-.47-.41Z"/><path class="cls-141" d="M27.68,110.79c.04-.84,.19-1.61-.55-2.16-.68-.5-1.35,.09-1.66,.72-.31,.63-.24,1.28,.22,1.83,.56,.67,1.11,.59,1.78,.14l.22-.52Z"/><path class="cls-141" d="M37.79,131.83c.38,.01,1.87-.26,1.75,.43-.04,.25-.59,.69-.74,.87-.24,.27-.46,.56-.71,.83-.34,.36-.63,.39-.83-.14-.19-.49,.02-1.25,.44-1.6l.1-.39Z"/><path class="cls-141" d="M26.91,125.12c.38,.01,1.87-.26,1.75,.43-.04,.25-.59,.69-.74,.87-.24,.27-.46,.56-.71,.83-.34,.36-.63,.39-.83-.14-.19-.49,.02-1.25,.44-1.6l.1-.39Z"/><path class="cls-141" d="M33.84,113.53c.6-.09,1.92-.37,2.43,.29,.51,.67-.78,1.46-1.25,1.64-.43,.16-1,.28-1.31-.14-.4-.53-.08-1.01,.29-1.43l-.15-.37Z"/><path class="cls-141" d="M48,123.21c.49,.07,1.14,.13,1.28,.74,.07,.28-.05,.63-.34,.68-.38,.07-1.04-.13-1.36-.35-.25-.18-.39-.79-.15-1.03l.56-.04Z"/><path class="cls-141" d="M36.51,113.32c.24,.02,.44,0,.65,.13,.18,.1,.42,.25,.58,.39,.34,.31,.28,.83-.1,1.08-.1,.07-.27,.17-.4,.18-.18,0-.38-.22-.47-.35-.11-.17-.17-.39-.16-.59,0-.12,0-.43,.08-.52l-.18-.31Z"/><path class="cls-141" d="M25.67,117.38c.45-.39,.66-.57,1.26-.58,.47,0,1.16,.05,1.52,.4,.39,.36,.44,1.07,.37,1.56-.08,.57-.36,1.34-.68,1.82-.24,.35-.6,.47-1.02,.43-.44-.04-.69-.29-.92-.64-.28-.42-.57-.86-.62-1.38-.04-.41-.02-1.12,.08-1.6Z"/><path class="cls-141" d="M90.62,28.55s.07,.05,.09,.08c0,.03,.02,.05,.04,.08,.06,.12,.14,.23,.22,.34,.06,.09,.13,.16,.23,.21,.09,.05,.2,.07,.3,.06,.29-.02,.54-.28,.64-.54,.11-.31,0-.66-.21-.9-.18-.2-.43-.29-.7-.29-.2,0-.43,.06-.56,.23-.17,.21-.03,.45-.05,.72Z"/><path class="cls-141" d="M138.45,97.58s.07,.05,.09,.08c0,.03,.02,.05,.04,.08,.06,.12,.14,.23,.22,.34,.06,.09,.13,.16,.23,.21,.09,.05,.2,.07,.3,.06,.29-.02,.54-.28,.64-.54,.11-.31,0-.66-.21-.9-.18-.2-.43-.29-.7-.29-.2,0-.43,.06-.56,.23-.17,.21-.03,.45-.05,.72Z"/><path class="cls-141" d="M64.64,25.56c.27-.04,.42-.14,.61,.03,.19,.17,.37,.37,.48,.6,.09,.2,.14,.35-.09,.45-.21,.1-.51,.1-.73,.06-.26-.04-.7-.23-.78-.51-.03-.12,0-.2,.06-.3,.13-.23,.25-.33,.51-.33h-.06Z"/><path class="cls-141" d="M64.01,29.01c.1,.11,.21,.27,.34,.35,.2,.13,.43,.19,.63,.34,.3,.21,.64,.49,.78,.84,.12,.3,.22,.67-.03,.94-.23,.24-.54,.32-.86,.29-.3-.02-.61-.09-.86-.26-.28-.18-.59-.32-.7-.65-.09-.29,.01-.51,.14-.77,.08-.17,.27-.6,.56-1.08Z"/><path class="cls-141" d="M136.03,34.98c.1,.11,.21,.27,.34,.35,.2,.13,.43,.19,.63,.34,.3,.21,.64,.49,.78,.84,.12,.3,.22,.67-.03,.94-.23,.24-.54,.32-.86,.29-.3-.02-.61-.09-.86-.26-.28-.18-.59-.32-.7-.65-.09-.29,.01-.51,.14-.77,.08-.17,.27-.6,.56-1.08Z"/><path class="cls-141" d="M67.43,43.26c.12,.16,.27,.27,.22,.46-.04,.15-.17,.32-.3,.4-.41,.22-1.09,0-1.44-.23-.25-.16-.48-.38-.32-.69,.26-.52,.95-.37,1.38-.17l.46,.23Z"/><path class="cls-141" d="M68.21,21.29c-.23,.83-.25,1.64,.05,2.47,.12,.33,.27,.67,.6,.84,.29,.15,.61,.06,.9-.02,.79-.21,1.67-.76,2.01-1.53,.18-.42,.31-.89,.28-1.35-.03-.51-.23-1-.43-1.47-.29-.68-.78-1.57-1.6-1.7-.7-.11-1.24,.27-1.47,.92-.14,.39-.21,.79-.3,1.19-.07,.31-.15,.5-.06,.65Z"/><path class="cls-141" d="M103.48,7.98c.38,.12,.72,.26,1.09,.38,.48,.16,1,.35,1.29,.8,.54,.85-.92,1.32-1.49,1.38-.56,.06-1.64,.14-2-.45-.42-.68,.47-1.32,1.01-1.52l.1-.6Z"/><path class="cls-141" d="M86.14,33.24c.2,.29,.29,.42,.4,.76,.19,.61,.31,1.23,.22,1.88-.08,.59-.29,1.12-.73,1.53-.28,.27-.59,.49-.94,.65-.74,.34-1.73,.38-2.37-.18-.5-.44-.67-1.16-.86-1.76-.08-.25-.11-.51-.22-.74-.1-.23-.23-.45-.27-.7-.09-.59,.57-1.08,1.05-1.23,.32-.1,.61-.24,.92-.37,.36-.16,.75-.27,1.13-.39,.37-.12,.67-.18,1.03-.01,.38,.18,.68,.47,.63,.58Z"/><path class="cls-141" d="M141.38,43.48c.2,.29,.29,.42,.4,.76,.19,.62,.31,1.23,.22,1.88-.08,.59-.29,1.12-.73,1.53-.28,.27-.59,.49-.94,.65-.74,.34-1.73,.38-2.37-.18-.5-.44-.67-1.16-.86-1.76-.08-.25-.11-.51-.22-.74-.1-.23-.23-.45-.27-.7-.09-.59,.57-1.08,1.05-1.23,.32-.1,.61-.24,.92-.37,.36-.16,.75-.27,1.13-.39,.37-.12,.67-.18,1.03-.01,.38,.18,.68,.47,.63,.58Z"/><path class="cls-141" d="M135.78,106.49c.2,.29,.29,.42,.4,.76,.19,.62,.31,1.23,.22,1.88-.08,.59-.29,1.12-.73,1.53-.28,.27-.59,.49-.94,.65-.74,.34-1.73,.38-2.37-.18-.5-.44-.67-1.16-.86-1.76-.08-.25-.11-.51-.22-.74-.1-.23-.23-.45-.27-.7-.09-.59,.57-1.08,1.05-1.23,.32-.1,.61-.24,.92-.37,.36-.16,.75-.27,1.13-.39,.37-.12,.67-.18,1.03-.01,.38,.18,.68,.47,.63,.58Z"/><path class="cls-141" d="M71.19,37.29c.16,.11,.35,.18,.42,.35,.06,.13,.11,.3,.09,.44-.02,.12-.1,.31-.22,.37-.16,.09-.36-.04-.48-.13-.22-.16-.68-.47-.62-.8,.05-.25,.22-.37,.4-.52l.4,.29Z"/><path class="cls-141" d="M141.48,74.81c.04,.27,.15,.54,.01,.76-.09,.13-.35,.27-.5,.34-.46,.22-1,.32-1.47,.51-.32,.13-.62,.22-.96,.2-.33-.02-.56-.34-.64-.66-.18-.67,.37-1.69,.97-2.02,.27-.15,.68-.17,.98-.17,.62,0,1.08,.3,1.62,1.04Z"/><path class="cls-141" d="M146.7,75.98c.39,.41,1.25,1.27,.47,1.71-.47,.27-1.18,.25-1.7,.25-.53,0-1.39-.07-1.75-.52-.47-.59-.17-1.49,.4-1.88,.68-.47,1.55-.48,2.15,.1l.43,.34Z"/><path class="cls-141" d="M144.83,87.45c.05,.06,.22,.2,.24,.3,.03,.1,0,.32-.06,.41-.13,.23-.44,.15-.61,0-.16-.15-.23-.36-.16-.57,.07-.21,.29-.42,.53-.38l.05,.24Z"/><path class="cls-141" d="M137.07,86.7c.1,.13,.23,.22,.19,.38-.03,.13-.14,.27-.25,.33-.34,.18-.9,0-1.19-.19-.2-.13-.39-.31-.26-.57,.22-.43,.78-.3,1.14-.14l.38,.19Z"/><path class="cls-141" d="M137.71,68.56c-.19,.69-.21,1.36,.04,2.04,.1,.27,.23,.55,.5,.69,.24,.12,.5,.05,.75-.02,.66-.17,1.38-.62,1.66-1.26,.15-.34,.25-.73,.23-1.11-.03-.43-.19-.83-.35-1.21-.24-.56-.65-1.3-1.32-1.4-.58-.09-1.02,.22-1.22,.76-.12,.33-.17,.65-.24,.99-.05,.26-.12,.41-.05,.53Z"/><path class="cls-141" d="M140.18,81.77c.13,.09,.29,.15,.35,.29,.05,.11,.09,.25,.08,.36-.01,.1-.08,.26-.18,.31-.13,.07-.29-.04-.4-.11-.18-.13-.56-.39-.51-.66,.04-.21,.19-.3,.33-.43l.33,.24Z"/></g><path class="cls-18" d="M.16,74.56c.63,10.88,3.2,23.78,7.33,32.25,.39,.8,.79,1.58,1.21,2.36,1.77,3.32,3.8,6.49,6.03,9.49,6.94,9.29,16,15.49,26.46,19.33,9.96,3.67,21.2,6.57,33.08,6.57,3.51,0,6.96-1.38,10.34-1.45,12.13-.26,23.32-1.6,32.83-8.41,5.16-3.68,9.53-8.01,13.27-12.87h.01c5.09-6.62,8.97-14.2,11.92-22.46,.45-1.28,.93-2.57,1.39-3.89-6.51,16.31-20.85,45.51-74.49,45.16C9.19,140.24,1.21,87.77,.16,74.56Z"/><path class="cls-110" d="M140.98,59.77c-3.04-33.99-35.35-53.83-69.93-51.73C36.47,10.13,17.66,30.16,11.13,52.34c-6.54,22.17,2.6,45.13,9.66,56.48,15.4,24.75,54.39,35.64,85.69,21.76,27.56-12.23,37.54-36.82,34.5-70.81Zm-47.74,28.99c-4.6,5.29-11.41,7.21-18.96,7.21-13.87,0-25.11-7.82-25.11-21.68,0-4.84,1.38-9.37,3.74-13.19,4.43-7.15,13.71-10.58,22.73-10.58,13.87,0,23.73,9.91,23.73,23.77,0,6.3-2.3,10.07-6.13,14.48Z"/><path class="cls-31" d="M140.98,59.77c-3.04-33.99-35.35-51.73-69.93-49.63C36.47,12.24,17.66,30.16,11.13,52.34c-6.54,22.17,2.6,45.13,9.66,56.48,15.4,24.75,54.39,35.64,85.69,21.76,27.56-12.23,37.54-36.82,34.5-70.81Zm-47.74,28.99c-4.6,5.29-11.41,7.21-18.96,7.21-13.87,0-25.11-7.82-25.11-21.68,0-4.84,1.38-9.37,3.74-13.19,4.43-7.15,13.71-10.58,22.73-10.58,13.87,0,23.73,9.91,23.73,23.77,0,6.3-2.3,10.07-6.13,14.48Z"/><path class="cls-4" d="M140.98,59.77c-3.04-33.99-35.35-51.73-69.93-49.63C36.47,12.24,17.66,30.16,11.13,52.34c-6.54,22.17,2.6,45.13,9.66,56.48,15.4,24.75,54.39,35.64,85.69,21.76,27.56-12.23,37.54-36.82,34.5-70.81Zm-47.74,28.99c-4.6,5.29-11.41,7.21-18.96,7.21-13.87,0-25.11-7.82-25.11-21.68,0-4.84,1.38-9.37,3.74-13.19,4.43-7.15,13.71-10.58,22.73-10.58,13.87,0,23.73,9.91,23.73,23.77,0,6.3-2.3,10.07-6.13,14.48Z"/><path class="cls-50" d="M11.29,86.36c8,26.38,26.03,44.66,63.91,47.84,37.88,3.18,62.11-23.38,65.7-54.36,0,0-.84,58.76-67.4,57.26-57.83-1.31-62.21-50.74-62.21-50.74Z"/><path class="cls-84" d="M76.8,96.64c20.82-.39,37.84,7.09,38.03,16.71,.18,9.62-16.55,17.74-37.37,18.14-20.82,.39-37.84-7.09-38.03-16.71-.18-9.62,16.55-17.74,37.37-18.14Z"/><path class="cls-90" d="M53.52,21.45c6.01-3.16,12.07-3.48,13.53-.7,1.46,2.78-2.23,7.6-8.24,10.76-6.01,3.16-12.07,3.48-13.53,.7-1.46-2.78,2.23-7.6,8.24-10.76Z"/><path class="cls-91" d="M38.27,36.31c2.13-2.1,4.64-3,5.61-2.01,.97,.99,.03,3.48-2.11,5.58-2.13,2.1-4.64,3-5.61,2.01s-.03-3.48,2.11-5.58Z"/><path class="cls-78" d="M13.24,84.24c-2.86-12.22-1.18-23.06,3.75-24.22,4.94-1.16,11.26,7.81,14.13,20.02,2.86,12.22,1.18,23.06-3.75,24.22-4.94,1.16-11.26-7.81-14.13-20.02Z"/><path class="cls-79" d="M109.03,56.07c-2.86-12.22,.44-23.44,7.38-25.07,6.94-1.63,14.89,6.96,17.76,19.17,2.86,12.22-.44,23.44-7.38,25.07-6.94,1.63-14.89-6.96-17.76-19.17Z"/><path class="cls-117" d="M54.23,12.68s22.78-8.47,48.03,.93c0,0-22.3-6.95-48.03-.93Z"/><path class="cls-117" d="M104.91,14.81s5.09,1.43,10.32,5.67c0,0-5.69-2.54-10.32-5.67Z"/><path class="cls-117" d="M11.85,82.15s4.62,24.22,21.67,36.88c0,0-11.94-11.7-21.67-36.88Z"/><path class="cls-117" d="M11.29,77.95s-2.97-9.4,0-15.84v15.84Z"/><path class="cls-85" d="M76.33,97.86c20.82-.39,37.83,6.43,38,15.23,.17,8.81-16.57,16.27-37.39,16.66-20.82,.39-37.83-6.43-38-15.23-.17-8.81,16.57-16.27,37.39-16.66Z"/><path class="cls-82" d="M27.23,31.97c12.04-13.59,27.64-19.43,34.85-13.05,7.2,6.38,3.28,22.57-8.76,36.16-12.04,13.59-27.64,19.43-34.85,13.05-7.2-6.38-3.28-22.57,8.76-36.16Z"/><path class="cls-87" d="M87.93,47.58c-19.75-6.61-33.28-19.36-30.23-28.49,3.05-9.13,21.54-11.17,41.28-4.57,19.75,6.61,33.28,19.36,30.23,28.49-3.05,9.13-21.54,11.17-41.28,4.57Z"/><path class="cls-86" d="M57.08,15.61c5.82-2,11.28-1.44,12.2,1.25,.92,2.69-3.04,6.49-8.86,8.48-5.82,2-11.28,1.44-12.2-1.25-.92-2.69,3.04-6.49,8.86-8.48Z"/><path class="cls-81" d="M112.47,88.27c5.72-6.02,12.62-8.76,15.4-6.12,2.78,2.65,.4,9.67-5.32,15.7-5.72,6.02-12.62,8.76-15.4,6.12-2.78-2.65-.4-9.67,5.32-15.7Z"/><path class="cls-89" d="M75.9,107.06c6.57,.73,11.7,3.06,11.46,5.2-.24,2.14-5.76,3.27-12.33,2.54-6.57-.74-11.7-3.06-11.46-5.2s5.76-3.27,12.33-2.54Z"/><path class="cls-83" d="M39.76,27.15c2.64-2.49,.94-4.81,4.16-1.39,.7,.74-.03,2.56-1.64,4.07s-3.46,2.13-4.16,1.39c-.7-.74,.03-2.56,1.64-4.07Z"/><path class="cls-88" d="M91.74,108.11c3.25-1.6,2.32-4.32,4.39-.1,.45,.91-.79,2.44-2.77,3.41-1.98,.97-3.94,1.02-4.39,.1-.45-.91,.79-2.44,2.77-3.41Z"/><g><g><path class="cls-13" d="M106.39,107.42c-1.5,2.5-4,3.75-5.59,2.79s-1.67-3.75-.17-6.25c1.5-2.5,4-3.75,5.59-2.79,1.59,.95,1.67,3.75,.17,6.25Z"/><path class="cls-159" d="M101.78,108.58h0c-.61-.37-.81-1.16-.44-1.77l2.78-4.63c.37-.61,1.16-.81,1.77-.44h0c.61,.37,.81,1.16,.44,1.77l-2.78,4.63c-.37,.61-1.16,.81-1.77,.44Z"/></g><g><path class="cls-6" d="M64.08,112.66c-1.5,2.5-4,3.75-5.59,2.79-1.59-.95-1.67-3.75-.17-6.25s4-3.75,5.59-2.79,1.67,3.75,.17,6.25Z"/><path class="cls-139" d="M59.47,113.82h0c-.61-.37-.81-1.16-.44-1.77l2.78-4.63c.37-.61,1.16-.81,1.77-.44h0c.61,.37,.81,1.16,.44,1.77l-2.78,4.63c-.37,.61-1.16,.81-1.77,.44Z"/></g><g><path class="cls-65" d="M117.76,103.85c-2.89-.38-5.03-2.17-4.79-4.01,.24-1.84,2.77-3.03,5.66-2.65,2.89,.38,5.03,2.17,4.79,4.01-.24,1.84-2.77,3.03-5.66,2.65Z"/><path class="cls-119" d="M114.86,100.08h0c.09-.71,.74-1.2,1.44-1.11l5.36,.7c.71,.09,1.2,.74,1.11,1.44h0c-.09,.71-.74,1.2-1.44,1.11l-5.36-.7c-.71-.09-1.2-.74-1.11-1.44Z"/></g><g><path class="cls-26" d="M79.97,38.28c2.13,1.98,2.84,4.69,1.58,6.05-1.26,1.36-4.01,.86-6.15-1.12s-2.84-4.69-1.58-6.05c1.26-1.36,4.01-.86,6.15,1.12Z"/><path class="cls-77" d="M80.16,43.03h0c-.48,.52-1.3,.55-1.82,.07l-3.96-3.67c-.52-.48-.55-1.3-.07-1.82h0c.48-.52,1.3-.55,1.82-.07l3.96,3.67c.52,.48,.55,1.3,.07,1.82Z"/></g><g><path class="cls-34" d="M42.13,63.03c1.79-2.29,4.43-3.22,5.89-2.08,1.46,1.14,1.19,3.93-.6,6.22-1.79,2.29-4.43,3.22-5.89,2.08-1.46-1.14-1.19-3.93,.6-6.22Z"/><path class="cls-120" d="M46.85,62.45h0c.56,.44,.66,1.25,.22,1.81l-3.33,4.25c-.44,.56-1.25,.66-1.81,.22h0c-.56-.44-.66-1.25-.22-1.81l3.33-4.25c.44-.56,1.25-.66,1.81-.22Z"/></g><g><path class="cls-22" d="M35.6,62.24c2.9,.19,5.16,1.84,5.04,3.69-.12,1.85-2.57,3.2-5.48,3.01-2.9-.19-5.16-1.84-5.04-3.69,.12-1.85,2.57-3.2,5.48-3.01Z"/><path class="cls-115" d="M38.75,65.81h0c-.05,.71-.66,1.25-1.37,1.2l-5.39-.35c-.71-.05-1.25-.66-1.2-1.37h0c.05-.71,.66-1.25,1.37-1.2l5.39,.35c.71,.05,1.25,.66,1.2,1.37Z"/></g><g><path class="cls-41" d="M116.54,47.65c2.16-1.95,4.92-2.42,6.16-1.04,1.24,1.38,.5,4.07-1.66,6.03-2.16,1.95-4.92,2.42-6.16,1.04-1.24-1.38-.5-4.07,1.66-6.03Z"/><path class="cls-161" d="M121.29,47.89h0c.48,.53,.44,1.34-.09,1.82l-4.01,3.62c-.53,.48-1.34,.44-1.82-.09h0c-.48-.53-.44-1.34,.09-1.82l4.01-3.62c.53-.48,1.34-.44,1.82,.09Z"/></g><g><path class="cls-48" d="M108.55,31.12c2.83-.67,5.47,.26,5.9,2.06,.43,1.81-1.53,3.81-4.36,4.48-2.83,.67-5.47-.26-5.9-2.06-.43-1.81,1.53-3.81,4.36-4.48Z"/><path class="cls-126" d="M112.6,33.62h0c.16,.69-.27,1.39-.96,1.55l-5.26,1.24c-.69,.16-1.39-.27-1.55-.96h0c-.16-.69,.27-1.39,.96-1.55l5.26-1.24c.69-.16,1.39,.27,1.55,.96Z"/></g><g><path class="cls-68" d="M81.55,26.17c-2.28-1.81-3.18-4.46-2.03-5.91,1.16-1.45,3.94-1.16,6.22,.66,2.28,1.81,3.18,4.46,2.03,5.91-1.16,1.45-3.94,1.16-6.22-.66Z"/><path class="cls-137" d="M81.01,21.44h0c.44-.56,1.25-.65,1.81-.2l4.22,3.37c.56,.44,.65,1.25,.2,1.81h0c-.44,.56-1.25,.65-1.81,.2l-4.22-3.37c-.56-.44-.65-1.25-.2-1.81Z"/></g><g><path class="cls-70" d="M31.9,57.8c-2.28-1.81-3.18-4.46-2.03-5.91s3.94-1.16,6.22,.66c2.28,1.81,3.18,4.46,2.03,5.91-1.16,1.45-3.94,1.16-6.22-.66Z"/><path class="cls-111" d="M31.36,53.07h0c.44-.56,1.25-.65,1.81-.2l4.22,3.37c.56,.44,.65,1.25,.2,1.81h0c-.44,.56-1.25,.65-1.81,.2l-4.22-3.37c-.56-.44-.65-1.25-.2-1.81Z"/></g><g><path class="cls-58" d="M20.91,50.65c-2.22,1.88-4.99,2.26-6.19,.84-1.2-1.42-.37-4.09,1.85-5.97s4.99-2.26,6.19-.84c1.2,1.42,.37,4.09-1.85,5.97Z"/><path class="cls-97" d="M16.17,50.27h0c-.46-.54-.39-1.36,.15-1.82l4.12-3.49c.54-.46,1.36-.39,1.82,.15h0c.46,.54,.39,1.36-.15,1.82l-4.12,3.49c-.54,.46-1.36,.39-1.82-.15Z"/></g><g><path class="cls-2" d="M107.75,74.7c-2.28-1.81-3.18-4.46-2.03-5.91,1.16-1.45,3.94-1.16,6.22,.66,2.28,1.81,3.18,4.46,2.03,5.91-1.16,1.45-3.94,1.16-6.22-.66Z"/><path class="cls-127" d="M107.21,69.97h0c.44-.56,1.25-.65,1.81-.2l4.22,3.37c.56,.44,.65,1.25,.2,1.81h0c-.44,.56-1.25,.65-1.81,.2l-4.22-3.37c-.56-.44-.65-1.25-.2-1.81Z"/></g><g><path class="cls-46" d="M98.46,100.12c-2.28-1.81-3.18-4.46-2.03-5.91s3.94-1.16,6.22,.66c2.28,1.81,3.18,4.46,2.03,5.91-1.16,1.45-3.94,1.16-6.22-.66Z"/><path class="cls-113" d="M97.92,95.4h0c.44-.56,1.25-.65,1.81-.2l4.22,3.37c.56,.44,.65,1.25,.2,1.81h0c-.44,.56-1.25,.65-1.81,.2l-4.22-3.37c-.56-.44-.65-1.25-.2-1.81Z"/></g><g><path class="cls-75" d="M99.5,121.87c.64-2.84,2.62-4.81,4.43-4.41,1.81,.41,2.76,3.04,2.13,5.88-.64,2.84-2.62,4.81-4.43,4.41s-2.76-3.04-2.13-5.88Z"/><path class="cls-158" d="M103.51,119.32h0c.69,.16,1.13,.84,.98,1.54l-1.18,5.27c-.16,.69-.84,1.13-1.54,.98h0c-.69-.16-1.13-.84-.98-1.54l1.18-5.27c.16-.69,.84-1.13,1.54-.98Z"/></g><g><path class="cls-25" d="M34.02,107.52c2.8,.8,4.66,2.89,4.15,4.67s-3.19,2.59-5.99,1.79c-2.8-.8-4.66-2.89-4.15-4.67s3.19-2.59,5.99-1.79Z"/><path class="cls-147" d="M36.34,111.67h0c-.19,.68-.91,1.08-1.59,.89l-5.2-1.48c-.68-.19-1.08-.91-.89-1.59h0c.19-.68,.91-1.08,1.59-.89l5.2,1.48c.68,.19,1.08,.91,.89,1.59Z"/></g><g><path class="cls-33" d="M112.46,36.63c.64-2.84,2.62-4.81,4.43-4.41s2.76,3.04,2.13,5.88c-.64,2.84-2.62,4.81-4.43,4.41-1.81-.41-2.76-3.04-2.13-5.88Z"/><path class="cls-160" d="M116.47,34.07h0c.69,.16,1.13,.84,.98,1.54l-1.18,5.27c-.16,.69-.84,1.13-1.54,.98h0c-.69-.16-1.13-.84-.98-1.54l1.18-5.27c.16-.69,.84-1.13,1.54-.98Z"/></g><g><path class="cls-28" d="M73.33,121.26c.64-2.84,2.62-4.81,4.43-4.41s2.76,3.04,2.13,5.88c-.64,2.84-2.62,4.81-4.43,4.41-1.81-.41-2.76-3.04-2.13-5.88Z"/><path class="cls-162" d="M77.34,118.71h0c.69,.16,1.13,.84,.98,1.54l-1.18,5.27c-.16,.69-.84,1.13-1.54,.98h0c-.69-.16-1.13-.84-.98-1.54l1.18-5.27c.16-.69,.84-1.13,1.54-.98Z"/></g><g><path class="cls-72" d="M126.96,106.03c-2.32,1.76-5.11,1.99-6.23,.51s-.15-4.1,2.17-5.86c2.32-1.76,5.11-1.99,6.23-.51s.15,4.1-2.17,5.86Z"/><path class="cls-157" d="M122.25,105.39h0c-.43-.57-.32-1.38,.25-1.81l4.3-3.27c.57-.43,1.38-.32,1.81,.25h0c.43,.57,.32,1.38-.25,1.81l-4.3,3.27c-.57,.43-1.38,.32-1.81-.25Z"/></g><g><path class="cls-67" d="M46.87,18.4c-2.01-2.11-2.55-4.85-1.21-6.13s4.06-.61,6.07,1.5,2.55,4.85,1.21,6.13c-1.34,1.28-4.06,.61-6.07-1.5Z"/><path class="cls-98" d="M46.98,13.64h0c.51-.49,1.33-.47,1.82,.04l3.73,3.91c.49,.52,.47,1.33-.04,1.82h0c-.51,.49-1.33,.47-1.82-.04l-3.73-3.91c-.49-.51-.47-1.33,.04-1.82Z"/></g><g><path class="cls-74" d="M65.54,120.35c-.28,2.9-2.01,5.1-3.86,4.92-1.85-.18-3.11-2.68-2.83-5.57,.28-2.9,2.01-5.1,3.86-4.92,1.85,.18,3.11,2.68,2.83,5.57Z"/><path class="cls-132" d="M61.86,123.38h0c-.71-.07-1.23-.7-1.16-1.41l.53-5.38c.07-.71,.7-1.23,1.41-1.16h0c.71,.07,1.23,.7,1.16,1.41l-.53,5.38c-.07,.71-.7,1.23-1.41,1.16Z"/></g><g><path class="cls-30" d="M136.3,62.45c.56,2.86-.46,5.46-2.28,5.82-1.82,.36-3.75-1.67-4.31-4.52-.56-2.86,.46-5.46,2.28-5.82s3.75,1.67,4.31,4.52Z"/><path class="cls-99" d="M133.66,66.41h0c-.7,.14-1.38-.32-1.51-1.02l-1.04-5.3c-.14-.7,.32-1.38,1.02-1.51h0c.7-.14,1.38,.32,1.51,1.02l1.04,5.3c.14,.7-.32,1.38-1.02,1.51Z"/></g><g><path class="cls-57" d="M110.17,74.36c2.41,1.64,3.51,4.21,2.47,5.74-1.04,1.53-3.84,1.45-6.25-.18-2.41-1.64-3.52-4.21-2.47-5.74,1.04-1.53,3.84-1.45,6.25,.18Z"/><path class="cls-1" d="M111.07,79.03h0c-.4,.59-1.2,.74-1.79,.34l-4.47-3.03c-.59-.4-.74-1.2-.34-1.79h0c.4-.59,1.2-.74,1.79-.34l4.47,3.03c.59,.4,.74,1.2,.34,1.79Z"/></g><g><path class="cls-63" d="M27.2,85.39c-2.28-1.81-3.18-4.46-2.03-5.91,1.16-1.45,3.94-1.16,6.22,.66,2.28,1.81,3.18,4.46,2.03,5.91s-3.94,1.16-6.22-.66Z"/><path class="cls-101" d="M26.66,80.66h0c.44-.56,1.25-.65,1.81-.2l4.22,3.37c.56,.44,.65,1.25,.2,1.81h0c-.44,.56-1.25,.65-1.81,.2l-4.22-3.37c-.56-.44-.65-1.25-.2-1.81Z"/></g><g><path class="cls-55" d="M45.15,117.57c-2.28-1.81-3.18-4.46-2.03-5.91,1.16-1.45,3.94-1.16,6.22,.66,2.28,1.81,3.18,4.46,2.03,5.91-1.16,1.45-3.94,1.16-6.22-.66Z"/><path class="cls-118" d="M44.61,112.84h0c.44-.56,1.25-.65,1.81-.2l4.22,3.37c.56,.44,.65,1.25,.2,1.81h0c-.44,.56-1.25,.65-1.81,.2l-4.22-3.37c-.56-.44-.65-1.25-.2-1.81Z"/></g><g><path class="cls-15" d="M45.31,89.96c-2.44,1.59-5.24,1.62-6.25,.07-1.01-1.55,.14-4.1,2.58-5.69,2.44-1.59,5.24-1.62,6.25-.07,1.01,1.55-.14,4.1-2.58,5.69Z"/><path class="cls-92" d="M40.66,88.99h0c-.39-.6-.22-1.39,.38-1.78l4.52-2.95c.6-.39,1.39-.22,1.78,.38h0c.39,.6,.22,1.39-.38,1.78l-4.52,2.95c-.6,.39-1.39,.22-1.78-.37Z"/></g><g><path class="cls-54" d="M87.82,29.2c1.76,2.32,1.98,5.11,.51,6.23-1.48,1.12-4.1,.15-5.86-2.17-1.76-2.32-1.98-5.11-.51-6.23,1.48-1.12,4.1-.15,5.86,2.17Z"/><path class="cls-125" d="M87.18,33.91h0c-.57,.43-1.38,.32-1.81-.25l-3.26-4.31c-.43-.57-.32-1.38,.25-1.81h0c.57-.43,1.38-.32,1.81,.25l3.26,4.31c.43,.57,.32,1.38-.25,1.81Z"/></g><g><path class="cls-3" d="M98.47,117.86c-2.53,1.45-5.32,1.31-6.24-.3s.38-4.09,2.9-5.53c2.53-1.45,5.32-1.31,6.24,.3,.92,1.61-.38,4.09-2.9,5.53Z"/><path class="cls-135" d="M93.88,116.61h0c-.35-.62-.14-1.4,.48-1.76l4.69-2.68c.62-.35,1.4-.14,1.76,.48h0c.35,.62,.14,1.4-.48,1.76l-4.69,2.68c-.62,.35-1.4,.14-1.76-.48Z"/></g><g><path class="cls-21" d="M115.94,59.04c1.98,2.13,2.49,4.88,1.13,6.15-1.36,1.26-4.07,.56-6.05-1.57-1.98-2.13-2.49-4.88-1.13-6.15,1.36-1.26,4.07-.56,6.05,1.57Z"/><path class="cls-106" d="M115.78,63.79h0c-.52,.48-1.34,.46-1.82-.07l-3.68-3.95c-.48-.52-.46-1.34,.07-1.82h0c.52-.48,1.34-.46,1.82,.07l3.68,3.95c.48,.52,.46,1.34-.07,1.82Z"/></g><g><path class="cls-66" d="M83.49,115.91c2.15-1.96,4.91-2.44,6.16-1.06,1.25,1.37,.52,4.07-1.64,6.03-2.15,1.96-4.91,2.44-6.16,1.06-1.25-1.37-.52-4.07,1.64-6.03Z"/><path class="cls-109" d="M88.24,116.12h0c.48,.53,.44,1.34-.09,1.82l-3.99,3.64c-.53,.48-1.34,.44-1.82-.09h0c-.48-.53-.44-1.34,.09-1.82l3.99-3.64c.53-.48,1.34-.44,1.82,.09Z"/></g><g><path class="cls-49" d="M88.95,44.62c-2.53,1.45-5.32,1.31-6.24-.3-.92-1.61,.38-4.09,2.9-5.53,2.53-1.45,5.32-1.31,6.24,.3s-.38,4.09-2.9,5.53Z"/><path class="cls-112" d="M84.36,43.38h0c-.35-.62-.14-1.4,.48-1.76l4.69-2.68c.62-.35,1.4-.14,1.76,.48h0c.35,.62,.14,1.4-.48,1.76l-4.69,2.68c-.62,.35-1.4,.14-1.76-.48Z"/></g><g><path class="cls-53" d="M49.35,54.04c-2.84-.63-4.82-2.61-4.42-4.42,.4-1.81,3.03-2.77,5.87-2.14,2.84,.63,4.82,2.61,4.42,4.42-.4,1.81-3.03,2.77-5.87,2.14Z"/><path class="cls-123" d="M46.78,50.03h0c.15-.69,.84-1.13,1.54-.98l5.27,1.17c.69,.15,1.13,.84,.98,1.54h0c-.15,.69-.84,1.13-1.54,.98l-5.27-1.17c-.69-.15-1.13-.84-.98-1.54Z"/></g><g><path class="cls-61" d="M67.42,43.82c-2.29-1.8-3.21-4.44-2.07-5.9,1.15-1.46,3.93-1.18,6.22,.62,2.29,1.8,3.21,4.44,2.07,5.9-1.15,1.46-3.93,1.18-6.22-.62Z"/><path class="cls-134" d="M66.85,39.09h0c.44-.56,1.25-.66,1.81-.22l4.25,3.34c.56,.44,.66,1.25,.22,1.81h0c-.44,.56-1.25,.66-1.81,.22l-4.25-3.34c-.56-.44-.66-1.25-.22-1.81Z"/></g><g><path class="cls-19" d="M27.21,33.72c-2.88,.42-5.43-.73-5.7-2.56-.27-1.84,1.85-3.66,4.73-4.08,2.88-.42,5.43,.73,5.7,2.56,.27,1.84-1.85,3.66-4.73,4.08Z"/><path class="cls-129" d="M23.39,30.88h0c-.1-.7,.39-1.36,1.09-1.46l5.35-.78c.7-.1,1.36,.39,1.46,1.09h0c.1,.7-.39,1.36-1.09,1.46l-5.35,.78c-.7,.1-1.36-.39-1.46-1.09Z"/></g><g><path class="cls-20" d="M47.14,38.53c-2.59,1.32-5.38,1.05-6.22-.6s.58-4.06,3.17-5.39,5.38-1.05,6.22,.6c.84,1.65-.58,4.06-3.17,5.39Z"/><path class="cls-144" d="M42.62,37.06h0c-.32-.63-.07-1.41,.56-1.73l4.81-2.45c.63-.32,1.41-.07,1.73,.56h0c.32,.63,.07,1.41-.56,1.73l-4.81,2.45c-.63,.32-1.41,.07-1.73-.56Z"/></g><g><path class="cls-38" d="M35.26,25.92c-2.59,1.32-5.38,1.05-6.22-.6s.58-4.06,3.17-5.39c2.59-1.32,5.38-1.05,6.22,.6s-.58,4.06-3.17,5.39Z"/><path class="cls-138" d="M30.73,24.46h0c-.32-.63-.07-1.41,.56-1.73l4.81-2.45c.63-.32,1.41-.07,1.73,.56h0c.32,.63,.07,1.41-.56,1.73l-4.81,2.45c-.63,.32-1.41,.07-1.73-.56Z"/></g><g><path class="cls-9" d="M35.02,46.14c-2.53,1.45-5.32,1.31-6.24-.3-.92-1.61,.38-4.09,2.9-5.53,2.53-1.45,5.32-1.31,6.24,.3s-.38,4.09-2.9,5.53Z"/><path class="cls-145" d="M30.43,44.9h0c-.35-.62-.14-1.4,.48-1.76l4.69-2.68c.62-.35,1.4-.14,1.76,.48h0c.35,.62,.14,1.4-.48,1.76l-4.69,2.68c-.62,.35-1.4,.14-1.76-.48Z"/></g><g><path class="cls-32" d="M86.8,109.21c-2.34,1.73-5.14,1.92-6.24,.42-1.1-1.49-.09-4.1,2.25-5.83,2.34-1.73,5.14-1.92,6.24-.42,1.1,1.49,.09,4.1-2.25,5.83Z"/><path class="cls-156" d="M82.09,108.51h0c-.42-.57-.3-1.38,.27-1.8l4.35-3.2c.57-.42,1.38-.3,1.8,.27h0c.42,.57,.3,1.38-.27,1.8l-4.35,3.2c-.57,.42-1.38,.3-1.8-.27Z"/></g><g><path class="cls-42" d="M99.54,46.95c-2.34,1.73-5.14,1.92-6.24,.42-1.1-1.49-.09-4.1,2.25-5.83,2.34-1.73,5.14-1.92,6.24-.42,1.1,1.49,.09,4.1-2.25,5.83Z"/><path class="cls-150" d="M94.84,46.24h0c-.42-.57-.3-1.38,.27-1.8l4.35-3.2c.57-.42,1.38-.3,1.8,.27h0c.42,.57,.3,1.38-.27,1.8l-4.35,3.2c-.57,.42-1.38,.3-1.8-.27Z"/></g><g><path class="cls-52" d="M63.38,103.59c-2.34,1.73-5.14,1.92-6.24,.42-1.1-1.49-.09-4.1,2.25-5.83,2.34-1.73,5.14-1.92,6.24-.42,1.1,1.49,.09,4.1-2.25,5.83Z"/><path class="cls-151" d="M58.67,102.89h0c-.42-.57-.3-1.38,.27-1.8l4.35-3.2c.57-.42,1.38-.3,1.8,.27h0c.42,.57,.3,1.38-.27,1.8l-4.35,3.2c-.57,.42-1.38,.3-1.8-.27Z"/></g><g><path class="cls-27" d="M47.11,80.46c-2.34,1.73-5.14,1.92-6.24,.42-1.1-1.49-.09-4.1,2.25-5.83s5.14-1.92,6.24-.42c1.1,1.49,.09,4.1-2.25,5.83Z"/><path class="cls-105" d="M42.41,79.76h0c-.42-.57-.3-1.38,.27-1.8l4.35-3.2c.57-.42,1.38-.3,1.8,.27h0c.42,.57,.3,1.38-.27,1.8l-4.35,3.2c-.57,.42-1.38,.3-1.8-.27Z"/></g><g><path class="cls-73" d="M55.28,43.14c1.74,2.34,1.93,5.13,.45,6.23-1.49,1.11-4.1,.11-5.84-2.23-1.74-2.34-1.93-5.13-.45-6.23,1.49-1.11,4.1-.11,5.84,2.23Z"/><path class="cls-107" d="M54.59,47.84h0c-.57,.42-1.38,.31-1.8-.27l-3.22-4.34c-.42-.57-.31-1.38,.27-1.8h0c.57-.42,1.38-.31,1.8,.27l3.22,4.34c.42,.57,.31,1.38-.27,1.8Z"/></g><g><path class="cls-39" d="M18.92,57.58c1.74,2.34,1.93,5.13,.45,6.23-1.49,1.11-4.1,.11-5.84-2.23s-1.93-5.13-.45-6.23c1.49-1.11,4.1-.11,5.84,2.23Z"/><path class="cls-152" d="M18.23,62.28h0c-.57,.42-1.38,.31-1.8-.27l-3.22-4.34c-.42-.57-.31-1.38,.27-1.8h0c.57-.42,1.38-.31,1.8,.27l3.22,4.34c.42,.57,.3,1.38-.27,1.8Z"/></g><g><path class="cls-5" d="M113.03,43.93c1.74,2.34,1.93,5.13,.45,6.23-1.49,1.11-4.1,.11-5.84-2.23-1.74-2.34-1.93-5.13-.45-6.23,1.49-1.11,4.1-.11,5.84,2.23Z"/><path class="cls-154" d="M112.34,48.64h0c-.57,.42-1.38,.31-1.8-.27l-3.22-4.34c-.42-.57-.3-1.38,.27-1.8h0c.57-.42,1.38-.31,1.8,.27l3.22,4.34c.42,.57,.3,1.38-.27,1.8Z"/></g><g><path class="cls-12" d="M79.28,7.71c2.78,.85,4.6,2.98,4.06,4.75-.54,1.77-3.24,2.52-6.02,1.68-2.78-.85-4.6-2.98-4.06-4.75,.54-1.77,3.24-2.52,6.02-1.68Z"/><path class="cls-148" d="M81.52,11.9h0c-.21,.68-.93,1.06-1.61,.86l-5.17-1.58c-.68-.21-1.06-.93-.86-1.61h0c.21-.68,.93-1.06,1.61-.86l5.17,1.58c.68,.21,1.06,.93,.86,1.61Z"/></g><g><path class="cls-10" d="M129.67,41.25c-1.25,2.63-3.63,4.11-5.3,3.31-1.67-.8-2.02-3.58-.76-6.2,1.25-2.63,3.63-4.11,5.3-3.31,1.67,.8,2.02,3.58,.76,6.2Z"/><path class="cls-155" d="M125.19,42.84h0c-.64-.31-.91-1.08-.61-1.72l2.32-4.88c.31-.64,1.08-.91,1.72-.61h0c.64,.31,.91,1.08,.61,1.72l-2.32,4.88c-.31,.64-1.08,.91-1.72,.61Z"/></g><g><path class="cls-24" d="M98.05,35.08c1.74,2.34,1.93,5.13,.45,6.23-1.49,1.11-4.1,.11-5.84-2.23-1.74-2.34-1.93-5.13-.45-6.23,1.49-1.11,4.1-.11,5.84,2.23Z"/><path class="cls-128" d="M97.36,39.78h0c-.57,.42-1.38,.31-1.8-.27l-3.22-4.34c-.42-.57-.3-1.38,.27-1.8h0c.57-.42,1.38-.31,1.8,.27l3.22,4.34c.42,.57,.31,1.38-.27,1.8Z"/></g><g><path class="cls-71" d="M100.86,16.23c2.79-.82,5.48-.04,6,1.74,.52,1.78-1.32,3.89-4.11,4.7-2.79,.82-5.48,.04-6-1.74-.52-1.78,1.32-3.89,4.11-4.7Z"/><path class="cls-96" d="M105.04,18.51h0c.2,.68-.19,1.4-.87,1.6l-5.18,1.52c-.68,.2-1.4-.19-1.6-.87h0c-.2-.68,.19-1.4,.87-1.6l5.18-1.52c.68-.2,1.4,.19,1.6,.87Z"/></g><g><path class="cls-37" d="M95.63,98.52c1.74,2.34,1.93,5.13,.45,6.23-1.49,1.11-4.1,.11-5.84-2.23s-1.93-5.13-.45-6.23c1.49-1.11,4.1-.11,5.84,2.23Z"/><path class="cls-95" d="M94.94,103.22h0c-.57,.42-1.38,.31-1.8-.27l-3.22-4.34c-.42-.57-.3-1.38,.27-1.8h0c.57-.42,1.38-.31,1.8,.27l3.22,4.34c.42,.57,.3,1.38-.27,1.8Z"/></g><g><path class="cls-62" d="M104.01,83.34c2.42-1.62,5.22-1.68,6.25-.13,1.03,1.54-.1,4.1-2.52,5.72s-5.22,1.68-6.25,.13c-1.03-1.54,.1-4.1,2.52-5.72Z"/><path class="cls-114" d="M108.68,84.26h0c.4,.59,.24,1.39-.36,1.79l-4.49,3c-.59,.4-1.39,.24-1.79-.36h0c-.4-.59-.24-1.39,.36-1.79l4.49-3c.59-.4,1.39-.24,1.79,.36Z"/></g><g><path class="cls-59" d="M111.14,115.06c-2.45,1.58-5.24,1.59-6.25,.03s.16-4.1,2.61-5.68c2.45-1.58,5.24-1.59,6.25-.03s-.16,4.1-2.61,5.68Z"/><path class="cls-94" d="M106.49,114.07h0c-.39-.6-.21-1.4,.38-1.78l4.54-2.93c.6-.39,1.4-.21,1.78,.38h0c.39,.6,.21,1.4-.38,1.78l-4.54,2.93c-.6,.39-1.4,.21-1.78-.38Z"/></g><g><path class="cls-76" d="M130.83,74.07c-2.44-1.59-3.6-4.13-2.59-5.69,1.01-1.56,3.81-1.53,6.25,.06,2.44,1.59,3.6,4.13,2.59,5.69-1.01,1.56-3.81,1.53-6.25-.06Z"/><path class="cls-116" d="M129.84,69.41h0c.39-.6,1.19-.77,1.78-.38l4.53,2.94c.6,.39,.77,1.19,.38,1.78h0c-.39,.6-1.19,.77-1.78,.38l-4.53-2.94c-.6-.39-.77-1.19-.38-1.78Z"/></g><g><path class="cls-64" d="M43.72,74.89c-2.45,1.58-5.24,1.59-6.25,.03s.16-4.1,2.61-5.68c2.45-1.58,5.24-1.59,6.25-.03s-.16,4.1-2.61,5.68Z"/><path class="cls-143" d="M39.07,73.9h0c-.39-.6-.21-1.4,.38-1.78l4.54-2.93c.6-.39,1.4-.21,1.78,.38h0c.39,.6,.21,1.4-.38,1.78l-4.54,2.93c-.6,.39-1.4,.21-1.78-.38Z"/></g><g><ellipse class="cls-35" cx="54" cy="105.84" rx="3.36" ry="5.27" transform="translate(-17.07 10.62) rotate(-9.71)"/><path class="cls-164" d="M54.56,109.16h0c-.7,.12-1.37-.35-1.49-1.05l-.91-5.32c-.12-.7,.35-1.37,1.05-1.49h0c.7-.12,1.37,.35,1.49,1.05l.91,5.32c.12,.7-.35,1.37-1.05,1.49Z"/></g><g><path class="cls-8" d="M67.7,24.42c-2.45,1.58-5.24,1.59-6.25,.03s.16-4.1,2.61-5.68c2.45-1.58,5.24-1.59,6.25-.03s-.16,4.1-2.61,5.68Z"/><path class="cls-142" d="M63.05,23.42h0c-.39-.6-.21-1.4,.38-1.78l4.54-2.93c.6-.39,1.4-.21,1.78,.38h0c.39,.6,.21,1.4-.38,1.78l-4.54,2.93c-.6,.39-1.4,.21-1.78-.38Z"/></g><g><path class="cls-60" d="M25.27,91.6c2.13,1.98,2.84,4.69,1.58,6.05-1.26,1.36-4.01,.86-6.15-1.12-2.13-1.98-2.84-4.69-1.58-6.05,1.26-1.36,4.01-.86,6.15,1.12Z"/><path class="cls-103" d="M25.45,96.36h0c-.48,.52-1.3,.55-1.82,.07l-3.96-3.67c-.52-.48-.55-1.3-.07-1.82h0c.48-.52,1.3-.55,1.82-.07l3.96,3.67c.52,.48,.55,1.3,.07,1.82Z"/></g><g><path class="cls-36" d="M30.99,93.72c-2.28-1.81-3.18-4.46-2.03-5.91,1.16-1.45,3.94-1.16,6.22,.66,2.28,1.81,3.18,4.46,2.03,5.91-1.16,1.45-3.94,1.16-6.22-.66Z"/><path class="cls-133" d="M30.45,88.99h0c.44-.56,1.25-.65,1.81-.2l4.22,3.37c.56,.44,.65,1.25,.2,1.81h0c-.44,.56-1.25,.65-1.81,.2l-4.22-3.37c-.56-.44-.65-1.25-.2-1.81Z"/></g><g><path class="cls-43" d="M37.27,96.74c1.76,2.32,1.98,5.11,.51,6.23-1.48,1.12-4.1,.15-5.86-2.17-1.76-2.32-1.98-5.11-.51-6.23,1.48-1.12,4.1-.15,5.86,2.17Z"/><path class="cls-130" d="M36.62,101.45h0c-.57,.43-1.38,.32-1.81-.25l-3.26-4.31c-.43-.57-.32-1.38,.25-1.81h0c.57-.43,1.38-.32,1.81,.25l3.26,4.31c.43,.57,.32,1.38-.25,1.81Z"/></g><g><path class="cls-45" d="M41.46,119.71c-2.53,1.45-5.32,1.31-6.24-.3s.38-4.09,2.9-5.53,5.32-1.31,6.24,.3c.92,1.61-.38,4.09-2.9,5.53Z"/><path class="cls-121" d="M36.87,118.47h0c-.35-.62-.14-1.4,.48-1.76l4.69-2.68c.62-.35,1.4-.14,1.76,.48h0c.35,.62,.14,1.4-.48,1.76l-4.69,2.68c-.62,.35-1.4,.14-1.76-.48Z"/></g><g><path class="cls-44" d="M117.69,93.73c-2.29-1.8-3.21-4.44-2.07-5.9,1.15-1.46,3.93-1.18,6.22,.62,2.29,1.8,3.21,4.44,2.07,5.9-1.15,1.46-3.93,1.18-6.22-.62Z"/><path class="cls-131" d="M117.12,89.01h0c.44-.56,1.25-.66,1.81-.22l4.25,3.34c.56,.44,.66,1.25,.22,1.81h0c-.44,.56-1.25,.66-1.81,.22l-4.25-3.34c-.56-.44-.66-1.25-.22-1.81Z"/></g><g><path class="cls-11" d="M20.69,70.63c-.08,2.91-1.65,5.23-3.51,5.17-1.85-.05-3.29-2.45-3.21-5.36s1.65-5.23,3.51-5.17,3.29,2.45,3.21,5.36Z"/><path class="cls-93" d="M17.24,73.91h0c-.71-.02-1.27-.61-1.25-1.32l.15-5.4c.02-.71,.61-1.27,1.32-1.25h0c.71,.02,1.27,.61,1.25,1.32l-.15,5.4c-.02,.71-.61,1.27-1.32,1.25Z"/></g><g><path class="cls-17" d="M51.84,125.07c-2.34,1.73-5.14,1.92-6.24,.42-1.1-1.49-.09-4.1,2.25-5.83s5.14-1.92,6.24-.42c1.1,1.49,.09,4.1-2.25,5.83Z"/><path class="cls-140" d="M47.14,124.36h0c-.42-.57-.3-1.38,.27-1.8l4.35-3.2c.57-.42,1.38-.3,1.8,.27h0c.42,.57,.3,1.38-.27,1.8l-4.35,3.2c-.57,.42-1.38,.3-1.8-.27Z"/></g><g><path class="cls-29" d="M134.62,79.14c1.74,2.34,1.93,5.13,.45,6.23-1.49,1.11-4.1,.11-5.84-2.23-1.74-2.34-1.93-5.13-.45-6.23,1.49-1.11,4.1-.11,5.84,2.23Z"/><path class="cls-124" d="M133.93,83.85h0c-.57,.42-1.38,.31-1.8-.27l-3.22-4.34c-.42-.57-.3-1.38,.27-1.8h0c.57-.42,1.38-.31,1.8,.27l3.22,4.34c.42,.57,.3,1.38-.27,1.8Z"/></g><g><path class="cls-14" d="M28.72,75.25c2.78,.85,4.6,2.98,4.06,4.75-.54,1.77-3.24,2.52-6.02,1.68-2.78-.85-4.6-2.98-4.06-4.75,.54-1.77,3.24-2.52,6.02-1.68Z"/><path class="cls-146" d="M30.96,79.45h0c-.21,.68-.93,1.06-1.61,.86l-5.17-1.58c-.68-.21-1.06-.93-.86-1.61h0c.21-.68,.93-1.06,1.61-.86l5.17,1.58c.68,.21,1.06,.93,.86,1.61Z"/></g><g><path class="cls-40" d="M56.93,94.13c1.74,2.34,1.93,5.13,.45,6.23-1.49,1.11-4.1,.11-5.84-2.23s-1.93-5.13-.45-6.23c1.49-1.11,4.1-.11,5.84,2.23Z"/><path class="cls-153" d="M56.24,98.84h0c-.57,.42-1.38,.31-1.8-.27l-3.22-4.34c-.42-.57-.31-1.38,.27-1.8h0c.57-.42,1.38-.31,1.8,.27l3.22,4.34c.42,.57,.31,1.38-.27,1.8Z"/></g><g><path class="cls-47" d="M17.15,91.97c-2.45,1.58-5.24,1.59-6.25,.03s.16-4.1,2.61-5.68c2.45-1.58,5.24-1.59,6.25-.03s-.16,4.1-2.61,5.68Z"/><path class="cls-102" d="M12.5,90.97h0c-.39-.6-.21-1.4,.38-1.78l4.54-2.93c.6-.39,1.4-.21,1.78,.38h0c.39,.6,.21,1.4-.38,1.78l-4.54,2.93c-.6,.39-1.4,.21-1.78-.38Z"/></g><g><path class="cls-16" d="M47.99,61.01c-2.45,1.58-5.24,1.59-6.25,.03s.16-4.1,2.61-5.68c2.45-1.58,5.24-1.59,6.25-.03s-.16,4.1-2.61,5.68Z"/><path class="cls-136" d="M43.34,60.02h0c-.39-.6-.21-1.4,.38-1.78l4.54-2.93c.6-.39,1.4-.21,1.78,.38h0c.39,.6,.21,1.4-.38,1.78l-4.54,2.93c-.6,.39-1.4,.21-1.78-.38Z"/></g><g><path class="cls-56" d="M100.61,56.55c-2.23-1.87-3.06-4.55-1.87-5.96,1.19-1.42,3.97-1.05,6.2,.82,2.23,1.87,3.06,4.54,1.87,5.96-1.19,1.42-3.97,1.05-6.2-.82Z"/><path class="cls-149" d="M100.2,51.81h0c.46-.54,1.27-.61,1.82-.16l4.13,3.48c.54,.46,.61,1.27,.16,1.82h0c-.46,.54-1.27,.61-1.82,.16l-4.13-3.48c-.54-.46-.61-1.27-.16-1.82Z"/></g><g><path class="cls-23" d="M40.34,106.4c-2.31,1.78-5.09,2.03-6.23,.56s-.18-4.1,2.12-5.88c2.31-1.78,5.09-2.03,6.23-.56s.18,4.1-2.12,5.88Z"/><path class="cls-122" d="M35.62,105.79h0c-.43-.56-.33-1.37,.23-1.81l4.28-3.3c.56-.43,1.37-.33,1.81,.23h0c.43,.56,.33,1.37-.23,1.81l-4.28,3.3c-.56,.43-1.37,.33-1.81-.23Z"/></g><g><path class="cls-7" d="M71.08,107.13c2.21,1.89,3.03,4.57,1.82,5.98-1.21,1.41-3.98,1.02-6.19-.87-2.21-1.89-3.03-4.57-1.82-5.98,1.21-1.41,3.98-1.02,6.19,.87Z"/><path class="cls-163" d="M71.46,111.87h0c-.46,.54-1.28,.6-1.82,.14l-4.11-3.51c-.54-.46-.6-1.28-.14-1.82h0c.46-.54,1.28-.6,1.82-.14l4.11,3.51c.54,.46,.6,1.28,.14,1.82Z"/></g><g><path class="cls-69" d="M40.57,45.88c2.68-1.15,5.44-.69,6.17,1.01,.73,1.71-.85,4.02-3.52,5.16-2.68,1.15-5.44,.69-6.17-1.01-.73-1.71,.85-4.02,3.52-5.16Z"/><path class="cls-108" d="M44.99,47.65h0c.28,.65-.02,1.41-.68,1.69l-4.96,2.13c-.65,.28-1.41-.02-1.69-.68h0c-.28-.65,.02-1.41,.68-1.69l4.96-2.13c.65-.28,1.41,.02,1.69,.68Z"/></g></g></g></g></g></g></svg>